<svg width="800" height="763" viewBox="0 0 800 763" fill="none" xmlns="http://www.w3.org/2000/svg">
<path fill-rule="evenodd" clip-rule="evenodd" d="M404.958 41.8321C408.703 41.731 412.444 41.6217 416.181 41.5125C420.267 41.3931 424.349 41.2739 428.422 41.1657C427.761 41.264 427.057 41.3829 426.375 41.5265L426.367 41.528C426.207 41.5581 423.569 42.0549 420.813 43.4721C419.955 43.913 418.126 44.9181 416.207 46.7045C416.116 46.7893 416.019 46.8811 415.917 46.9799C404.846 45.0235 393.673 43.5931 382.453 42.6463C389.942 42.2986 397.448 42.035 404.958 41.8321ZM155.052 206.008C152.82 207.302 150.581 208.617 148.34 209.954C149.396 210.256 150.452 210.631 151.493 211.061C151.665 210.799 151.839 210.539 152.016 210.28C153.095 208.702 154.259 207.194 155.491 205.754L155.052 206.008ZM159.472 607.708C155.455 608.024 151.559 607.292 148.057 605.748C155.174 616.487 162.644 626.473 170.881 635.736C166.622 626.589 162.844 617.184 159.472 607.708ZM546.631 706.662C561.495 702.65 576.018 697.629 590.121 691.365L590.309 691.281C584.694 691.726 578.627 693.358 571.599 696.015C566.497 697.944 562.044 699.919 557.131 702.098L557.123 702.101C553.938 703.513 550.557 705.013 546.683 706.64L546.631 706.662ZM656.452 640.604C657.484 639.482 658.513 638.349 659.538 637.206C661.231 635.319 662.906 633.413 664.566 631.49C664.209 630.839 663.869 630.175 663.567 629.564C661.267 632.802 658.982 636.446 656.452 640.604ZM43.3744 178.442C41.0892 180.887 38.5491 183.888 36.3939 187.314C35.3724 188.937 34.3533 190.543 33.341 192.139C19.9028 213.316 7.65778 232.614 6.7821 266.24C4.72627 269.687 3.38759 273.67 2.43068 276.923C1.20723 281.082 -0.608574 288.783 0.201188 296.536C0.608937 300.441 1.90511 306.668 6.58975 312.253C7.53738 313.383 8.55599 314.407 9.63333 315.328V343.46C9.63333 377.096 13.9862 408.711 24.1704 439.382C33.4596 483.559 54.009 521.464 73.6823 557.752L73.6881 557.763L73.6973 557.78L73.7122 557.807C76.2582 562.504 78.7895 567.173 81.2796 571.825C108.936 623.495 136.567 671.343 191.139 706.047C191.853 706.501 192.571 706.958 193.291 707.417C193.969 707.848 194.65 708.282 195.333 708.718L195.41 708.767L195.467 708.803C231.869 732.004 276.409 760.391 327.841 761.44C332.866 761.543 337.938 761.655 343.051 761.768C427.431 763.635 522.994 765.749 606.673 728.583C639.763 713.887 666.841 690.084 689.887 664.39C709.885 642.094 727.669 617.393 743.801 594.987C746.172 591.693 748.51 588.446 750.812 585.266C786.785 535.571 800.616 482.333 799.979 423.135C799.083 339.886 768.117 265.106 732.749 195.302C703.165 136.913 661.793 74.9889 603.757 35.4747C572.775 14.3805 537.799 5.60171 503.537 2.11393C473.576 -0.936168 442.808 -0.0250304 414.899 0.801421C411.164 0.912026 407.48 1.02111 403.857 1.11899C337.864 2.90136 266.171 9.25891 201.901 38.8025C162.705 56.8205 124.75 88.0923 92.7593 114.449C88.1895 118.215 83.741 121.88 79.4283 125.391C60.9177 140.464 49.9167 159.034 43.3744 178.442ZM587.455 552.218C589.557 545.814 591.681 539.436 593.838 533.082C594.738 532.745 595.634 532.394 596.525 532.028C593.572 538.918 590.605 545.661 587.455 552.218ZM495.348 398.29C496.26 401.274 497.151 404.262 498.02 407.256C496.499 406.139 494.959 405.044 493.403 403.971C494.149 402.162 494.791 400.259 495.348 398.29ZM446.642 467.163C459.181 471.991 469.814 476.847 476.372 479.981L477.172 480.363L477.44 480.492C474.579 480.345 471.734 480.236 468.912 480.157C457.515 479.836 445.539 480.013 434.002 480.295C430.324 479.586 426.816 478.969 423.538 478.48L423.372 478.455C424.293 477.818 425.199 477.133 426.089 476.396C427.674 475.083 429.133 473.712 430.47 472.289C436.168 470.956 441.572 469.25 446.642 467.163ZM633.79 297.013C634.964 297.719 636.174 298.372 637.419 298.963C639.39 299.897 641.488 300.693 643.696 301.293C643.927 308.334 644.044 315.38 644.104 322.396C641.57 313.323 638.064 304.88 633.79 297.013ZM146.543 139.758C149.322 137.239 152.254 134.827 155.319 132.516C155.399 133.253 155.49 133.991 155.592 134.731C155.01 135.023 154.43 135.316 153.851 135.611C152.063 136.522 149.572 137.935 146.543 139.758ZM221.688 299.856C222.394 290.715 223.714 281.36 225.594 272.326C229.045 275.055 232.505 277.595 235.87 279.938C231.953 286.746 227.25 293.27 221.688 299.856ZM240.211 230.933C243.123 233.876 246.306 236.697 249.622 239.375C249.686 238.929 249.748 238.477 249.809 238.018C246.797 233.621 244.142 230.428 241.926 228.337L241.913 228.325C241.416 229.012 240.846 229.87 240.211 230.933ZM226.116 107.235C230.754 106.624 235.47 106.233 240.316 105.984C226.278 108.492 212.451 112.11 199.024 116.605C202.429 113.418 210.035 109.355 226.116 107.235ZM521.76 275.331C520.925 273.738 520.11 272.143 519.312 270.547C519.679 270.813 520.044 271.082 520.408 271.354C532.294 280.227 537.471 288.438 537.701 297.663C537.699 297.567 537.708 297.982 537.583 298.938C537.545 299.224 537.499 299.531 537.444 299.857C532.517 294.008 527.212 285.736 521.76 275.331Z" fill="#FF5050"/>
<path fill-rule="evenodd" clip-rule="evenodd" d="M190.654 113.603C190.654 102.477 199.772 93.457 211.02 93.457C275.926 93.457 336.957 94.0736 402.196 106.366C441.56 113.783 476.766 120.04 515.209 120.04C519.937 120.04 524.883 119.939 530 119.834C556.07 119.3 586.584 118.674 615.421 130.899C634.825 139.126 655.442 146.623 671.222 146.623C682.47 146.623 691.588 155.643 691.588 166.769C691.588 177.895 682.47 186.915 671.222 186.915C645.904 186.915 617.945 175.805 599.376 167.933C579.327 159.433 559.214 159.746 533.471 160.147C527.689 160.237 521.622 160.332 515.209 160.332C472.462 160.332 433.787 153.334 394.575 145.946C333.537 134.445 276.014 133.748 211.02 133.748C199.772 133.748 190.654 124.729 190.654 113.603ZM245.036 228.079C232.195 228.759 221.94 234.492 214.702 242.368C212.101 243.841 209.562 245.627 207.231 247.817C198.307 256.203 195.659 267.085 195.659 277.697C195.659 279.313 195.476 281.659 195.157 285.559C194.869 289.067 194.504 293.529 194.414 298.029C194.326 302.462 194.476 307.786 195.524 313.056C196.537 318.146 198.747 325.072 204.242 330.908C216.576 344.007 235.584 349.259 252.09 347.245C264.424 345.74 277.283 339.775 285.446 328.417C285.935 328.203 286.423 327.979 286.907 327.745C293.339 324.632 301.15 318.681 304.187 308.258C306.524 300.243 306.662 291.762 306.491 285.326C306.401 281.946 306.201 278.621 306.026 275.747L306.012 275.507C305.835 272.608 305.691 270.252 305.633 268.144C305.327 257.036 300.424 247.595 291.987 241.261C284.48 235.626 275.725 233.597 268.878 232.832C266.725 232.591 264.547 232.453 262.371 232.401C257.662 229.696 251.837 227.718 245.036 228.079ZM398.004 298.811C397.955 301.492 397.956 304.16 398.002 306.815C397.832 307.038 397.666 307.261 397.505 307.481C389.902 317.855 385.807 331.869 385.807 342.047C385.807 347.213 385.639 352.971 385.462 359.084C384.997 375.065 384.463 393.477 386.659 410.102C387.342 415.266 388.516 420.617 389.468 424.954L389.473 424.978L389.479 425.005L389.481 425.013C389.65 425.783 389.812 426.521 389.962 427.219C391.082 432.411 391.768 436.187 391.929 439.388C392.12 443.169 392.72 449.757 394.304 456.795C390.527 455.774 386.408 455.801 382.411 457.103C381.084 457.535 379.79 458.059 378.543 458.642C377.421 458.604 376.341 458.541 375.123 458.47L375.116 458.47L375.11 458.47C374.148 458.414 373.099 458.353 371.874 458.295C369.078 458.162 363.602 457.904 358.086 459.367C351.131 461.211 344.656 465.569 340.655 472.956C337.352 479.055 336.594 485.72 336.455 491.166C336.179 501.958 344.725 510.964 355.675 511.589C356.439 512.704 357.306 513.796 358.282 514.855C364.847 521.982 373.413 523.529 379.372 523.349C385.192 523.174 390.386 521.424 394.297 519.564C397.629 517.978 400.913 515.894 403.823 513.396C403.943 519.117 404.221 525.881 404.828 532.424C405.491 539.56 406.68 548.182 409.202 555.337C410.407 558.756 412.602 563.893 416.804 568.198C421.849 573.369 429.933 577.245 439.435 575.092C451.14 572.441 457.472 563.066 460.384 557.801C463.732 551.748 465.99 544.838 467.568 538.93C468.665 534.823 469.587 530.572 470.348 526.613C470.513 526.714 470.681 526.813 470.85 526.912C476.728 530.323 482.866 530.839 486.918 530.839C492.008 530.839 500.222 530.528 508.319 527.941C516.743 525.25 527.53 519.17 532.183 506.463C535.835 496.488 535.044 484.968 531.617 475.602C528.257 466.42 520.213 454.039 504.4 450.301C497.076 448.57 488.736 447.698 480.562 449.943C473.187 451.969 467.607 456.063 463.753 461.098C466.941 455.928 469.521 450.82 471.776 446.082C473.196 443.099 474.45 440.364 475.624 437.805C478.769 430.946 481.332 425.359 484.918 419.706C494.358 404.825 500.229 385.856 504.352 372.537L504.794 371.106C509.348 356.417 508.903 340.175 507.238 326.381C505.533 312.263 502.253 298.573 499.672 288.327C496.684 276.467 489.089 265.938 482.092 258.21C474.802 250.157 466.227 243.033 458.543 238.18C447.982 231.51 434.467 228.773 421.945 236.28C411.893 242.306 407.019 252.565 404.531 259.336C399.226 273.772 398.14 291.357 398.004 298.811ZM460.33 466.694C460.567 466.198 460.819 465.704 461.086 465.212C460.774 465.671 460.455 466.129 460.132 466.588C460.198 466.623 460.264 466.658 460.33 466.694ZM635.561 247.259C625.628 247.477 616.402 251.144 609.591 255.557C598.489 262.75 586.915 276.304 586.915 293.474C586.915 315.793 601.643 341.807 628.085 348.62C638.886 351.403 653.443 353.513 666.284 347.713C673.386 344.505 679.333 339.136 683.167 331.734C686.819 324.684 687.986 316.913 687.837 309.351C687.666 300.701 686.05 291.075 682.819 281.997C679.638 273.06 674.403 263.3 666.054 255.833C656.794 247.551 645.349 245.629 635.561 247.259ZM233.514 672.895C262.005 672.895 289.403 669.09 315.178 665.51L315.527 665.462C341.828 661.809 366.441 658.41 391.479 658.41C404.712 658.41 418.108 659.74 432.737 661.207L433.048 661.238C447.254 662.662 462.636 664.204 478.289 664.204C490.382 664.204 503.12 663.606 515.669 662.986L518.298 662.856C530.114 662.269 541.804 661.69 553.408 661.501C578.58 661.094 601.22 662.616 619.833 668.931C630.537 672.563 642.106 666.674 645.674 655.779C649.242 644.884 643.457 633.108 632.753 629.476C607.377 620.866 579.066 619.491 552.758 619.918C540.454 620.117 528.122 620.729 516.44 621.309H516.436L513.687 621.446C501.036 622.071 489.247 622.615 478.289 622.615C464.857 622.615 451.351 621.282 436.742 619.818L436.156 619.759C422.049 618.344 406.848 616.82 391.479 616.82C363.52 616.82 336.456 620.58 310.86 624.135L310.004 624.254C283.731 627.903 258.92 631.306 233.514 631.306C222.231 631.306 213.084 640.616 213.084 652.101C213.084 663.585 222.231 672.895 233.514 672.895Z" fill="white"/>
</svg>
