<svg width="736" height="800" viewBox="0 0 736 800" fill="none" xmlns="http://www.w3.org/2000/svg">
<path fill-rule="evenodd" clip-rule="evenodd" d="M502.839 57.6966C502.839 51.0871 502.832 45.671 502.628 43.5627L502.625 43.5392C502.602 43.2943 502.495 42.1731 502.196 40.8153L502.186 40.7712C502.09 40.3253 501.562 37.8755 500.108 35.1337C499.028 33.3109 495.12 28.8184 492.021 26.533C486.262 24.0355 473.973 24.1358 468.383 26.6474C465.422 28.8592 461.661 33.1593 460.608 34.8959C460.056 35.9754 459.277 37.8136 459.015 38.5567C458.552 39.9469 458.332 41.0766 458.258 41.4679C458.08 42.4045 457.999 43.163 457.975 43.3972C457.872 44.3714 457.826 45.4061 457.806 45.8665L457.806 45.8811C457.748 47.1954 457.69 49.14 457.631 51.4989C457.394 61.0371 457.08 79.9505 456.768 102.496C456.709 106.797 456.649 111.237 456.59 115.775C456.449 116.163 456.295 116.577 456.126 117.021C455.943 117.498 455.722 118.059 455.471 118.691L455.467 118.701C453.976 122.47 451.471 128.798 450.261 135.436C449.026 142.212 448.077 149.015 447.2 155.295L446.934 157.196C445.956 164.181 445.025 170.569 443.781 176.777C443.03 180.523 442.24 184.295 441.442 188.104C437.197 208.379 432.734 229.7 432.734 253.715C432.734 261.605 432.873 269.129 433.009 276.417C433.315 292.872 433.598 308.121 432.199 323.644C429.343 355.345 429.407 387.405 430.228 418.913C428.632 420.481 427.616 421.849 427.171 422.449L427.117 422.521C425.505 424.687 424.204 426.945 423.257 428.717C419.599 435.554 416.389 444.347 415.889 445.772C412.261 456.116 409.493 466.785 407.333 477.551V477.447C407.333 474.923 407.246 472.331 406.961 469.853C406.705 467.632 406.142 464.053 404.461 460.326C402.636 456.277 398.604 450.263 390.714 447.338C386.689 445.846 382.967 445.666 379.996 445.947C379.184 444 378.316 442.002 377.542 440.421L377.514 440.364C377.2 439.721 376.27 437.817 374.962 436.104C374.579 435.602 373.689 434.478 372.335 433.341L372.323 433.331C372.126 433.165 371.726 432.829 371.143 432.424C369.168 429.363 366.425 426.772 362.949 424.946C360.057 423.427 356.936 422.914 353.948 423.28C353.91 420.681 353.788 418.179 353.511 415.935C353.345 414.59 353.031 412.526 352.324 410.279L352.296 410.19C351.901 408.919 349.916 402.536 343.495 397.983C339.303 395.01 333.726 393.217 327.634 393.936C322.147 394.583 318.27 397.028 316.175 398.665C312.374 401.637 310.418 405.118 309.858 406.118C308.331 408.843 307.349 411.7 306.82 413.322C304.518 420.38 302.345 431.167 301.609 435.815C300.777 441.072 300.011 446.325 299.289 451.552C299.053 450.862 298.809 450.161 298.567 449.482C297.814 447.376 296.453 443.671 294.666 440.517C294.156 439.618 293.369 438.325 292.285 436.941C291.37 435.773 289.276 433.272 285.86 431.181C282.127 428.896 275.034 426.165 266.653 428.934C264.623 429.604 262.865 430.489 261.351 431.473C260.789 428.94 260.054 426.426 259.1 423.992C257.584 420.129 251.991 409.586 238.579 408.684C228.325 407.995 221.716 414.053 220.361 415.296L220.345 415.309C216.304 419.014 213.516 423.867 212.292 426.041C211.419 427.592 210.572 429.222 209.792 430.799C207.343 427.553 203.819 424.21 198.798 421.983C191.495 418.745 184.677 419.689 180.905 420.631C176.834 421.647 173.383 423.37 170.801 424.953C169.231 425.916 167.706 426.996 166.266 428.167C164.562 426.368 162.484 424.659 159.953 423.239C152.348 418.971 144.673 420.145 139.867 422.244C135.825 424.01 133.334 426.516 132.379 427.532C130.311 429.73 129.112 431.897 128.755 432.542C127.778 434.309 127.031 436.121 126.578 437.263C125.551 439.85 124.408 443.188 123.268 446.708C121.752 451.392 120.022 457.088 118.247 463.182C112.602 462.321 106.776 463.577 101.917 466.816C96.8491 470.194 94.4607 474.642 93.5914 476.387C91.6392 480.306 90.7468 484.531 90.2414 487.304C89.4989 491.378 88.4694 494.784 87.107 497.982V480.25C88.1303 479.581 89.0387 478.87 89.835 478.159C93.2328 475.128 94.9259 471.812 95.6998 470.062C96.5549 468.127 97.0253 466.39 97.2954 465.213C97.831 462.878 98.0517 460.61 98.1678 458.86C98.2933 456.969 98.343 454.896 98.343 452.692V354.605C98.343 348.429 98.6011 341.875 98.9086 334.71L98.9866 332.9C99.2676 326.394 99.5689 319.419 99.6696 312.443C99.7672 305.678 99.689 298.549 99.1683 291.288L99.5168 290.046C100.692 285.859 101.904 281.536 103.129 276.994C107.305 261.505 111.304 244.427 112.205 226.001C112.303 223.993 112.173 221.763 112.104 220.595C112.022 219.197 111.903 217.536 111.784 215.879L111.751 215.413C111.48 211.631 111.189 207.434 111.052 203.373C111.013 202.22 110.989 201.148 110.98 200.159C111.267 200.013 111.555 199.864 111.841 199.711C118.371 196.22 123.888 191.227 128.726 183.383C132.857 176.686 137.07 169.795 139.748 161.737C142.571 153.242 143.287 144.848 143.287 135.076C143.287 111.815 141.873 85.8373 131.914 60.4472C130.896 57.8497 129.298 54.3507 126.707 51.0927C124.293 48.0571 118.461 42.1132 108.78 41.5212C98.855 40.9142 92.3103 46.3511 89.5833 49.2183C86.7632 52.1836 85.1046 55.3191 84.2348 57.1382C81.0095 63.8843 79.4821 72.6259 79.1049 74.8836C78.3634 79.3226 76.8873 83.9568 74.8427 90.3762C74.3485 91.9278 73.8211 93.5837 73.2628 95.3664C70.7989 103.234 67.564 114.134 67.564 125.268C67.564 131.366 65.3368 140.976 62.5155 147.231C57.0487 159.351 55.8827 171.903 55.7171 182.208C55.6332 187.435 55.8106 192.57 55.9822 197.091L56.0344 198.455C56.1925 202.579 56.328 206.115 56.328 209.498C56.328 217.597 60.6435 224.69 67.1054 228.613C66.6915 233.314 66.0165 238.015 65.1368 242.779L65.0856 242.791C59.1181 244.206 55.2607 247.59 53.2331 249.843C51.201 252.102 50.0104 254.308 49.3724 255.638C47.2664 260.028 46.6198 264.805 46.3691 266.657L46.3675 266.669C45.9924 269.439 45.7486 272.485 45.5788 275.368C44.9755 285.613 45.0651 298.585 45.0879 301.891C45.0903 302.243 45.092 302.485 45.092 302.603V333.486C44.3763 345.265 44.645 356.967 44.8826 367.313C44.9905 372.011 45.092 376.43 45.092 380.45V385.672L53.519 385.672V429.141C52.568 429.789 51.7027 430.481 50.9277 431.189C47.9311 433.93 46.3051 436.857 45.479 438.596C44.5948 440.457 44.072 442.15 43.7535 443.362C43.4204 444.629 43.1949 445.819 43.0343 446.845C42.4472 450.595 42.283 455.138 42.283 460.009V656.495C42.283 663.374 41.8513 670.268 41.3646 678.04C41.0655 682.817 40.7455 687.927 40.4923 693.569C39.8882 707.029 39.769 722.629 42.9728 737.012C43.721 740.372 45.4375 746.029 48.1898 751.375C49.548 754.012 51.7507 757.751 55.0865 761.132C58.2847 764.374 64.9076 769.624 74.6825 769.624C91.2398 769.624 97.8385 755.408 99.1587 752.369C101.392 747.226 102.539 741.448 103.242 736.688C103.322 736.151 103.398 735.608 103.471 735.057C104.768 735.456 106.171 735.758 107.685 735.931C109.579 736.147 111.348 736.123 112.984 735.93C113.185 737.711 113.456 739.599 113.807 741.457C114.263 743.87 115.066 747.405 116.572 750.911C117.326 752.667 118.61 755.262 120.732 757.868C122.814 760.425 126.794 764.31 133.132 766.117C145.707 769.701 156.49 765.158 163.509 759.088C165.649 757.237 167.516 755.203 169.144 753.122C169.272 753.994 169.435 754.897 169.644 755.805C169.931 757.051 170.476 759.076 171.551 761.324C172.456 763.215 174.885 767.74 180.197 771.071C186.903 775.277 194.669 775.429 200.939 772.896C205.916 770.885 208.877 767.668 210.055 766.285C212.552 763.355 213.95 760.282 214.511 759.015C216.073 755.489 217.549 750.685 218.877 745.63C219.026 747.201 219.441 750.114 220.7 753.156C221.382 754.804 224.112 761.117 231.481 764.861C241.103 769.749 249.99 766.399 254.315 763.552C257.984 761.137 260.069 758.238 260.808 757.175C261.786 755.766 262.494 754.449 262.956 753.527C268.128 743.207 272.196 732.748 275.409 722.244C275.423 725.655 275.43 729.065 275.43 732.473C275.43 732.319 275.275 740.207 275.395 746.667C275.456 749.96 275.594 753.893 275.959 757.213C276.114 758.625 276.443 761.295 277.289 764.036C277.621 765.11 278.685 768.482 281.34 771.885C284.34 775.729 293.022 783.392 305.559 779.818C314.55 777.255 320.007 771.064 323.002 766.111C324.47 763.683 325.593 761.172 326.465 758.745C327.907 759.807 329.495 760.757 331.231 761.563C336.96 764.224 342.632 764.543 346.911 764.292C358.071 763.637 364.687 756.425 367.499 752.578C370.538 748.419 372.431 743.831 373.657 740.29C375.833 734.005 377.349 726.679 378.439 719.898C379.023 733.167 379.363 746.429 379.363 759.72C379.363 761.518 379.377 763.079 379.416 764.328C379.435 764.93 379.466 765.682 379.527 766.45C379.557 766.828 379.609 767.415 379.705 768.101L379.708 768.124C379.768 768.555 379.997 770.203 380.642 772.165C380.9 772.954 381.795 775.642 383.921 778.519C385.798 781.061 393.005 789.217 405.305 787.378C415.125 785.909 419.829 778.881 420.615 777.707L420.637 777.673C422.064 775.544 422.789 773.656 423.051 772.949C423.97 770.47 424.278 768.162 424.288 768.082C424.482 766.825 424.62 765.405 424.718 764.308C425.136 759.636 425.679 750.796 426.254 740.738C426.365 740.87 426.479 741.002 426.595 741.134C429.646 744.598 435.199 748.828 443.219 749.29C450.13 749.689 455.394 747.066 458.495 744.928C460.275 745.785 462.251 746.481 464.429 746.932C471.425 748.38 477.504 746.675 481.704 744.643C489.077 741.076 494.552 734.663 498.416 729.462L498.428 729.453L498.455 729.435C498.482 729.417 498.521 729.392 498.574 729.362C498.611 729.34 498.655 729.315 498.707 729.288C499.257 728.998 500.401 728.535 502.583 728.069C504.811 727.594 507.384 727.258 510.849 726.871C511.121 726.841 511.404 726.81 511.695 726.778L512.174 726.725C515.11 726.403 518.825 725.995 522.326 725.391C526.353 724.696 531.118 723.708 535.382 722.824C537.794 722.324 540.048 721.857 541.913 721.496C547.994 720.318 553 719.587 557.415 719.485C560.177 719.421 563.807 719.608 569.067 719.895L569.167 719.9C574.012 720.164 579.939 720.488 585.89 720.456C591.845 720.423 598.686 720.043 605.409 718.6C612.05 717.176 619.992 714.421 626.886 708.629C627.752 707.901 629.616 706.781 634.309 704.472C634.711 704.274 635.144 704.063 635.606 703.838C639.378 701.999 644.992 699.262 649.863 695.897C659.919 688.952 668.244 681.096 675.616 674.128C675.976 673.788 676.732 673.213 679.544 671.421L680.041 671.105C682.327 669.655 686.278 667.149 689.864 663.929C692.616 661.458 694.995 658.702 696.933 655.54C698.859 652.398 699.945 649.506 700.631 647.374C701.522 644.604 701.703 643.803 701.784 643.449C701.806 643.35 701.821 643.286 701.841 643.224C701.878 643.107 701.934 642.997 702.096 642.673C707.613 631.665 713.513 619.088 713.513 601.846C713.513 589.497 703.479 579.486 691.101 579.486C678.724 579.486 668.689 589.497 668.689 601.846C668.689 608 667.048 612.61 662.004 622.674C660.525 625.625 659.598 628.222 658.949 630.306C658.794 630.803 658.652 631.284 658.529 631.706C657.86 632.163 656.895 632.79 655.42 633.73L655.14 633.908C652.747 635.431 648.575 638.085 644.789 641.664C637.194 648.842 631.191 654.403 624.349 659.129C622.417 660.463 619.946 661.678 615.41 663.908L614.418 664.396C610.354 666.396 603.842 669.6 598.287 674.194C598.068 674.294 597.382 674.58 595.986 674.88C593.524 675.408 590.12 675.712 585.647 675.736C581.212 675.76 576.568 675.517 571.515 675.241L570.891 675.207L570.888 675.207C566.361 674.959 561.046 674.668 556.373 674.777C548.144 674.968 540.2 676.272 533.369 677.596C530.097 678.23 527.359 678.803 524.822 679.334C521.35 680.061 518.254 680.709 514.682 681.326C512.652 681.676 510.485 681.916 507.443 682.253C506.94 682.309 506.414 682.367 505.861 682.429C502.335 682.823 497.813 683.356 493.208 684.338C490.949 684.82 488.489 685.447 485.93 686.297C485.854 662.055 485.998 639.508 489.199 616.793C491.58 599.905 492.303 583.052 492.809 567.152C492.888 564.651 492.962 562.181 493.036 559.735C493.439 546.29 493.819 533.613 494.947 521.006C495.973 509.538 497.827 497.982 499.827 485.513L500.185 483.277C502.27 470.261 504.459 456.26 505.438 442.086C508.428 398.835 507.712 357.526 505.78 315.133C505.257 303.633 504.153 292.083 503.111 281.18C502.914 279.121 502.72 277.085 502.532 275.076C501.32 262.136 500.342 250.02 500.342 238.146C500.342 212.362 500.804 164.207 501.331 122.518C502.207 118.813 502.839 114.61 502.839 110.01V57.6966Z" fill="#FFD43E"/>
<path fill-rule="evenodd" clip-rule="evenodd" d="M102.315 34.5572C108.159 33.2555 109.445 33.6446 109.648 33.7059L109.663 33.7104C110.334 33.9015 111.843 34.5356 117.31 38.7713C117.402 38.9172 117.546 39.1669 117.73 39.5495C118.309 40.7542 118.939 42.5677 119.519 45.0169C120.691 49.9613 121.227 55.5538 121.578 60.1306C122.716 74.9553 126.226 92.0798 130.371 106.101C131.232 109.015 131.532 113.5 131.284 120.09C131.215 121.921 131.072 124.293 130.917 126.857C130.643 131.403 130.332 136.555 130.332 140.381C130.332 141.945 129.712 144 127.225 149.968L126.935 150.661C124.914 155.49 121.529 163.573 121.529 172.735C121.529 173.209 121.111 175.494 118.315 179.628C116.1 182.904 113.216 186.131 110.461 188.852L110.261 188.923C109.481 188.487 108.724 188.049 108 187.613C106.347 186.618 105.038 185.741 104.149 185.086C103.863 184.875 103.665 184.72 103.541 184.62C97.5221 178.066 87.3298 177.267 80.3391 182.957C73.1048 188.845 72.0385 199.452 77.9574 206.648C79.9159 209.029 82.3935 210.958 83.9944 212.138C85.9197 213.558 88.1428 215.016 90.4756 216.421C91.1537 216.829 91.8555 217.241 92.5778 217.655C93.4327 219.076 94.4041 220.237 95.3139 221.153C95.3538 222.009 95.347 223.065 95.2998 224.427C95.2804 224.986 95.2597 225.471 95.2368 226.006C95.2233 226.322 95.209 226.657 95.1939 227.033C95.1581 227.922 95.1196 229.006 95.1196 230.09C95.1196 249.75 95.8591 269.403 96.5868 288.741L96.5987 289.057C97.3341 308.603 98.0539 327.839 98.0539 347.087L98.054 347.337C94.668 345.889 91.0612 343.941 88.056 342.053C86.4715 341.058 85.2176 340.182 84.3654 339.526C84.0913 339.315 83.9019 339.16 83.7833 339.06C78.0146 332.506 68.247 331.707 61.5476 337.397C59.3017 339.304 57.6762 341.707 56.6976 344.328L56.7432 343.048L56.7437 343.034C57.4755 322.52 58.2216 301.6 58.2216 280.745V233.031C58.2216 226.686 58.1307 220.534 58.0419 214.526C57.7798 196.784 57.5362 180.302 59.7075 163.823C60.5278 157.598 62.1205 151.355 64.0101 143.948C64.3316 142.688 64.6617 141.394 64.998 140.061C67.1727 131.44 69.5583 121.312 69.9477 110.773C70.0895 106.935 71.6701 102.636 74.8408 94.6572L75.0535 94.1224C77.7304 87.3939 81.6967 77.4244 81.6967 66.5219C81.6967 55.1211 83.5092 48.0085 88.2728 41.8695C90.436 39.0817 91.6936 37.4846 92.5679 36.4579L92.7952 36.4155C93.151 36.3499 93.5596 36.2769 94.0179 36.1949C95.9628 35.8472 98.8057 35.3388 102.315 34.5572ZM86.7473 378.911C90.2565 380.356 94.8961 382.003 99.8008 382.687C100.139 386.347 100.518 390.014 100.928 393.715C101.532 399.161 101.38 404.154 101.198 410.184C101.098 413.487 100.988 417.102 100.988 421.272L100.988 421.243C100.988 421.243 100.976 421.545 100.908 422.374C100.863 422.928 100.816 423.449 100.761 424.059C100.721 424.506 100.676 425.001 100.625 425.591C100.42 427.941 100.141 431.404 100.222 434.656C100.262 436.265 100.399 438.471 100.91 440.784C101.305 442.574 102.486 447.26 106.557 451.148C108.893 453.38 112.047 455.202 115.867 455.883C119.551 456.54 122.783 455.948 125.16 455.126C129.435 453.646 132.422 450.92 134.007 449.331C136.524 446.808 138.751 444.216 140.578 442.071L141.139 441.412C142.819 439.438 144.142 437.884 145.521 436.427C148.425 433.358 150.432 432 152.487 431.3C157.269 429.673 162.951 429.002 169.964 428.889C173.441 428.833 177.014 428.913 180.865 429.018L182.257 429.057L182.261 429.057H182.266H182.27C185.621 429.151 189.217 429.252 192.742 429.252H231.338C232.411 430.889 233.789 432.366 235.458 433.594C241.543 438.071 249.632 437.866 255.424 433.635C256.863 433.775 258.219 433.843 259.294 433.886C260.37 435.61 262.073 437.843 264.657 439.776C268.85 442.912 273.527 443.958 277.676 443.958C279.492 443.958 281.352 443.836 282.674 443.75L282.978 443.73C284.335 443.64 285.356 443.573 286.344 443.546C287.045 443.526 287.534 443.534 287.86 443.551C295.828 447.244 300.857 451.643 304.008 456.422C307.253 461.342 309.33 467.912 309.33 477.157C309.33 478.297 309.443 479.412 309.659 480.489V576.831C309.659 585.391 308.888 596.387 307.095 607.127C305.264 618.102 302.565 627.582 299.302 633.855C299.293 633.871 299.211 634.018 299.016 634.297C298.798 634.608 298.487 635.018 298.064 635.516C297.21 636.523 296.05 637.718 294.606 639.006C291.686 641.613 288.092 644.168 284.472 646.081C280.844 647.997 278.043 648.818 276.367 648.998C274.202 646.238 273.125 642.335 273.314 635.456C273.422 631.5 273.925 627.316 274.55 622.383L274.647 621.619C275.21 617.188 275.881 611.913 276.023 606.876C276.201 600.57 276.649 594.215 277.131 587.378C277.313 584.794 277.5 582.141 277.679 579.396C278.311 569.718 278.807 559.293 278.278 548.843C277.211 527.732 271.891 505.176 254.065 486.077C246.494 477.964 235.313 472.422 223.86 471.218C211.966 469.967 198.065 473.369 188.358 485.647C188.276 485.751 188.167 485.884 187.676 486.273C187.417 486.478 187.191 486.648 186.806 486.936L186.35 487.279C185.765 487.719 184.886 488.386 183.956 489.183C181.933 490.916 179.65 493.27 177.668 496.622C175.742 499.878 174.484 503.424 173.656 507.197C172.581 512.091 172.842 516.853 173.97 520.99C174.993 524.741 177.156 529.473 181.368 533.028C183.517 534.841 187.269 537.208 192.409 537.469C198.193 537.763 203.196 535.252 206.525 531.628C209.455 528.44 210.708 524.886 211.295 522.51C211.92 519.979 212.108 517.481 212.108 515.251C212.108 513.409 211.815 511.636 211.273 509.978C212.246 509.025 213.264 507.92 214.282 506.632C215.384 505.238 217.064 504.278 220.428 504.631C224.233 505.031 227.986 507.06 229.93 509.143C240.374 520.333 244.285 533.957 245.124 550.559C245.549 558.966 245.167 567.782 244.553 577.183C244.402 579.51 244.233 581.907 244.061 584.346C243.562 591.415 243.039 598.835 242.839 605.917C242.745 609.233 242.267 613.015 241.622 618.11C241.021 622.854 240.29 628.643 240.129 634.523C239.803 646.389 241.698 661.536 253.828 673.81C261.396 681.468 270.999 683.149 278.883 682.497C286.522 681.866 293.821 679.037 299.834 675.861C305.992 672.608 311.781 668.471 316.566 664.2C321.116 660.139 325.803 655.03 328.679 649.501C334.318 638.66 337.753 625.167 339.83 612.721C341.946 600.041 342.857 587.171 342.857 576.831V540.441C345.389 540.469 347.863 539.923 350.109 538.888C356.542 546.793 362.756 557.899 363.92 560.358C370.721 574.726 370.647 588.105 370.537 607.784V607.787C370.522 610.381 370.507 613.085 370.507 615.914V650.762C370.507 656.134 371.785 662.097 375.607 667.217C379.601 672.568 385.404 675.641 391.506 676.304C403.007 677.552 412.565 670.52 417.402 662.291C429.611 641.523 430.906 620.589 430.906 600.463C430.906 590.99 431.261 581.57 431.632 571.728C431.838 566.267 432.049 560.674 432.207 554.871C432.635 539.122 432.626 522.611 430.611 506.479C429.02 493.746 426.214 475.777 420.974 458.558C418.824 451.49 416.099 443.972 412.57 436.769C414.58 435.173 416.441 433.337 418.109 431.21C422.266 425.908 424.302 419.999 425.457 414.417C426.574 409.017 427.048 402.956 427.393 396.742C427.396 396.731 427.444 396.356 427.694 395.499C427.993 394.475 428.441 393.222 429.086 391.563C429.256 391.125 429.462 390.611 429.69 390.04L429.693 390.031L429.701 390.012C430.829 387.192 432.519 382.963 433.449 379.237C436.615 366.55 436.436 353.451 436.291 342.863C436.262 340.773 436.235 338.782 436.235 336.91C436.235 312.519 438.817 290.985 444.016 266.905C445.895 258.198 445.33 248.681 444.941 242.121C444.866 240.858 444.797 239.705 444.754 238.688C444.422 230.883 445.003 227.152 446.483 224.516C448.399 221.104 449.214 217.426 449.635 215.178C450.131 212.53 450.456 209.634 450.685 206.769C450.796 205.381 450.889 203.929 450.967 202.429C451.023 206.095 452.276 209.768 454.791 212.826C456.75 215.207 459.227 217.136 460.828 218.316C462.754 219.735 464.977 221.194 467.31 222.598C471.943 225.388 477.683 228.366 483.468 230.649C485.75 231.549 488.488 232.528 491.467 233.303C491.397 249.117 491.282 264.946 491.168 280.799V280.803V280.806V280.815V280.823V280.832V280.841V280.849C491.013 302.285 490.857 323.765 490.812 345.317C488.719 344.283 486.669 343.158 484.834 342.053C483.181 341.058 481.872 340.182 480.983 339.526C480.697 339.315 480.499 339.16 480.375 339.06C474.356 332.506 464.164 331.707 457.173 337.397C449.939 343.285 448.872 353.892 454.791 361.088C456.75 363.469 459.227 365.398 460.828 366.578C462.754 367.998 464.977 369.457 467.31 370.861C471.943 373.65 477.683 376.629 483.468 378.911C485.209 379.598 487.216 380.331 489.392 380.984C489.553 408.202 489.199 432.81 481.835 456.614C474.541 480.192 474.541 511.104 474.542 532.119V532.536C474.542 539.507 473.852 546.301 473.062 554.07C472.959 555.084 472.855 556.116 472.75 557.165C471.873 565.92 471.004 575.799 471.624 586.279C472.04 593.328 473.422 601.125 474.62 607.887L474.877 609.342L474.963 609.828L475.092 610.563C476.484 618.526 477.489 625.146 477.489 630.727C477.489 631.093 477.466 631.955 477.435 633.175L477.434 633.216L477.434 633.22C477.319 637.665 477.084 646.78 477.332 654.047C477.492 658.739 477.871 664.498 479.021 669.205C479.483 671.095 480.66 675.549 483.97 679.377C485.889 681.598 489.265 684.446 494.308 685.462C499.49 686.506 503.937 685.118 506.921 683.469C511.505 680.936 518.88 678.759 528.058 677.295C536.955 675.875 546.292 675.317 553.92 675.317C565.159 675.317 575.849 673.701 585.201 672.286L585.796 672.196C595.663 670.705 604.168 669.455 612.861 669.455C620.491 669.455 627.431 668.456 633.653 665.802C640.177 663.019 644.668 658.951 648.04 654.801C648.227 654.571 648.413 654.336 648.599 654.098C650.718 655.78 653.012 657.421 655.366 658.853C657.485 660.143 659.98 661.463 662.68 662.448C665.203 663.367 669.023 664.412 673.4 664C678.354 663.534 683.948 661.133 687.814 655.588C691.234 650.682 691.892 645.294 691.892 641.523C691.892 632.219 684.594 624.676 675.591 624.676C674.404 624.676 673.246 624.807 672.131 625.056C674.633 621.909 677.102 618.288 679.87 613.469C685.491 603.686 685.242 593.5 685.084 587.641C684.888 580.365 684.84 578.189 685.528 576.272C687.046 572.044 688.191 569.303 689.23 567.404C689.715 566.517 690.073 566.012 690.282 565.749C690.805 565.669 691.862 565.606 693.719 565.813C694.155 566.739 694.639 567.867 695.145 569.187C696.137 571.77 697.01 574.542 697.657 576.954C697.978 578.15 698.223 579.182 698.391 579.987C698.531 580.653 698.584 581.007 698.598 581.096C698.602 581.125 698.602 581.126 698.6 581.099C698.926 584.347 699.264 587.399 699.588 590.327C700.592 599.408 701.463 607.292 701.463 616.072C701.463 635.527 689.52 660.584 674.632 675.392C670.737 679.266 667.218 683.639 664.253 687.37L663.231 688.657C660.512 692.083 658.172 695.033 655.699 697.75C650.099 703.904 646.272 706.026 642.764 706.414C638.037 706.936 633.27 707.274 628.12 707.638L626.414 707.759C620.751 708.162 614.647 708.622 608.513 709.427C596.166 711.047 582.753 714.168 569.817 721.888C565.199 724.643 555.113 728.425 543.816 730.808C538.357 731.96 533.156 732.667 528.751 732.832C524.075 733.007 521.511 732.519 520.616 732.201C507.113 727.405 495.493 729.371 486.716 731.568C483.971 732.255 481.697 732.876 479.727 733.415C476.198 734.38 473.642 735.078 471.1 735.409C468.479 734.923 465.707 735.07 462.994 735.959C459.237 737.189 454.706 738.08 448.863 739.229C447.786 739.441 446.665 739.662 445.495 739.895C438.852 741.219 430.306 743.017 423.018 746.332C420.134 747.644 417.802 749.136 416.064 750.326C415.356 750.811 414.656 751.309 414.114 751.696L413.841 751.89C413.207 752.341 412.777 752.641 412.398 752.891C412.166 753.044 411.993 753.15 411.871 753.221C404.685 753.356 398.601 758.103 396.324 764.692C395.42 764.11 394.61 763.699 393.999 763.418C391.764 762.391 389.694 761.962 388.402 761.753C385.762 761.325 383.062 761.316 380.979 761.378C376.617 761.509 371.37 762.102 366.586 762.723C363.501 763.124 360.197 763.595 357.19 764.023L357.181 764.024L357.178 764.025C355.535 764.259 353.982 764.48 352.601 764.67C350.539 764.954 348.793 765.181 347.385 765.334C346.687 765.411 346.138 765.462 345.722 765.493C345.438 765.513 345.278 765.52 345.218 765.523L345.191 765.524L345.21 765.524C335.201 765.524 324.987 764.184 313.52 762.651L312.994 762.58C302.046 761.116 289.887 759.489 277.597 759.489C265.678 759.489 253.749 758.769 241.207 758.01L241.078 758.002H241.074C228.732 757.255 215.795 756.471 202.634 756.471C192.674 756.471 183.154 755.312 173.085 753.149C145.876 747.304 119.081 744.402 90.9253 744.402C84.0231 744.402 78.0934 748.676 75.5111 754.786C66.5849 755.542 58.5018 757.567 51.7592 759.256L51.2089 759.394C44.3719 761.105 38.8398 762.45 33.5294 763.015C33.4982 760.631 33.669 757.812 33.944 754.491C33.9952 753.873 34.0536 753.205 34.115 752.503C34.3987 749.26 34.7465 745.282 34.7465 742.035V584.513C34.7465 569.573 34.7599 557.057 37.3319 544.622C39.9023 532.195 40.8658 520.054 41.6566 508.935C41.7258 507.963 41.7936 506.999 41.8609 506.044C42.5834 495.78 43.2394 486.459 44.7888 477.141C45.7575 471.315 46.9568 465.262 48.1945 459.014C51.5955 441.848 55.2872 423.214 55.2872 403.788C55.2872 387.848 55.7484 371.733 56.3093 355.37C56.9088 357.399 57.8904 359.344 59.2652 361.088C61.142 363.469 63.5164 365.398 65.0506 366.578C66.8957 367.998 69.0262 369.457 71.2617 370.861C75.7022 373.65 81.2034 376.629 86.7473 378.911ZM523.005 370.313C523.015 371.434 523.025 372.56 523.035 373.689C523.305 403.135 523.601 435.487 514.018 466.463C508.462 484.42 508.213 510.088 508.213 532.536C508.213 541.321 507.337 549.889 506.56 557.486L506.409 558.971C506.357 559.48 506.306 559.983 506.256 560.482C505.391 569.124 504.787 576.704 505.237 584.312C505.531 589.285 506.538 595.001 507.788 602.103L507.799 602.167C507.951 603.033 508.107 603.919 508.266 604.826C509.62 612.572 511.16 621.871 511.16 630.727C511.16 632.232 511.11 634.131 511.052 636.317C510.973 639.305 510.88 642.827 510.882 646.607C514.876 645.617 518.877 644.842 522.726 644.228C533.693 642.478 544.847 641.828 553.92 641.828C562.437 641.828 570.839 640.583 580.737 639.087L581.112 639.03C590.548 637.603 601.381 635.966 612.861 635.966C617.694 635.966 619.717 635.307 620.381 635.023C620.745 634.868 621.065 634.719 621.851 633.751C622.742 632.654 623.392 631.632 624.534 629.836C625.125 628.906 625.849 627.768 626.806 626.304C629.257 622.557 632.512 617.952 637.303 613.187L637.533 612.958C644.308 606.22 646.514 604.027 650.635 596.854C651.127 595.997 651.585 594.495 651.425 588.539C651.419 588.313 651.411 588.075 651.402 587.824C651.392 587.551 651.381 587.263 651.37 586.961L651.37 586.952C651.18 581.966 650.851 573.272 653.818 565.008C656.746 556.853 660.948 545.647 670.298 538.715C680.976 530.798 693.72 531.282 705.743 533.939C710.689 535.032 714.14 537.738 716.119 539.63C718.207 541.626 719.799 543.816 720.971 545.657C723.318 549.342 725.189 553.559 726.603 557.243C729.331 564.35 731.608 572.83 732.105 577.767C732.357 580.278 732.644 582.865 732.94 585.519C733.99 594.968 735.135 605.274 735.135 616.072C735.135 646.091 718.339 679.283 698.441 699.072C696.108 701.393 693.698 704.327 690.667 708.14C690.342 708.548 690.009 708.969 689.668 709.399C687.041 712.714 683.956 716.605 680.664 720.223C673.27 728.348 662.368 737.943 646.483 739.699C641.049 740.299 635.599 740.684 630.546 741.041L628.818 741.163C623.145 741.567 617.946 741.969 612.918 742.629C602.939 743.938 594.584 746.163 587.141 750.605C578.119 755.989 564.054 760.773 550.804 763.569C543.99 765.007 536.82 766.043 530.017 766.298C523.486 766.542 516.009 766.126 509.291 763.74C505.058 762.236 501.233 762.468 494.933 764.045C493.954 764.29 492.788 764.616 491.468 764.984L491.46 764.987L491.457 764.988C486.713 766.313 479.991 768.191 472.893 768.862C467.096 770.725 460.347 772.041 454.745 773.133C453.766 773.324 452.823 773.508 451.925 773.687C444.915 775.084 439.99 776.286 436.679 777.791C436.271 777.977 435.731 778.28 434.767 778.94C434.72 778.972 434.545 779.096 434.287 779.278L434.284 779.28C433.383 779.917 431.487 781.257 430.588 781.849C426.485 784.549 420.533 787.645 412.185 787.645C409.102 787.645 406.213 786.796 403.729 785.314C402.353 789.45 399.455 793.054 395.346 795.163C390.962 797.413 386.077 797.51 381.833 795.844C379.226 795.931 375.415 796.328 370.805 796.927C367.872 797.308 365.002 797.717 362.162 798.122L362.151 798.123C360.45 798.366 358.759 798.607 357.072 798.84C353.249 799.367 348.492 800 345.21 800C332.816 800 320.592 798.365 309.608 796.895L309.18 796.838C297.704 795.303 287.532 793.965 277.597 793.965C264.637 793.965 251.831 793.19 239.556 792.446L239.229 792.426C226.695 791.668 214.692 790.948 202.634 790.948C190.011 790.948 178.164 789.464 166.204 786.894C143.349 781.984 120.9 779.347 97.4684 778.935C94.6913 784.369 89.0486 788.087 82.5394 788.087C75.3088 788.087 68.395 789.73 59.3326 791.998L58.5788 792.187C50.1932 794.289 39.7324 796.911 28.2532 796.911C18.8955 796.911 10.7396 792.826 5.6568 785.195C1.42264 778.837 0.415838 771.598 0.118304 766.627C-0.199273 761.32 0.185523 755.891 0.531547 751.712C0.620921 750.632 0.704864 749.656 0.781301 748.767C1.04485 745.702 1.21917 743.674 1.21917 742.035L1.21899 583.245C1.21593 569.269 1.21253 553.707 4.5026 537.8C6.57175 527.796 7.42335 517.664 8.21419 506.546C8.28546 505.544 8.35632 504.531 8.42784 503.51C9.12835 493.503 9.89189 482.596 11.7176 471.616C13.0587 463.551 14.5089 456.242 15.8791 449.337C19.0314 433.451 21.7599 419.7 21.7599 403.788C21.7599 383.261 22.4985 362.557 23.2265 342.15L23.2378 341.833C23.9731 321.22 24.6943 300.9 24.6943 280.745V233.031C24.6943 227.836 24.6119 222.42 24.5271 216.853C24.2484 198.537 23.9447 178.579 26.4688 159.423C27.5745 151.032 29.7387 142.588 31.6079 135.296C31.913 134.106 32.2102 132.946 32.4937 131.822C34.6524 123.265 36.1975 116.18 36.4433 109.529C36.8172 99.4107 40.6073 89.9376 43.1916 83.4784C43.3645 83.0464 43.5326 82.6262 43.6933 82.2219C46.753 74.5218 48.1694 70.2355 48.1694 66.5219C48.1694 51.4307 50.5919 35.6918 61.8079 21.2373L61.8868 21.1357C64.2379 18.1058 66.4429 15.264 68.4467 13.0751C70.7025 10.6109 73.5456 8.00633 77.5393 6.09806C81.0802 4.40613 84.5898 3.75874 86.6758 3.37396L86.7261 3.36469C87.2762 3.26319 87.819 3.16588 88.3698 3.06713C90.2806 2.72457 92.2903 2.36429 95.0419 1.75137C102.715 0.0423109 110.547 -0.973674 118.825 1.38365C126.563 3.58704 132.823 8.2896 138.314 12.5708C147.136 19.4483 150.546 30.5272 152.139 37.2508C153.964 44.9517 154.643 52.8073 155.007 57.5532C155.929 69.5635 158.902 84.3234 162.517 96.5535C165.031 105.058 165.057 114.218 164.787 121.359C164.643 125.194 164.444 128.23 164.268 130.926C164.046 134.312 163.86 137.163 163.86 140.381C163.86 149.347 160.497 157.358 158.507 162.096L158.501 162.111L158.302 162.587L158.163 162.918C155.73 168.759 155.056 170.973 155.056 172.735C155.056 182.976 150.45 191.925 146.303 198.134C147.554 200.483 148.263 203.161 148.263 206.005C148.263 211.268 146.626 217.617 141.35 222.524C137.213 226.373 132.437 227.82 128.697 228.324C128.666 229.029 128.647 229.533 128.647 230.09C128.647 249.115 129.366 268.236 130.102 287.785L130.102 287.791C130.834 307.236 131.581 327.102 131.581 347.087C131.581 361.71 132.616 375.261 134.25 390.004C134.691 393.983 134.842 398.271 134.857 402.476C136.952 401.341 139.227 400.323 141.705 399.479C151.266 396.225 160.936 395.424 169.425 395.287C173.699 395.218 177.914 395.319 181.781 395.425L183.216 395.465L183.225 395.465C186.625 395.56 189.717 395.646 192.742 395.646H239.529C240.798 395.646 242.193 395.657 243.675 395.744C246.028 393.364 248.439 391.218 251.035 389.213C257.238 384.422 264.057 380.835 271.77 376.778L271.772 376.777L273.081 376.088C287.496 368.497 300.63 367.568 313.476 367.568C325.009 367.568 334.006 371.763 340.935 375.996C343.933 377.828 346.831 379.854 349.267 381.556L350.058 382.109C352.821 384.036 355.115 385.6 357.423 386.938C368.233 393.199 381.228 401.52 391.904 410.044C392.074 409.628 392.327 408.873 392.591 407.595C393.16 404.844 393.544 400.949 393.884 394.824C394.224 388.681 396.486 382.77 397.808 379.368C398.272 378.176 398.673 377.162 399.02 376.284C400.004 373.798 400.56 372.392 400.887 371.084C402.902 363.009 402.824 355.121 402.721 344.721C402.696 342.269 402.671 339.677 402.671 336.91C402.671 309.849 405.571 285.922 411.21 259.8C412.033 255.984 411.831 252.132 411.502 245.88C411.412 244.158 411.311 242.255 411.221 240.12C410.876 232.015 410.766 220.359 416.607 209.182C416.619 209.121 416.632 209.054 416.646 208.981C416.84 207.944 417.048 206.337 417.228 204.091C417.585 199.618 417.739 193.791 417.766 187.22C417.793 180.706 417.694 173.779 417.585 167.162L417.541 164.541C417.448 158.953 417.359 153.612 417.359 149.256C417.359 146.866 417.233 144.268 417.077 141.089L417.072 140.986L417.072 140.982C416.924 137.981 416.752 134.485 416.744 130.954C416.727 123.999 417.293 115.026 421.09 106.468L421.411 105.744C426.697 93.8353 429.109 88.4015 429.109 78.6407C429.109 67.3304 430.223 50.6327 437.442 37.7366C441.333 30.7852 447.523 24.017 456.918 20.6412C466.198 17.3067 476.166 18.1618 485.979 21.5641C493.596 24.2051 501.722 30.7601 507.312 36.4246C510.38 39.5333 513.462 43.1534 515.93 47.0051C518.129 50.4393 521.08 55.9383 521.404 62.4359C521.654 67.4551 521.925 72.5646 522.199 77.7274C523.084 94.4442 523.999 111.72 524.358 128.295C524.961 156.071 525.126 183.94 525.092 211.801C525.095 211.928 525.097 212.055 525.097 212.182L525.096 212.372L525.095 212.482C525.094 212.557 525.093 212.632 525.091 212.708C525.059 235.728 524.893 258.742 524.728 281.692V281.698V281.703V281.709V281.712L524.728 281.731V281.737V281.744C524.55 306.436 524.372 331.054 524.363 355.526C524.84 357.082 525.097 358.734 525.097 360.445C525.097 363.531 524.534 366.99 523.005 370.313ZM457.173 189.134C453.597 192.045 451.528 196.108 451.065 200.343C451.239 196.212 451.312 191.786 451.33 187.357C451.358 180.463 451.253 173.229 451.144 166.609L451.1 163.948V163.944V163.94V163.936V163.932C451.006 158.31 450.923 153.301 450.923 149.256C450.923 145.981 450.757 142.623 450.613 139.69L450.613 139.684L450.612 139.681L450.6 139.434C450.445 136.286 450.314 133.532 450.308 130.875C450.295 125.37 450.872 122.124 451.761 120.121C452.05 119.47 452.34 118.819 452.631 118.168L452.637 118.155L452.656 118.111C457.633 106.957 462.673 95.6617 462.673 78.6407C462.673 67.9885 464.045 58.9542 466.719 54.1768C467.262 53.2069 467.7 52.7196 467.93 52.5061C468.116 52.3329 468.199 52.3032 468.248 52.2857L468.252 52.2845C468.312 52.2629 468.733 52.115 469.745 52.1605C470.804 52.2081 472.514 52.4707 475 53.3325C474.924 53.3064 474.932 53.3103 475.02 53.3568C475.271 53.4884 476.17 53.9609 477.679 55.0593C479.501 56.3849 481.545 58.1359 483.44 60.0566C485.369 62.0117 486.815 63.8089 487.68 65.1586C487.79 65.3302 487.881 65.4802 487.957 65.6092C488.196 70.3508 488.447 75.098 488.698 79.8397L488.701 79.8868C489.58 96.4904 490.455 113.027 490.802 129.025C491.297 151.827 491.495 174.609 491.529 197.404C489.189 196.277 486.878 195.021 484.834 193.79C483.181 192.795 481.872 191.919 480.983 191.263C480.697 191.053 480.499 190.898 480.375 190.797C474.356 184.243 464.164 183.445 457.173 189.134ZM364.49 431.657C356.888 426.146 348.275 420.701 340.495 416.194C336.83 414.071 333.5 411.768 330.738 409.842L330.022 409.342C327.431 407.533 325.391 406.11 323.329 404.85C319.099 402.265 316.327 401.374 313.476 401.374C302.534 401.374 295.977 402.233 288.817 406.004C286.756 407.089 284.942 408.046 283.325 408.91C283.641 409.275 283.937 409.638 284.215 409.996C284.432 409.987 284.65 409.978 284.87 409.97C285.05 409.964 285.23 409.958 285.411 409.953C288.573 409.865 294.731 409.829 300.624 412.454C313.598 418.234 324.462 426.492 331.979 437.893C339.476 449.263 342.822 462.513 342.857 476.932L342.857 477.028V477.157V501.512C348.027 499.968 353.029 500.64 356.833 501.958C361.484 503.568 365.245 506.36 367.902 508.67C370.722 511.123 373.32 513.942 375.6 516.682C384.421 527.284 392.349 541.441 394.453 545.886C395.986 549.124 397.286 552.355 398.388 555.571L398.417 554.581L398.434 553.951C398.85 538.661 398.777 524.206 397.086 510.672C395.587 498.67 393.067 482.908 388.654 468.405C386.149 460.171 383.296 453.254 380.232 447.846C372.782 447.391 366.288 441.961 364.793 434.283C364.621 433.403 364.522 432.525 364.49 431.657ZM111.476 188.446C111.476 188.446 111.42 188.479 111.283 188.537C111.403 188.474 111.476 188.446 111.476 188.446ZM288.308 443.59C288.308 443.59 288.291 443.588 288.267 443.584C288.298 443.588 288.308 443.59 288.308 443.59ZM488.236 66.1281C488.257 66.1865 488.273 66.2165 488.273 66.2165C488.273 66.2165 488.271 66.2082 488.264 66.191C488.258 66.1764 488.248 66.1555 488.236 66.1281ZM416.507 209.631C416.487 209.694 416.479 209.729 416.479 209.729L416.482 209.721L416.487 209.704C416.492 209.688 416.499 209.664 416.507 209.631ZM689.86 565.859C689.854 565.853 689.913 565.824 690.056 565.791C689.938 565.848 689.866 565.865 689.86 565.859Z" fill="#FF5050"/>
</svg>
