<svg width="800" height="695" viewBox="0 0 800 695" fill="none" xmlns="http://www.w3.org/2000/svg">
<path fill-rule="evenodd" clip-rule="evenodd" d="M559.012 206.535C566.415 202.716 575.532 205.583 579.376 212.937C593.494 239.949 612.526 266.572 635.254 284.313C642.189 289.726 649.689 297.024 656.172 304.994C662.548 312.831 668.662 322.198 671.885 331.803C674.523 339.665 670.246 348.162 662.333 350.783C654.42 353.403 645.866 349.154 643.229 341.293C641.602 336.446 637.905 330.281 632.678 323.857C627.559 317.564 621.666 311.87 616.591 307.909C589.24 286.56 567.786 255.882 552.568 226.765C548.724 219.411 551.609 210.354 559.012 206.535Z" fill="#786DFF"/>
<path fill-rule="evenodd" clip-rule="evenodd" d="M38.4025 601.509C37.8954 601.466 37.3888 601.421 36.8841 601.374C34.2769 601.128 31.3919 600.784 28.5836 600.271C26.2056 605.423 21.0097 608.997 14.9827 608.997C6.708 608.997 0 602.26 0 593.95C0 512.555 0.387061 430.956 1.88604 349.665C2.29466 327.505 4.16028 314.661 5.93146 302.783L6.01373 302.231C7.67861 291.071 9.19798 280.885 9.41853 263.166C9.59128 249.287 11.5304 235.624 13.3053 223.119L13.4565 222.053C15.3211 208.904 16.9513 197.016 16.9513 185.381C16.9513 182.69 16.7564 180.161 16.517 177.052L16.517 177.052L16.5169 177.052C16.3518 174.908 16.1654 172.488 16.0071 169.549C15.6848 163.568 15.5352 155.622 17.6324 148.251C18.9937 143.466 22.1326 140.612 24.3108 139.159C26.4311 137.744 28.4977 137.051 29.8052 136.69C32.4356 135.963 35.1113 135.758 37.0621 135.683C41.1849 135.524 46.0547 135.837 50.3314 136.22C54.7416 136.615 59.1545 137.146 62.5156 137.559L63.5564 137.687C64.8073 137.841 65.8406 137.969 66.6825 138.066C67.226 138.128 67.5453 138.16 67.6976 138.175L67.7118 138.176C69.1385 138.164 70.3898 138.085 71.8986 137.99L71.8988 137.99L71.8989 137.99C72.476 137.954 73.0907 137.915 73.7673 137.877L73.8239 137.874C75.8069 137.761 79.5768 137.548 83.3335 138.39C88.0545 139.448 93.2129 142.25 96.4935 148.008C99.2052 152.768 99.654 157.943 99.654 161.842C99.654 171.043 97.8707 179.571 95.9142 187.065C94.9291 190.838 94.0453 193.895 93.2184 196.755L93.2179 196.757L93.2173 196.759C92.1674 200.39 91.2093 203.704 90.2518 207.764C88.4344 215.471 87.8731 223.982 87.85 233.436C87.8386 238.144 87.958 242.91 88.0874 247.875L88.1007 248.382C88.2243 253.119 88.3531 258.054 88.3531 262.934V355.159L88.3551 355.196C88.359 355.277 88.3696 355.5 88.3982 355.926C88.4281 356.373 88.4639 356.849 88.5067 357.419L88.5654 358.204C88.6662 359.562 88.7966 361.385 88.8493 363.2C104.639 364.408 119.112 367.63 134.997 373.702C135.049 373.716 135.291 373.774 135.846 373.815C136.755 373.881 137.761 373.866 139.721 373.831L140.165 373.822C143.431 373.755 149.843 373.625 156.261 376.393C156.261 376.392 156.276 376.395 156.308 376.403C156.478 376.442 157.118 376.589 158.425 376.683C160.221 376.812 162.487 376.792 165.216 376.65C167.471 376.532 169.724 376.351 172.096 376.161L172.149 376.157L173.036 376.086L173.633 376.038C176.36 375.823 179.514 375.587 182.304 375.587C194.601 375.587 206.116 377.649 216.169 379.45L216.604 379.528C227.147 381.415 236.142 382.991 245.374 382.991H309.385C316.228 382.991 322.728 383.491 328.599 383.943L328.842 383.962C334.938 384.431 340.389 384.842 345.993 384.842C352.794 384.842 359.182 385.963 364.195 386.842L364.651 386.922C368.116 387.528 370.992 388.017 373.641 388.294C374.949 387.927 376.329 387.731 377.755 387.731C410.077 387.731 447.705 388.392 481.244 398.799C487.389 400.706 497.326 402.605 503.178 402.816C503.141 401.339 503.102 399.837 503.061 398.313V398.313C502.602 381.013 502.07 360.973 505.998 342.935C508.641 330.794 510.508 316.683 510.948 304.455C511.21 297.153 514.001 290.019 516.597 284.976L516.591 284.88C516.539 284.041 516.433 282.333 516.493 280.649C516.567 278.553 516.891 275.676 518.146 272.56C520.826 265.908 522.346 255.394 522.346 246.985C522.346 242.715 522.492 235.455 525.685 229.051C527.492 225.427 530.37 221.84 534.713 219.294C538.973 216.796 543.591 215.917 547.929 215.917C552.414 215.917 556.776 216.359 560.863 216.971C560.931 216.61 561.017 216.185 561.104 215.821C569.593 205.917 588.176 211.265 590.67 218.188C590.715 218.771 590.739 219.561 590.739 219.769C590.737 219.875 590.734 220.046 590.732 220.111C590.728 220.227 590.724 220.319 590.722 220.351L590.716 220.47L590.713 220.522C590.706 220.639 590.696 220.799 590.686 220.952L590.645 221.582H631.273C633.465 221.582 635.646 221.118 639.855 220.111L640.19 220.031C643.975 219.124 649.479 217.806 655.78 217.806H678.174C688.09 217.806 697.665 219.399 705.865 220.763L706.352 220.844C715.079 222.295 722.348 223.47 729.511 223.47C731.452 223.47 733.306 223.832 735.011 224.493C742.275 225.007 749.105 226.161 755.179 227.188L755.658 227.269C764.187 228.71 771.326 229.882 778.596 229.895C778.596 229.892 778.697 229.883 779.015 229.854L779.715 229.791L779.816 229.781C780.578 229.711 782.576 229.525 784.641 229.691C785.756 229.781 787.775 230.028 790.031 230.953C792.402 231.926 795.859 234.015 798.101 238.176C800.358 242.367 800.21 246.476 799.644 249.166C799.108 251.708 798.08 253.691 797.353 254.916C793.888 260.757 790.702 266.637 789.325 271.106C782.964 291.756 782.419 313.895 782.419 338.011C782.419 355.494 782.018 378.306 781.588 402.803V402.809V402.815V402.82V402.825V402.829V402.833V402.836V402.839V402.841V402.843V402.845L781.47 409.559C780.997 436.683 780.526 465.524 780.526 491.7V592.759C780.526 600.301 779.41 607.233 778.495 612.91L778.495 612.911L778.495 612.912L778.442 613.242C777.467 619.295 776.739 623.981 776.739 628.791C776.739 631.47 776.603 634.856 775.693 638.171C774.66 641.932 772.445 646.238 767.968 649.351C764.011 652.103 759.855 652.777 757.446 653.033C755.054 653.288 752.418 653.288 750.374 653.288H750.216C747.098 653.288 744.138 652.913 741.343 652.257C747.821 661.041 750.175 672.839 743.027 682.892C736.895 691.515 726.597 694.515 717.994 694.515C717.378 694.515 716.873 694.551 715.953 694.616L715.93 694.618L715.916 694.619L715.42 694.654C715.208 694.669 714.977 694.684 714.722 694.701L714.643 694.706C713.381 694.79 710.599 694.975 707.696 694.477C704.28 693.89 699.38 692.137 695.81 687.262C692.581 682.853 692.042 678.011 692.042 674.77C692.042 669.243 692.835 664.319 693.798 659.997C691.541 663.151 688.692 665.205 686.172 666.537C683.697 667.845 680.568 669.242 677.313 670.344C674.281 671.37 670.046 672.523 665.728 672.523C665.597 672.523 665.318 672.534 664.92 672.55L664.907 672.551L664.901 672.551C662.655 672.643 656.71 672.885 652.203 672.166C649.167 671.683 644.882 670.595 640.881 667.685C636.402 664.429 633.046 659.419 631.946 653.02C630.695 645.747 631.014 638.483 632.142 631.766C629.937 631.457 627.843 631.084 625.925 630.721C624.617 630.473 623.417 630.237 622.294 630.013C621.898 632.094 621.304 634.138 620.566 636.113C621.05 638.874 621.122 641.731 620.805 644.624C619.466 656.843 610.468 662.622 604.03 664.872C598.002 666.979 591.658 667.129 588.228 667.129C582.17 667.129 575.814 666.392 569.87 662.268C567.248 660.449 565.285 658.362 563.861 656.729C563.068 655.82 562.039 654.566 561.111 653.433L561.105 653.426C560.622 652.837 560.166 652.281 559.786 651.825C556.063 647.366 550.98 640.197 548.969 632.057C526.861 633.871 504.856 634.379 482.971 634.379C482.414 634.379 481.922 634.411 480.998 634.472H480.997L480.483 634.506L480.328 634.516L480.031 634.535L479.615 634.561C478.123 634.653 475.614 634.792 472.943 634.505C470.188 634.208 466.341 633.378 462.598 630.841C460.511 629.426 458.79 627.709 457.41 625.794C456.996 625.783 456.543 625.779 456.051 625.785C453.729 625.809 451.162 626.014 448.436 626.262C448.149 626.288 447.842 626.317 447.52 626.347L447.5 626.349H447.499L447.498 626.349L447.497 626.349L447.495 626.349C445.333 626.551 442.504 626.815 440.376 626.815H389.051C387.986 626.815 386.728 626.849 385.318 626.887C378.798 627.062 369.05 627.323 360.268 624.724C358.056 624.07 355.908 623.095 353.917 621.682C353.058 621.073 352.328 620.451 351.716 619.869C349.474 619.498 345.624 619.323 339.776 619.662C336.879 619.83 333.998 620.079 331.011 620.338L330.887 620.348L329.486 620.469L328.775 620.53C325.204 620.832 321.25 621.142 317.744 621.142L313.91 621.143H313.91H313.91H313.909H313.909H313.875C308.908 621.144 303.911 621.145 298.892 621.13C298.603 624.735 297.472 627.921 296.649 629.947C295.425 632.959 293.787 635.993 292.002 638.718C290.244 641.401 288.025 644.273 285.453 646.701C283.525 648.521 278.776 652.676 271.989 653.195C263.205 653.866 256.439 650.798 251.539 647.536C249.249 646.011 247.224 644.349 245.709 643.089L245.089 642.574L244.984 642.486L244.925 642.437C243.66 641.383 242.744 640.619 241.767 639.891C233.221 633.523 230.796 624.109 230.074 617.274C228.676 616.651 227.358 615.88 226.129 614.969C225.324 614.373 224.605 613.748 223.973 613.138C217.324 612.743 210.686 612.373 204.048 612.046C207.067 615.685 209.383 619.734 210.887 623.824C213.409 630.681 214.167 638.847 211.363 646.783C208.439 655.056 202.124 661.661 193.261 665.534C184.462 669.379 174.791 671.488 165.681 668.443C155.755 665.124 150.751 657.217 148.575 650.225C146.485 643.509 146.443 636.257 147.057 630.102C147.691 623.752 149.143 617.419 150.914 611.979C150.946 611.882 150.979 611.784 151.012 611.688H140.737C139.115 611.688 137.399 611.738 135.536 611.816C136.193 612.887 136.801 613.985 137.356 615.108C141.869 624.25 143.396 636.571 136.249 647.887C131.443 655.495 124.548 659.017 118.21 660.482C113.242 661.631 107.987 661.604 104.784 661.588L104.351 661.586C104.165 661.585 103.988 661.585 103.819 661.585C99.6869 661.585 95.1916 661.425 91.1528 660.427C86.6104 659.305 81.3173 656.781 77.7333 651.169C74.6825 646.391 74.1658 641.228 73.9776 638.208C73.8226 635.72 73.8354 632.687 73.8474 629.825C73.8506 629.071 73.8537 628.329 73.8537 627.613C73.8537 625.965 74.1164 624.38 74.602 622.896C72.2127 619.388 71.3605 614.943 72.4228 610.7C69.4325 610.636 66.3442 610.486 63.3759 610.169C55.6608 609.347 46.5274 607.276 38.4025 601.509ZM746.865 622.545C746.167 622.284 745.423 621.935 744.63 621.483C745.279 621.46 746.08 621.423 746.963 621.345C746.928 621.742 746.895 622.143 746.865 622.545ZM650.108 248.585C651.043 248.383 651.875 248.223 652.648 248.104C652.669 249.164 652.793 250.245 653.035 251.332C652.077 250.397 651.1 249.48 650.108 248.585ZM58.5072 358.052C58.4915 357.815 58.4764 357.574 58.4625 357.333L58.362 358.044L58.5072 358.052ZM29.9813 566.422C29.9842 563.984 29.9875 561.546 29.9913 559.107H30.8037C31.0856 560.509 31.4046 561.905 31.752 563.111L31.7639 563.152C31.9085 563.652 32.1046 564.294 32.3657 565.018C31.5748 565.593 30.8279 566.013 30.206 566.315L30.1364 566.349C30.0837 566.374 30.032 566.399 29.9813 566.422ZM727.351 646.18L727.405 646.214L727.35 646.221L727.351 646.18ZM694.928 637.566C696.624 637.671 698.34 637.771 700.071 637.858C699.016 639.469 698.257 641.312 697.887 643.325C697.743 644.111 697.591 644.863 697.43 645.6C697.377 645.15 697.311 644.708 697.232 644.274C696.785 641.794 695.936 639.545 694.928 637.566ZM516.632 286.218C516.632 286.217 516.632 286.192 516.636 286.146C516.635 286.196 516.633 286.219 516.632 286.218ZM754.366 623.103C754.366 623.102 754.323 623.106 754.243 623.12L754.254 623.119L754.306 623.113L754.336 623.109C754.357 623.106 754.367 623.104 754.366 623.103ZM349.296 617.202C349.292 617.192 349.37 617.273 349.542 617.475C349.386 617.313 349.3 617.212 349.296 617.202ZM656.19 641.329C656.191 641.329 656.214 641.334 656.256 641.348C656.21 641.337 656.189 641.33 656.19 641.329ZM516.699 576.812L517.453 576.941L517.199 576.948L516.698 576.962L516.699 576.812ZM95.9075 476.995C96.5534 477.408 97.2015 477.811 97.8519 478.204C97.2272 478.253 96.6031 478.306 95.9797 478.361C95.9575 477.901 95.9333 477.446 95.9075 476.995ZM62.5514 178.953C62.6069 178.847 62.6375 178.801 62.6389 178.805C62.6404 178.809 62.6127 178.862 62.5514 178.953ZM590.689 220.843C590.69 220.83 590.69 220.83 590.69 220.838L590.689 220.843ZM588.418 251.727C588.087 255.812 587.739 259.917 587.389 263.75C587.535 263.641 587.684 263.532 587.836 263.425C589.129 262.51 591.774 260.854 595.469 260.348C597.541 260.065 599.684 260.186 601.752 260.736C598.659 258.352 596.059 256.458 593.262 254.898C592.903 254.697 592.658 254.572 592.356 254.418L592.356 254.417L592.354 254.417L592.219 254.347C592.133 254.303 591.962 254.215 591.778 254.117L591.773 254.114C591.644 254.045 591.195 253.805 590.674 253.473C590.42 253.311 589.864 252.949 589.216 252.421L589.188 252.399C589.059 252.294 588.782 252.069 588.418 251.727ZM597.768 268.66C597.83 268.695 597.84 268.702 597.772 268.662L597.768 268.66ZM659.826 495.193L659.702 495.394C658.947 496.621 657.404 499.128 655.35 501.869C657.279 502.719 659.201 503.596 661.114 504.509C660.967 501.753 660.495 498.868 659.826 495.193Z" fill="#A6A1D9"/>
<path fill-rule="evenodd" clip-rule="evenodd" d="M181.672 7.3082C174.987 10.2277 167.501 15.0085 162.959 22.9617C149.596 19.185 133.758 21.0643 120.962 25.2356C114.823 27.2369 108.193 30.1634 102.107 34.1226C99.9568 32.2519 97.2151 30.6975 93.8143 29.9408C87.0718 28.4406 81.047 29.1125 76.4615 29.9464C74.5952 30.2858 72.7156 30.7049 71.1821 31.0469C70.8948 31.111 70.6194 31.1724 70.3587 31.23C68.5501 31.6298 67.1716 31.913 65.904 32.0943C63.3527 32.4593 60.5005 32.3237 55.7046 32.0417L55.422 32.025C51.2272 31.7776 45.2783 31.4267 39.1899 32.4427C28.7206 34.1898 25.0515 43.3086 23.9617 46.8301C22.6076 51.2049 22.2312 56.1174 22.1588 60.4081C22.009 69.2786 23.1463 80.3337 24.5679 90.7768C26.0123 101.388 27.8601 112.123 29.3372 120.548C29.5026 121.491 29.6625 122.401 29.8164 123.276C30.3591 126.364 30.8266 129.023 31.192 131.211C31.5986 133.646 31.7623 134.847 31.8156 135.239C31.8327 135.364 31.8385 135.407 31.8373 135.38C32.2048 143.659 39.2062 150.073 47.4754 149.705C49.7971 149.602 51.9719 148.975 53.8912 147.943C58.1364 149.484 62.546 149.758 66.6017 149.19C72.9391 148.303 78.5616 145.43 82.9243 142.369C84.2811 145.507 86.0343 148.426 88.16 151.091C93.6369 157.959 100.943 162.35 108.421 164.856C117.203 167.797 126.962 168.41 136.345 166.973C144.343 189.011 166.152 193.933 182.278 193.768C199.229 193.593 217.106 188.221 228.525 182.504C238.49 177.515 246.495 171.076 251.649 161.918C252.995 159.526 254.077 157.07 254.94 154.567C266.267 157.129 278.719 154.808 290.327 147.337C322.058 126.913 335.668 84.8994 334.919 52.6485C334.536 36.1503 324.063 24.3838 313.595 17.3515C303.06 10.2746 290.11 6.18569 278.929 5.56373C270.682 5.10499 264.835 8.86994 261.016 12.6657C260.176 11.6108 259.287 10.5599 258.362 9.56583C257.029 8.13273 255.327 6.49327 253.288 5.05572C251.317 3.667 248.307 1.94974 244.43 1.31322C235.838 -0.0969219 219.934 -0.742995 204.774 1.29948C197.151 2.32654 188.951 4.12949 181.672 7.3082ZM215.12 155.66C213.356 156.543 211.327 157.425 209.108 158.265C211.277 156.598 213.232 154.869 214.946 153.228C220.875 147.55 225.112 141.296 227.949 134.766L228.03 134.897C227.882 141.254 226.875 144.803 225.535 147.185C224.19 149.574 221.588 152.422 215.12 155.66ZM257.851 123.68C257.479 123.433 257.106 123.153 256.737 122.842C256.664 122.446 256.592 122.059 256.522 121.684C256.291 120.456 256.038 119.174 255.769 117.867C260.812 117.978 266.78 117.608 272.524 115.525C274.372 114.855 276.138 114.031 277.809 113.051C278.099 113.55 278.422 114.038 278.777 114.512C279.335 115.257 279.982 116.099 280.71 116.966C278.63 118.883 276.431 120.602 274.118 122.091C266.406 127.054 261.087 125.833 257.851 123.68ZM296.895 42.2744C297.192 42.4738 297.479 42.6731 297.756 42.872C296.256 43.9687 295.316 45.0876 294.966 45.5157C294.68 45.8648 294.43 46.2022 294.219 46.5062C293.491 45.1042 292.637 43.7384 291.64 42.4279C290.41 40.8124 288.986 39.1661 287.371 37.6261C290.68 38.7589 293.991 40.3236 296.895 42.2744ZM130.242 53.7736C131.275 53.4368 132.299 53.1334 133.308 52.8616C131.138 54.0309 129.19 55.4985 127.459 57.19C126.755 56.6893 125.992 56.1797 125.174 55.6849C126.732 55.01 128.42 54.3676 130.242 53.7736ZM70.1431 61.8052L70.1588 61.803C68.5092 64.3246 67.6118 66.8756 67.0848 68.733C66.7805 69.8057 66.5289 70.9108 66.3213 72.0283L66.1722 71.9294C64.1058 70.55 62.1515 69.3227 60.4563 68.4489C59.7486 68.0841 58.2392 67.3294 56.386 66.8384C55.7198 66.6619 54.2044 66.2915 52.2253 66.3015C52.1538 64.7366 52.1175 63.265 52.1202 61.9008C52.6959 61.9305 53.3035 61.9647 53.947 62.0025L54.6636 62.0452C58.7067 62.2875 64.3902 62.6281 70.1431 61.8052ZM566.411 315.971C575.401 310.517 584.963 312.876 591.801 317.247C604.876 325.606 611.108 336.494 613.387 348.454C615.133 357.615 614.503 367.708 613.969 376.242C613.888 377.533 613.81 378.788 613.742 379.999C613.398 386.163 612.235 392.171 609.383 397.431C606.295 403.128 601.683 407.098 596.176 409.459C591.179 411.601 586.053 412.15 582.094 412.345C579.233 412.486 575.947 412.462 573.055 412.441H573.05C572.071 412.433 571.137 412.427 570.28 412.427C565.174 412.427 560.381 410.83 556.441 407.8C552.745 404.959 550.5 401.406 549.109 398.366C546.448 392.553 545.691 385.893 545.441 380.704C545.175 375.193 545.43 369.576 545.707 365.083C545.822 363.217 545.929 361.669 546.019 360.376C546.174 358.141 546.276 356.665 546.276 355.622C546.276 350.88 548.593 346.663 552.191 343.976C552.722 339.894 553.578 335.513 554.944 331.507C556.381 327.296 559.435 320.203 566.411 315.971ZM714.626 333.044C718.704 337.477 723.118 343.84 724.203 351.358C725.062 357.317 725.659 366.785 724.937 376.103C724.574 380.78 723.847 385.864 722.445 390.652C721.109 395.214 718.774 400.871 714.302 405.406C708.924 410.861 701.88 411.99 697.99 412.312C693.581 412.676 689.047 412.291 685.376 411.836C684.453 411.721 683.525 411.594 682.61 411.461C681.273 411.894 679.629 412.239 677.734 412.258C674.4 412.292 671.18 411.3 668.5 409.467C666.947 409.436 665.028 409.387 663.317 409.234C661.055 409.032 657.29 408.534 653.509 406.556C643.551 401.344 642.215 391.403 642.215 385.328C642.215 376.155 643.398 367.595 644.774 359.69C645.363 356.304 645.944 353.25 646.503 350.307L646.504 350.3C647.342 345.889 648.132 341.728 648.835 337.076C649.503 332.653 652.078 328.963 655.626 326.685C661.403 319.036 669.768 315.779 677.865 315.581C685.634 315.391 692.973 317.925 698.773 320.952C704.72 324.057 710.269 328.308 714.626 333.044Z" fill="#786DFF"/>
</svg>
