<svg width="800" height="739" viewBox="0 0 800 739" fill="none" xmlns="http://www.w3.org/2000/svg">
<path fill-rule="evenodd" clip-rule="evenodd" d="M140.635 105.904C140.355 105.329 140.079 104.767 139.806 104.22C133.059 122.456 131.074 142.788 133.238 163.088L133.267 163.208C133.403 163.762 133.609 164.55 133.879 165.557C134.276 167.038 134.754 168.772 135.263 170.619C135.448 171.29 135.638 171.977 135.829 172.671C136.522 175.193 137.242 177.836 137.763 179.905C138.015 180.904 138.281 182.006 138.474 182.977C138.559 183.404 138.712 184.205 138.806 185.111C138.847 185.503 138.941 186.484 138.882 187.706C138.854 188.302 138.768 189.474 138.406 190.899C138.127 191.999 137.211 195.255 134.251 198.218C130.558 201.915 126.047 203.402 124.034 204.017C121.696 204.732 119.178 205.243 117.464 205.591L117.251 205.634C115.197 206.051 113.92 206.318 112.891 206.615C112.768 206.65 112.663 206.682 112.576 206.71C106.036 211.269 98.1959 214.17 93.3035 215.981L93.2997 215.982C92.0656 216.439 91.0193 216.826 90.229 217.153C85.3124 219.187 83.5329 220.667 82.1502 223.435C81.4211 224.895 80.6924 226.343 79.9654 227.78C81.1586 227 82.4064 226.254 83.7118 225.546C84.5415 225.096 85.5159 224.552 86.5972 223.948C90.0464 222.021 94.5849 219.486 98.9793 217.461C102.841 215.681 107.601 213.786 112.848 212.711C113.136 212.477 113.414 212.255 113.678 212.046C115.882 210.302 118.575 208.333 121.37 206.515C124.052 204.772 127.361 202.817 130.691 201.432C132.325 200.752 134.593 199.941 137.177 199.55C137.875 199.445 138.835 199.332 139.978 199.313C138.692 181.276 138.944 163.231 139.183 146.099L139.183 146.088C139.271 139.785 139.357 133.605 139.364 127.595C139.123 126.901 138.913 126.212 138.738 125.529C138.495 124.581 138.021 122.543 138.122 120.088L138.124 120.041C138.155 119.255 138.301 115.531 140.823 111.776C141.255 111.133 141.794 110.437 142.45 109.741C141.854 108.45 141.248 107.168 140.635 105.904ZM31.5881 485.546C31.6023 475.24 31.6467 465.069 31.7769 455.013C32.6099 454.411 33.2324 453.845 33.6429 453.448C32.8627 464.452 32.4949 475.533 32.5496 486.581C32.2579 486.244 31.9379 485.896 31.5881 485.546ZM38.1088 573.636C38.3757 572.811 38.6667 571.913 38.9652 570.948V588.649C35.9979 592.938 35.6514 597.741 36.3043 601.321C36.8385 604.251 38.0294 606.593 38.9652 608.131V609.899C38.1161 610.176 36.6745 610.731 35.1558 611.726C34.7214 612.043 34.108 612.596 33.4345 613.275C33.5889 611.724 33.7536 610.141 33.9232 608.515L33.9544 608.217C34.7288 600.797 35.5979 592.472 35.5979 583.771C35.5979 581.726 36.2316 579.437 38.0073 573.949L38.1088 573.636ZM31.7848 668.438C31.6941 666.535 31.6381 664.427 31.614 662.164C32.5602 664.873 34.0506 666.906 35.525 668.387C34.2627 668.41 33.0189 668.428 31.7848 668.438ZM300.539 689.438C298.989 689.007 297.427 688.623 295.856 688.281C299.039 688.354 302.368 688.572 305.931 688.864C307.424 688.987 308.99 689.127 310.614 689.273L310.635 689.274C316.988 689.843 324.218 690.489 331.376 690.489C333.375 690.489 335.264 690.428 336.963 690.265C338.228 690.143 340.977 689.844 343.76 688.656C344.71 688.25 347.028 687.189 349.233 684.925C348.877 686.905 348.51 688.893 348.134 690.859C346.94 697.113 345.723 702.797 344.561 707.118C341.186 706.687 336.98 705.363 331.458 702.907C328.449 701.569 325.698 700.213 322.69 698.73L322.685 698.727C320.973 697.884 319.178 696.999 317.206 696.054C312.248 693.677 306.504 691.097 300.539 689.438ZM411.559 499.568C408.849 499.425 406.174 499.175 403.38 498.867C412.962 499.298 422.652 500.109 432.3 501.064C440.008 501.826 447.89 503.616 456.951 505.674C458.451 506.015 459.985 506.363 461.555 506.715C470.422 508.704 480.395 510.79 490.612 511.381C492.314 512.003 494.152 512.342 496.069 512.342H538.46C546.146 515.137 553.745 518.312 561.593 521.68C557.36 521.762 553.211 521.818 549.162 521.818C527.091 521.818 506.005 517.299 483.326 512.033C481.775 511.673 480.214 511.308 478.645 510.942L478.577 510.926C457.701 506.054 435.261 500.817 411.559 499.568ZM220.768 410.773C221.352 410.049 221.943 409.333 222.542 408.624C220.698 413.258 220.251 418.374 221.181 423.613C222.361 430.264 226.807 434.154 230.034 436.014C230.691 436.393 231.349 436.721 231.995 437.006C229.439 438.162 227.389 439.741 225.791 441.35C223.119 441.65 220.482 441.96 217.887 442.265L217.848 442.269L217.192 442.346C217.218 442.294 217.242 442.244 217.265 442.197C218.525 439.602 219.065 436.936 219.332 435.458C220.363 429.753 220.734 420.558 220.768 410.773ZM396.326 263.736C396.503 264.914 396.76 265.893 396.974 266.605C397.11 267.055 397.261 267.498 397.424 267.934C393.178 266.187 388.935 264.453 384.696 262.731C388.595 263.052 392.472 263.385 396.326 263.736ZM289.896 345.059C288.341 344.244 286.789 343.417 285.241 342.576C279.491 345.608 274.402 349.098 270.071 353.1C270.77 353.1 271.469 353.101 272.167 353.103C273.554 352.957 274.93 352.805 276.294 352.64C282.972 351.83 289.465 350.667 295.84 349.213C293.885 348.094 291.841 346.729 289.896 345.059ZM196.531 476.224C197.449 476.155 198.365 476.083 199.277 476.007C198.522 478.088 197.862 480.059 197.331 481.802L197.296 481.564L197.295 481.552C197.022 479.668 196.765 477.887 196.531 476.224ZM244.267 481.37V507.097C247.777 496.25 251.458 485.496 255.359 474.778C254.338 475.143 253.427 475.58 252.594 476.108C252.519 476.173 252.236 476.396 251.53 476.945C250.643 477.634 249.123 478.785 247.329 479.834C246.679 480.214 245.629 480.804 244.267 481.37ZM476.776 402.725C476.837 403.942 476.804 405.178 476.69 406.407C480.006 406.506 483.297 406.631 486.551 406.769C483.288 405.434 480.03 404.087 476.776 402.725ZM479.395 457.101C479.483 456.397 479.619 455.691 479.806 454.989C475.363 453.948 470.937 452.988 466.522 452.13C466.142 453.119 465.642 454.117 464.998 455.113C464.745 455.504 464.483 455.873 464.214 456.22C467.607 456.589 470.949 456.87 474.265 457.031C474.218 457.028 474.248 457.01 476.332 457.027C477.148 457.034 478.236 457.049 479.395 457.101ZM451.5 216.205C452.002 218.286 452.448 220.163 452.827 221.892C451.876 221.003 450.76 220.032 449.511 219.08C450.121 217.613 450.653 216.115 451.111 214.592L451.369 215.661L451.5 216.205ZM278.822 208.322L280.009 208.411C279.286 208.962 278.576 209.581 277.901 210.279C275.805 212.444 273.41 216.048 273.069 220.995C268.927 220.407 264.784 219.776 260.639 219.093C259.573 218.918 257.192 218.321 253.003 217.27L250.791 216.715C245.759 215.456 239.458 213.914 233.094 212.67C229.032 211.877 224.642 211.142 220.327 210.704C220.147 210.006 219.956 209.271 219.749 208.491C219.664 208.167 219.576 207.836 219.486 207.499C220.383 207.561 221.264 207.604 222.125 207.634C227.108 207.806 232.068 207.528 236.309 207.266L237.778 207.174C241.608 206.935 244.805 206.735 247.85 206.735C257.673 206.735 267.674 207.477 278.264 208.279L278.822 208.322ZM481.497 205.831C480.242 200.463 479.465 196.407 479.465 192.517C479.465 180.187 480.269 167.809 481.11 154.848L481.112 154.816L481.115 154.764L481.121 154.674C481.22 153.146 481.32 151.609 481.419 150.063C482.346 135.582 483.194 120.418 482.631 105.192C482.552 103.061 482.138 99.1403 479.647 95.2843C476.573 90.5258 471.574 87.7734 466.275 87.4283C461.98 87.1485 458.572 88.5016 456.839 89.3134C454.878 90.2321 453.198 91.3581 451.909 92.3155C447.109 95.8836 441.811 101.659 437.46 106.738C428.301 117.431 418.964 130.29 417.338 132.641C407.88 146.318 401.315 160.716 395.216 174.094L395.213 174.1L395.208 174.11C393.156 178.611 391.157 182.997 389.117 187.2C387.727 190.066 386.748 190.984 386.542 191.156C386.495 191.166 386.424 191.179 386.325 191.191C385.601 191.279 384.124 191.275 381.162 190.759C378.942 190.372 376.684 189.857 373.835 189.208L373.827 189.206C372.723 188.955 371.53 188.684 370.217 188.392C367.072 187.692 363.75 186.899 360.288 186.074C345.302 182.499 327.697 178.299 310.498 178.299C301.061 178.299 291.269 177.558 280.646 176.754L280.638 176.753C270.234 175.965 259.056 175.119 247.85 175.119C243.741 175.119 239.49 175.387 235.796 175.621L235.787 175.621C235.302 175.652 234.826 175.682 234.361 175.711C230.101 175.974 226.511 176.151 223.213 176.037C216.58 175.808 213.675 174.461 211.898 172.683C200.329 161.101 190.969 145.928 184.555 129.519C184.444 129.235 184.231 128.662 183.927 127.843C181.898 122.389 175.823 106.057 169.04 92.0851C165.296 84.3718 160.493 75.5457 155.14 69.7074C152.822 67.1797 147.853 62.2954 140.493 61.2762C136.195 60.6812 131.756 61.5186 127.846 63.8958C124.227 66.0961 121.897 69.0964 120.416 71.6169C103.26 100.813 98.3418 134.992 101.92 167.234C102.028 168.205 102.21 169.057 102.279 169.379C102.379 169.846 102.492 170.324 102.6 170.762C102.817 171.644 103.09 172.685 103.378 173.759C103.586 174.534 103.817 175.38 104.058 176.261C101.719 176.94 98.0925 178.174 94.7387 180.616C91.8806 182.696 89.3982 183.623 85.3742 185.126L85.3714 185.127C83.4104 185.859 81.0834 186.728 78.1687 187.933C70.1445 191.252 60.2015 196.685 53.9025 209.296C52.1238 212.857 50.2526 216.517 48.3382 220.261L48.3359 220.266C40.2613 236.058 31.4185 253.352 25.5163 271.077C0.377735 346.573 0 420.218 0 496.193C0 502.192 3.33837 507.411 8.25689 510.089C8.81701 513.74 9.25914 518.431 9.58456 523.65C10.3472 535.882 10.3545 548.962 10.3545 553.544C10.3545 556.281 9.59815 559.092 7.94506 564.201C7.85587 564.476 7.76206 564.764 7.66459 565.062C6.22909 569.461 3.99785 576.298 3.99785 583.771C3.99785 590.678 3.30127 597.495 2.49423 605.228L2.45687 605.586C1.68465 612.983 0.819551 621.27 0.819551 629.907C0.819551 630.7 0.749655 632.405 0.641888 635.033L0.641631 635.039C0.579686 636.549 0.505252 638.365 0.424399 640.487C0.218246 645.899 0.00441662 652.651 6.89832e-05 659.275C-0.0041762 665.743 0.186235 672.726 0.925661 678.371C1.27636 681.048 1.87391 684.473 3.11577 687.63C3.72894 689.189 4.86037 691.637 6.93935 693.958C9.17686 696.457 13.1633 699.451 18.8701 699.787C26.1378 700.215 34.0574 700.065 41.1269 699.931C44.297 699.871 47.299 699.814 49.9917 699.814C57.0112 699.814 63.54 701.974 72.8998 705.278L73.6599 705.546C82.2352 708.577 93.4496 712.541 106.318 712.541C125.474 712.541 144.777 714.074 164.892 715.673L164.985 715.681C184.86 717.262 205.523 718.905 226.387 718.905C232.94 718.905 240.817 718.491 248.295 718.098L248.301 718.098L248.305 718.098L248.309 718.098C253.236 717.839 257.99 717.589 262.077 717.473C273.756 717.142 283.789 717.613 292.081 719.919C295.235 720.796 298.906 722.356 303.56 724.586C304.884 725.221 306.365 725.95 307.935 726.722C311.309 728.383 315.096 730.246 318.631 731.818C329.057 736.454 343.667 741.674 359.273 737.21C364.386 735.747 367.321 732.34 368.46 730.884C369.84 729.118 370.79 727.31 371.415 725.98C372.69 723.269 373.711 720.154 374.536 717.281C376.228 711.389 377.802 703.972 379.172 696.8C380.559 689.535 381.82 682.076 382.84 675.984L382.969 675.22L382.969 675.216L382.971 675.203L382.973 675.193C383.976 669.207 384.645 665.215 385.011 663.565C385.417 661.737 385.832 659.886 386.251 658.013C393.174 627.097 401.43 590.224 393.701 553.468C392.054 545.637 391.661 538.258 391.584 529.322C392.143 529.389 392.71 529.458 393.286 529.529L393.42 529.545C398.483 530.163 404.16 530.856 409.898 531.158C430.696 532.254 450.549 536.879 471.968 541.868L472.173 541.916C473.505 542.226 474.842 542.537 476.186 542.849C498.765 548.092 523.062 553.453 549.162 553.453C558.227 553.453 567.032 553.253 575.615 553.059C603.829 552.42 629.655 551.835 654.514 558.561C676.672 564.557 695.863 564.896 717.495 555.271C729.274 550.031 736.613 539.428 741.258 531.184C744.386 525.632 747.478 518.758 749.803 513.588L749.807 513.58L749.809 513.575L749.816 513.559C750.802 511.369 751.649 509.485 752.302 508.141C755.724 501.1 757.531 493.753 758.887 488.238L759.084 487.436C759.157 487.141 759.229 486.851 759.299 486.568C760.856 480.33 762.094 476.249 764.179 472.769C770.811 461.703 776.492 449.125 781.204 438.2C782.149 436.01 783.279 433.538 784.508 430.848C789.122 420.753 795.136 407.595 798.033 394.739C801.977 377.239 801.159 356.664 784.542 339.05C765.148 318.493 740.537 300.481 713.123 290.501C703.588 287.03 694.712 281.592 684.212 275.158C681.925 273.757 679.561 272.309 677.096 270.823C664.164 263.028 648.786 254.491 630.845 251.728C605.254 247.787 580.562 239.661 554.841 230.465C550.754 229.003 546.63 227.511 542.471 226.005C522.876 218.912 502.503 211.538 481.497 205.831ZM112.257 206.821C112.233 206.83 112.222 206.835 112.222 206.835L112.234 206.83L112.257 206.821ZM470.863 117.608C470.882 117.596 470.892 117.589 470.892 117.589L470.885 117.593L470.863 117.608ZM70.3095 641.377C69.1654 642.109 68.1608 642.781 67.279 643.402C67.8766 643.393 68.4826 643.381 69.0955 643.367C74.4984 643.245 80.0143 642.992 84.4495 642.764C85.4855 642.711 86.5422 642.654 87.5606 642.6C88.8759 642.529 90.1272 642.461 91.1872 642.41C90.2049 642.159 89.2367 641.918 88.2795 641.692C86.192 641.658 84.1405 641.624 82.1335 641.589C77.9851 641.518 74.0173 641.447 70.3095 641.377ZM475.357 459.784C475.357 459.784 475.339 459.792 475.293 459.808C475.333 459.792 475.357 459.784 475.357 459.784ZM257.213 575.517C252.057 595.314 247.752 614.967 244.748 634.773C244.808 638.554 244.855 642.37 244.873 646.209C247.416 646.59 249.969 646.956 252.529 647.308C252.758 642.458 252.897 637.501 253.033 632.376L253.063 631.243C253.33 621.128 253.615 610.329 254.72 599.498C255.527 591.58 256.346 583.577 257.213 575.517ZM295.42 651.952C302.581 652.295 309.688 652.546 316.792 652.656C316.233 651.412 315.914 650.306 315.741 649.652C315.373 648.258 315.142 646.831 314.981 645.668C313.958 638.291 313.092 630.912 312.361 623.535C311.329 624.677 310.068 625.799 308.53 626.767C307.174 627.621 305.596 628.354 303.837 628.835C301.455 636.547 298.662 644.232 295.42 651.952ZM308.495 473.291C308.393 476.133 308.339 478.993 308.321 481.874C308.361 482.132 308.402 482.389 308.443 482.644C308.605 483.647 308.767 484.651 308.929 485.658C309.785 482.04 311.764 479.426 312.635 478.45C314.128 476.779 315.693 475.745 316.507 475.258C316.738 474.772 316.977 474.287 317.225 473.805C314.316 473.61 311.406 473.438 308.495 473.291ZM316.767 641.491C316.741 641.591 316.731 641.644 316.731 641.644C316.731 641.644 316.732 641.64 316.734 641.634C316.736 641.628 316.738 641.62 316.74 641.61L316.755 641.544L316.767 641.491ZM191.321 610.473C191.064 602.003 191.068 593.484 191.166 585.081C188.704 589.373 185.718 593.384 182.105 596.978C182.039 597.044 181.972 597.11 181.905 597.175C183.047 597.952 184.158 598.85 185.177 599.894C187.242 602.009 189.736 605.566 190.245 610.504C190.602 610.494 190.961 610.483 191.321 610.473ZM230.197 354.359C234.191 346.201 239.332 339.174 245.263 333.121C238.467 332.784 231.62 332.601 224.702 332.601C224.55 332.601 224.458 332.602 224.312 332.604L224.309 332.604L224.304 332.604C224.145 332.607 223.919 332.61 223.485 332.614C222.859 332.619 222.033 332.62 221.117 332.591C219.721 332.547 217.406 332.422 214.895 331.862C215.268 334.582 215.561 336.498 215.74 337.417C216.669 342.184 217.478 348.222 218.159 354.947C222.099 354.798 226.097 354.587 230.197 354.359ZM210.709 294.43C212.839 292.532 215.099 290.84 217.432 289.331C214.627 285.952 211.934 282.446 209.367 278.805C209.783 284.141 210.238 289.392 210.709 294.43ZM109.697 390.406C111.653 379.649 114.189 369.118 116.735 358.967C117.167 357.243 117.599 355.532 118.029 353.834C119.066 341.003 120.304 328.585 121.527 316.333C122.353 308.044 123.173 299.83 123.917 291.616C122.665 297.381 121.378 303.245 119.995 309.255C115.155 330.301 109.269 350.861 102.772 371.124C102.069 375.562 101.348 380.023 100.594 384.491C104.145 385.31 106.721 387.22 108.217 388.707C108.796 389.283 109.285 389.859 109.697 390.406ZM75.8848 338.285L75.3387 339.587C70.9142 350.137 66.4448 360.794 61.818 371.442C63.9709 371.387 66.3414 371.787 68.853 372.926C69.861 369.902 70.855 366.877 71.8335 363.851C72.185 361.619 72.5358 359.377 72.8881 357.126L72.8892 357.118C73.7387 351.69 74.5973 346.203 75.4985 340.652C75.6264 339.864 75.7552 339.075 75.8848 338.285ZM107.011 582.513C105.334 575.551 104.076 568.973 103.172 564.245C102.753 562.055 102.41 560.262 102.137 559.012C102.031 558.529 101.928 558.045 101.827 557.561C107.43 538.289 110.136 518.539 111.412 499.12C112.684 505.758 114.148 512.349 115.795 518.874C116.367 532.978 116.515 547.061 116.243 561.255C116.221 562.427 116.201 563.592 116.182 564.75C116.076 571.027 115.973 577.089 115.45 582.969C112.629 582.786 109.815 582.636 107.011 582.513ZM652.81 520.367C647.838 520.26 642.004 518.912 635.07 516.609L636.372 516.625L636.378 516.625C641.531 516.687 646.82 516.751 652.119 516.745C652.174 517.21 652.247 517.697 652.344 518.196C652.45 518.74 652.62 519.493 652.909 520.37L652.81 520.367ZM693.437 439.334C689.993 445.552 686.421 451.744 682.732 457.849C682.665 457.657 682.597 457.465 682.528 457.273C682.506 457.213 682.484 457.153 682.462 457.093C682.059 455.987 681.354 454.41 680.206 452.773C681.438 447.423 680.18 442.562 679.262 439.954C678.969 439.123 678.635 438.299 678.266 437.486C679.196 437.388 680.127 437.284 681.06 437.173C682.331 437.023 683.969 436.682 684.99 436.469C685.602 436.663 686.219 436.855 686.839 437.044C688.901 437.673 691.204 438.339 693.654 438.944L693.437 439.334ZM654.249 485.151C652.01 485.163 649.771 485.158 647.52 485.144V484.672C647.687 484.598 647.853 484.522 648.02 484.443C648.131 484.39 648.242 484.335 648.353 484.28C648.809 484.051 649.466 483.701 650.226 483.199C651.396 483.216 652.847 483.219 654.356 483.164C654.328 483.811 654.292 484.474 654.249 485.151Z" fill="#FF9393"/>
<path fill-rule="evenodd" clip-rule="evenodd" d="M448.715 295.494C447.622 298.213 445.693 301.547 442.701 304.316C440.574 309.169 437.104 312.759 434.095 315.131C430.555 317.921 426.194 320.192 421.525 321.344C419.272 322.286 416.663 322.91 413.706 322.91C407.449 322.91 401.52 320.614 397.2 316.039C392.762 313.202 389.818 308.228 389.818 302.567C389.818 300.299 390.201 298.004 390.734 295.894C390.992 291.423 392.027 286.879 393.472 282.898C393.864 280.273 394.437 277.603 395.268 275.027C396.813 270.233 399.578 264.645 404.713 260.194C410.11 255.515 416.838 253.211 424.127 253.095C433.134 252.952 440.028 257.462 444.266 262.941C448.198 268.024 450.014 273.986 450.636 279.074C451.256 284.143 450.903 290.055 448.715 295.494ZM192.39 265.187C197.697 262.572 203.461 262.112 208.18 262.326C210.147 261.95 212.002 261.819 213.61 261.819C217.134 261.818 220.559 262.411 223.677 263.311C226.76 262.654 229.947 262.359 233.155 262.553C239.257 262.921 246.25 265.186 251.616 271.089C256.87 276.87 258.764 284.163 258.888 291.131C258.971 295.76 258.91 305.829 256.738 315.387C255.664 320.116 253.823 325.899 250.354 330.995C246.692 336.376 240.499 341.892 231.261 343.03C222.677 344.087 215.218 341.636 209.56 336.996C208.811 337.126 208.027 337.213 207.205 337.247C200.785 337.512 196.459 334.25 194.972 333.018C193.129 331.489 191.801 329.822 190.983 328.711C189.288 326.41 187.718 323.618 186.335 320.976C184.613 317.683 183.481 313.257 182.778 310.085C181.942 306.319 181.198 301.869 180.765 297.434C180.347 293.156 180.138 288.115 180.733 283.47C181.027 281.171 181.608 278.204 182.931 275.238C184.21 272.366 186.923 267.882 192.39 265.187ZM296.782 382.794C304.627 378.82 314.166 382.042 318.088 389.99C326.798 407.639 344.082 416.831 368.459 422.049C380.525 424.632 393.492 426.058 406.828 427.266C409.615 427.518 412.441 427.762 415.281 428.008C425.667 428.906 436.248 429.821 445.862 431.212C461.624 433.494 479.824 439.287 493.909 443.771C495.195 444.18 496.446 444.579 497.658 444.963C500.622 445.901 503.016 446.117 506.917 446.469L506.921 446.469L506.926 446.47C508.121 446.577 509.457 446.698 510.994 446.856C517.134 447.487 525.135 448.761 533.548 454.186L533.515 454.164L533.508 454.159C533.508 454.159 533.523 454.165 533.552 454.178C533.717 454.256 534.354 454.555 535.654 454.963C537.253 455.465 539.265 455.95 541.524 456.371C546.152 457.233 550.695 457.623 553.137 457.623C567.109 457.623 580.638 459.692 592.839 461.557L593.307 461.629C606.016 463.572 617.34 465.275 628.668 465.275H760.847C769.617 465.275 776.727 472.479 776.727 481.365C776.727 490.252 769.617 497.455 760.847 497.455H628.668C614.764 497.455 601.278 495.393 589.101 493.53L588.568 493.449C575.865 491.507 564.513 489.803 553.137 489.803C548.405 489.803 541.909 489.162 535.782 488.021C530.254 486.991 522.326 485.094 516.496 481.335C514.27 479.9 512.099 479.315 507.788 478.872C507.146 478.806 506.397 478.743 505.557 478.672C501.312 478.314 494.767 477.762 488.185 475.678C487.106 475.336 486.019 474.991 484.927 474.645L484.855 474.622C470.164 469.957 454.419 464.958 441.371 463.069C432.739 461.82 423.377 461.009 413.149 460.123C410.174 459.865 407.124 459.601 404 459.318C390.486 458.094 375.927 456.538 361.894 453.534C334.075 447.579 304.878 435.178 289.68 404.381C285.758 396.433 288.938 386.768 296.782 382.794ZM757.955 368.604C751.8 362.123 741.664 361.964 735.316 368.248C733.739 369.81 732.544 371.622 731.733 373.564C728.751 375.42 726.094 377.866 724.005 380.667C721.975 383.388 719.758 387.431 719.207 392.488C718.896 395.348 718.552 398.757 718.546 401.898C718.541 404.418 718.65 409.975 721.616 415.139C723.368 418.189 726.131 421.132 730.07 422.965C733.847 424.723 737.519 424.908 740.34 424.615C745.425 424.089 750.023 421.766 753.385 419.804C760.928 415.403 771.361 407.313 770.894 393.378C770.69 387.291 768.318 382.278 766.048 378.662C763.756 375.01 760.827 371.627 757.955 368.604Z" fill="white"/>
<path fill-rule="evenodd" clip-rule="evenodd" d="M199.342 140.711C199.083 135.848 198.966 128.16 199.178 119.493C199.414 109.823 200.07 98.4338 201.511 87.8956C202.864 77.9975 205.176 66.5778 209.844 58.4092C210.162 57.8512 210.466 57.3232 210.757 56.8184C212.048 54.5764 213.073 52.7951 213.954 50.9052C215.024 48.6115 215.19 47.5294 215.202 47.3026C215.248 46.3813 215.286 45.6743 215.317 45.1693C215.332 44.9301 215.35 44.6514 215.372 44.3871C215.381 44.2713 215.402 44.027 215.436 43.7377C215.451 43.6054 215.487 43.3094 215.548 42.9402C215.579 42.7571 215.636 42.4323 215.727 42.0317C215.789 41.7614 216 40.842 216.445 39.7233C216.652 39.2025 217.157 37.9975 218.096 36.6321C218.392 36.2019 219.133 35.1444 220.393 33.9827C220.769 33.3168 221.166 32.6564 221.585 32.003C233.96 12.7223 258.228 -1.2422 282.327 0.0875482C287.022 0.346626 291.941 0.80605 296.863 1.44542C297.858 1.16068 298.689 1.02236 299.21 0.949583C300.458 0.775026 301.523 0.764526 302.089 0.767952C304.217 0.780824 306.727 1.1053 308.383 1.34041C310.329 1.61689 312.393 1.96551 314.1 2.28667L314.194 2.30445C315.275 2.50752 317.79 2.98001 319.567 3.61363C320.943 4.10436 322.273 4.6159 323.461 5.15154L323.51 5.17351C324.252 5.50733 326.587 6.5575 328.709 8.44211L328.742 8.47115C329.279 8.94684 331.508 10.9203 332.93 14.3271C334.466 14.8605 336.012 15.3522 337.576 15.7997C337.644 15.8125 337.74 15.8302 337.867 15.8528C337.925 15.863 337.996 15.8754 338.078 15.8897C338.556 15.9733 339.41 16.1227 340.225 16.2942C341.2 16.4992 342.675 16.8446 344.273 17.433C345.759 17.9802 348.284 19.068 350.708 21.2078C352.778 23.0352 356.913 27.8264 355.977 35.1044C355.906 35.6591 355.808 36.1906 355.689 36.6983C356.643 38.1709 357.592 40.1495 358.028 42.6118C358.444 44.9581 358.347 47.5444 357.544 50.0962C357.718 50.4127 357.888 50.7304 358.053 51.0487C359.04 52.9516 360.92 56.8384 361.115 61.4489C361.149 62.2662 361.135 63.2204 361.02 64.2665C361.54 65.3084 362.021 66.2589 362.473 67.1466C362.582 67.3602 362.691 67.5746 362.801 67.789C363.394 68.9521 363.987 70.1155 364.498 71.1638C365.698 73.6222 367.127 76.7667 367.839 80.5869C368.568 84.5068 368.352 88.0529 367.969 91.2149C367.675 93.6341 367.171 96.6145 366.6 99.9807C366.475 100.718 366.347 101.474 366.218 102.247L366.048 103.256C364.701 111.285 363.384 119.132 362.235 126.915C362.031 129.184 361.742 131.396 361.387 133.511C361.215 134.536 361.053 135.561 360.9 136.589C360.665 138.441 360.443 140.292 360.235 142.143C360.235 142.162 360.22 142.389 360.203 142.941C360.187 143.448 360.174 143.993 360.16 144.644C360.153 144.922 360.147 145.219 360.139 145.541C360.094 147.411 360.022 150.207 359.763 152.615C359.739 152.839 359.709 153.104 359.671 153.402C360.58 153.135 361.336 152.98 361.832 152.887C363.095 152.65 364.546 152.485 365.992 152.485C378.164 152.485 390.099 153.864 401.144 155.321C406.412 156.016 411.588 156.951 416.384 157.833C418.896 158.202 421.298 158.664 423.519 159.129C426.671 159.684 429.7 160.175 432.714 160.561C432.806 160.573 432.943 160.585 433.077 160.593L433.188 160.599C433.203 160.6 433.267 160.603 433.333 160.607C433.366 160.609 433.439 160.614 433.529 160.62L433.534 160.621C433.585 160.624 433.842 160.643 434.161 160.678L434.172 160.679C434.287 160.692 434.817 160.751 435.474 160.88L435.492 160.884C435.732 160.931 436.787 161.137 438.051 161.617C438.275 161.702 438.774 161.891 439.434 162.217C441.283 162.47 443.681 162.871 445.719 163.591C446.338 163.809 448.286 164.507 450.316 166.032C451.807 167.151 458.705 173 456.175 182.663C455.15 186.578 452.909 189.083 451.514 190.355C450.088 191.655 448.722 192.428 447.931 192.832C446.366 193.631 444.979 194.022 444.367 194.184C442.081 194.791 439.377 195.032 437.692 195.168C435.555 195.34 432.964 195.481 430.099 195.599C426.38 195.753 421.965 195.878 417.091 195.978C415.533 198.842 413.407 200.701 411.684 201.832C408.515 203.913 405.39 204.408 404.22 204.57C401.465 204.952 398.736 204.746 397.083 204.584C393.56 204.24 389.323 203.467 385.468 202.674C383.946 203.156 382.464 203.457 381.2 203.655C378.86 204.022 376.289 204.188 373.677 204.167C373.216 204.659 372.748 205.097 372.291 205.481C369.026 208.227 365.571 208.91 364.592 209.097C363.131 209.376 361.842 209.436 360.998 209.451C359.268 209.48 357.448 209.333 355.761 209.145C350.273 208.531 344.602 207.947 338.849 207.356C331.839 206.635 324.707 205.902 317.635 205.085C317.429 205.21 317.243 205.316 317.083 205.405C314.521 206.827 311.947 207.286 311.497 207.367C311.474 207.371 311.457 207.374 311.446 207.376C310.491 207.556 309.561 207.674 308.846 207.754C306.244 208.043 302.776 208.207 301.628 208.193C294.171 208.099 287.106 207.866 280.244 207.64C266.732 207.194 254.009 206.775 240.644 207.496C240.644 207.496 240.567 207.501 240.387 207.519C240.19 207.538 239.93 207.567 239.59 207.609C239.053 207.674 238.483 207.749 237.783 207.842C237.54 207.874 237.281 207.908 237.003 207.944C235.002 208.206 232.311 208.548 229.52 208.734C226.816 208.914 223.352 209 219.858 208.512C216.834 208.09 211.495 206.95 206.962 202.925C206.865 202.883 206.766 202.84 206.665 202.795C189.723 201.755 172.881 200.15 156.095 198.105C154.087 197.861 150.335 197.3 147.349 196.688L147.269 196.672C146.265 196.466 143.625 195.926 141.365 194.932L141.354 194.927C140.819 194.692 138.847 193.824 136.878 192.056C135.867 191.147 133.866 189.132 132.628 185.864C131.949 184.073 131.592 182.132 131.61 180.152C131.546 180.105 131.482 180.057 131.418 180.008C130.404 179.238 127.04 176.556 125.663 171.533C123.852 164.924 126.665 159.407 129.563 156.415C131.87 154.033 134.335 152.987 135.193 152.64C136.332 152.18 137.323 151.924 137.926 151.785C140.011 151.304 142.293 151.158 143.873 151.08C144.914 151.028 145.955 150.978 146.995 150.93C148.844 146.552 152.136 144.215 153.632 143.299C155.611 142.086 157.473 141.492 158.496 141.204C160.64 140.6 162.792 140.347 164.282 140.212C167.479 139.924 171.234 139.892 174.471 139.932C177.824 139.973 181.132 140.101 183.613 140.216C186.677 140.357 187.47 140.416 187.379 140.415C191.381 140.469 195.369 140.57 199.342 140.711ZM146.236 152.776C146.236 152.776 146.245 152.778 146.261 152.782C146.244 152.778 146.236 152.776 146.236 152.776ZM370.886 156.545C370.887 156.545 370.899 156.548 370.92 156.553C370.896 156.548 370.885 156.545 370.886 156.545ZM309.343 3.38161C309.23 3.31784 309.156 3.27946 309.13 3.26578C309.125 3.26318 309.122 3.26147 309.12 3.26065C309.195 3.30102 309.269 3.34136 309.343 3.38161Z" fill="#66BEEF"/>
</svg>
