<svg width="800" height="734" viewBox="0 0 800 734" fill="none" xmlns="http://www.w3.org/2000/svg">
<path fill-rule="evenodd" clip-rule="evenodd" d="M525.742 53.896C524.752 55.2947 523.759 56.6989 522.725 58.128C518.098 64.5263 513.609 72.1845 509.588 80.3348L542.435 80.3354V85.7236C542.435 129.489 544.854 171.723 550.065 213.992C551.806 213.815 553.642 213.877 555.547 214.236C561.398 215.341 564.989 218.773 566.465 220.378C568.199 222.262 569.355 224.193 570.094 225.607C570.67 226.711 571.176 227.854 571.62 229.01C564.667 166.454 551.598 105.155 533.676 43.1876C533.154 43.8332 532.613 44.5179 532.055 45.2417C529.762 48.2141 527.76 51.0441 525.742 53.896ZM575.362 271.325C575.275 271.463 575.186 271.602 575.095 271.74C574.431 272.75 573.665 273.716 572.799 274.617C573.789 281.488 574.799 288.724 575.514 296.183C575.947 297.434 576.374 298.689 576.793 299.947C576.464 290.364 575.985 280.825 575.362 271.325ZM654.894 223.501C655.569 222.747 656.297 221.998 657.079 221.275C658.144 220.293 659.598 219.088 661.438 217.973C661.465 217.81 661.496 217.635 661.53 217.457C661.544 217.382 661.573 217.234 661.617 217.032L661.668 216.497C664.107 190.895 678.362 163.592 689.333 145.489C690.534 143.508 692.165 140.678 694.117 137.291C694.569 136.507 695.038 135.693 695.523 134.853C698.009 130.546 700.827 125.701 703.41 121.526C705.599 117.989 708.754 113.02 711.76 109.903C712.468 109.17 714.433 107.165 717.383 105.63C718.905 104.838 721.958 103.492 726.039 103.458C730.798 103.418 735.683 105.203 739.393 108.908C742.601 112.113 743.813 115.635 744.302 117.53C744.549 118.488 744.7 119.381 744.793 120.17C746.963 120.298 748.876 120.755 750.554 121.42C748.932 111.818 747.179 102.167 745.307 92.4404C744.152 86.44 743.148 80.4211 742.188 74.664L741.846 72.6118C740.875 66.8033 739.927 61.2432 738.841 55.7866L738.676 55.9702C737.832 56.9131 736.757 58.1072 735.729 59.1411C700.57 94.4984 683.966 141.534 666.042 192.309C662.971 201.008 659.861 209.817 656.613 218.696C656.027 220.298 655.454 221.9 654.894 223.501ZM759.854 190.99C759.754 191.935 759.661 192.81 759.577 193.597L759.427 195.011C759.368 195.561 759.322 196.003 759.286 196.353C759.26 196.605 759.238 196.809 759.222 196.972L759.221 196.977C759.171 197.461 759.16 197.566 759.167 197.443C757.126 233.476 757.239 269.665 757.468 306.439C759.934 308.077 762.251 310.041 763.172 311.184C763.358 311.448 763.534 311.711 763.698 311.972C763.66 306.5 763.607 301.01 763.553 295.493C763.451 284.888 763.348 274.186 763.348 263.337C763.348 238.819 762.115 214.847 759.854 190.99ZM760.823 410.573C760.332 415.21 759.886 419.827 759.502 424.428C759.572 424.516 759.639 424.603 759.705 424.689C760.141 420.03 760.506 415.319 760.823 410.573ZM747.789 498.134C745.012 506.362 742.497 514.087 740.538 521.879C739.678 525.302 739.274 528.578 738.745 532.877C738.405 535.629 738.014 538.802 737.419 542.702C736.384 549.472 734.665 558.411 730.286 566.679C729.662 576.778 729.107 586.304 729.107 595.772V605.972C735.3 586.334 738.862 565.798 741.81 544.205C742.723 537.513 743.584 530.647 744.459 523.669L744.46 523.656C745.511 515.276 746.581 506.734 747.789 498.134ZM703.189 661.419C702.973 661.367 702.755 661.31 702.535 661.25C699.471 660.405 697.079 658.956 695.248 657.404C695.056 660.024 694.957 662.665 695.018 665.175C695.033 665.794 695.058 666.376 695.092 666.921L695.315 666.933C697.331 667.042 698.999 667.093 700.413 667.055C701.315 665.158 702.245 663.277 703.189 661.419ZM703.727 513.459C704.176 513.186 704.659 512.92 705.175 512.668C707.842 502.146 711.299 491.963 714.498 482.539L714.709 481.917C717.267 474.382 719.656 467.307 721.661 460.298C721.614 459.937 721.586 459.646 721.569 459.448C721.483 458.469 721.473 457.579 721.473 457.037C721.473 452.825 721.55 448.616 721.694 444.416C720.55 442.272 719.453 439.062 719.253 438.118C719.168 437.617 719.061 436.806 719.03 436.497C718.985 436.01 718.969 435.616 718.963 435.436L718.962 435.375C718.952 435.035 718.954 434.768 718.954 434.7C718.956 434.507 718.96 434.352 718.961 434.311L718.966 434.148C718.971 434.011 718.978 433.857 718.983 433.734C719.006 433.208 719.052 432.212 719.107 431.073C719.217 428.78 719.37 425.69 719.454 424.116C720.689 400.933 721.058 377.696 721.102 354.285C719.049 353.976 717.252 353.364 715.701 352.606C715.075 361.465 714.629 370.084 714.629 378.68C714.629 395.841 712.75 412.283 710.732 427.823C710.371 430.605 710.007 433.348 709.647 436.062C707.956 448.803 706.353 460.888 705.53 473.295C704.644 486.671 704.081 500.041 703.727 513.459ZM677.659 323.233C677.388 323.823 677.122 324.397 676.865 324.952C676.449 325.848 676.035 326.732 675.63 327.595C673.753 334.262 671.497 340.952 669.415 347.126L669.414 347.128L669.408 347.148C668.684 349.295 667.981 351.379 667.322 353.378C664.007 363.444 661.515 372.148 660.644 380.237C660.568 380.939 660.491 381.607 660.414 382.179C660.378 382.45 660.321 382.848 660.245 383.282C660.208 383.494 660.142 383.854 660.044 384.284L660.04 384.303C659.981 384.564 659.733 385.661 659.219 386.966L659.211 386.986C659.019 387.477 658.243 389.45 656.592 391.552C656.115 392.159 653.278 395.606 648.545 397.454C646.132 407.155 644.284 417.323 642.31 428.19L642.31 428.191L642.276 428.379C642.009 429.851 641.739 431.336 641.465 432.835C639.82 441.833 638.029 451.277 635.663 460.796C643.27 445.118 650.216 429.419 655.943 413.143C665.137 387.01 670.264 360.885 675.781 332.776C676.4 329.621 677.024 326.441 677.659 323.233ZM616.316 498.88C613.888 500.068 611.011 500.884 607.708 500.932C601.244 501.025 596.568 498.101 594.086 496.069C591.558 493.999 589.835 491.686 588.756 490.037C586.569 486.693 585.079 483.036 584.142 480.203C583.888 479.437 583.623 478.575 583.372 477.648C583.044 477.524 582.717 477.39 582.39 477.246C582.86 480.892 583.085 484.353 583.229 487.394C583.417 491.341 583.487 494.584 583.548 497.429L583.548 497.446V497.45C583.638 501.65 583.71 504.982 584.116 508.432L584.127 508.527C585.053 516.401 586.519 528.867 589.349 540.521C590.06 543.447 590.822 546.172 591.629 548.647C599.369 531.651 607.935 515.045 616.316 498.88ZM565.415 426.768C563.254 408.346 561.187 390.797 557.637 372.791C557.067 369.9 556.482 367.005 555.878 364.11C554.449 364.104 553.012 363.932 551.596 363.586C554.68 374.64 556.775 385.842 558.7 396.128C558.928 397.35 559.155 398.56 559.38 399.754C561.206 409.441 562.992 418.349 565.415 426.768ZM499.664 338.087C497.447 336.273 495.85 334.375 494.864 333.11C494.262 332.338 493.689 331.539 493.149 330.725C492.766 336.359 492.349 342.14 491.83 348.179C491.277 354.612 490.623 361.355 489.763 368.229C489.389 373.115 488.678 377.957 487.62 382.773C486.351 390.145 484.768 397.525 482.747 404.702C482.46 405.722 482.033 407.209 481.532 408.49C481.4 408.829 481.083 409.626 480.588 410.563C480.35 411.013 479.856 411.911 479.09 412.945L479.073 412.967C478.763 413.386 477.791 414.7 476.105 416.105C475.863 416.941 475.62 417.77 475.377 418.592C474.914 420.154 474.041 422.082 473.748 422.73L473.69 422.859C473.146 424.07 472.431 425.616 471.609 427.346C470.791 429.068 469.842 431.026 468.82 433.078C468.82 433.392 468.821 433.707 468.822 434.023L468.825 435.164C468.843 442.04 468.864 449.539 468.342 457.315C472.333 457.08 476.07 458.081 479.181 459.849C480.087 460.364 480.916 460.923 481.676 461.511C490.108 422.014 496.955 382.515 499.288 343.209C499.356 342.056 499.478 340.249 499.664 338.087ZM471.32 240.966C472.17 238.189 472.984 235.408 473.767 232.458C474.235 230.692 474.925 226.37 475.705 221.475L475.895 220.282L475.903 220.235C476.226 218.213 476.662 215.484 477.08 213.715L477.088 213.683C477.174 213.319 477.487 211.991 478.083 210.526L478.093 210.499C478.224 210.161 479.406 207.099 482.218 204.326C482.797 203.755 483.781 202.865 485.155 201.977C486.266 193.907 487.5 185.498 489.146 177.311C492.254 161.855 494.914 147.889 495.374 133.939C495.424 132.406 495.543 130.66 495.772 128.944C495.926 127.789 496.355 124.666 497.763 121.556L497.79 121.496C498.029 120.966 498.778 119.303 500.293 117.406C500.498 116.369 500.764 115.257 501.116 114.125C501.656 112.384 502.915 108.831 505.875 105.549C505.878 105.272 505.88 104.961 505.881 104.609C505.883 104.027 505.882 103.436 505.881 102.759V102.726C505.881 102.324 505.881 101.892 505.881 101.413V88.2919C501.346 98.6095 497.682 109.3 495.504 118.933C486.286 159.725 477.713 200.044 471.32 240.966ZM395.449 730.672C401.223 731.922 406.927 731.839 411.563 731.207C423.077 729.639 435.273 724.127 443.187 716.169C469.158 690.05 478.815 653.27 485.547 623.696C489.381 606.85 492.314 589.973 495.154 573.623L495.154 573.622L495.461 571.857C498.426 554.796 501.331 538.287 505.167 521.945C512.894 489.025 520.675 455.017 526.537 420.496C528.324 428.819 530.489 437.41 533.444 445.9C536.599 454.964 539.984 464.678 544.649 474.53C545.809 476.979 546.657 481.476 547.021 489.137C547.108 490.955 547.165 493.206 547.227 495.663C547.366 501.179 547.531 507.728 548.117 512.714L548.182 513.268C549.096 521.043 550.774 535.333 554.135 549.17C555.856 556.258 558.155 563.824 561.313 570.647C564.33 577.166 568.949 584.824 576.25 590.068C585.081 596.412 594.525 594.615 600.198 591.992C605.377 589.597 609.383 585.835 611.961 583.077C617.197 577.476 621.612 570.432 623.461 566.316C631.398 548.641 640.22 531.628 649.316 514.086L649.317 514.085L649.323 514.074C652.034 508.846 654.769 503.571 657.512 498.218C661.413 490.607 665.305 482.882 669.096 475.017C667.145 506.711 666.897 538.138 666.897 569.334C666.897 592.043 664.735 612.938 661.349 636.093C661.316 636.318 661.279 636.564 661.239 636.83C661.209 637.034 661.176 637.25 661.142 637.476C660.316 642.968 658.508 654.991 658.78 666.075C658.924 671.934 659.653 679.716 662.804 686.638C664.469 690.297 667.165 694.503 671.555 697.82C676.182 701.315 681.657 703.032 687.318 703.032C688.182 703.032 689.122 703.088 690.649 703.179C691.397 703.223 692.284 703.276 693.373 703.335C696.158 703.485 699.873 703.637 703.702 703.391C709.515 703.018 724.898 701.234 731.438 686.434C734.518 679.466 738.274 672.576 742.495 664.832L743.533 662.927C748.021 654.686 752.947 645.514 756.912 635.767C768.629 606.963 773.862 577.438 777.722 549.163C778.758 541.58 779.689 534.157 780.605 526.853L780.606 526.847C783.186 506.282 785.648 486.661 789.98 467.056C796.067 439.508 797.43 408.782 798.618 382.006C798.767 378.639 798.914 375.334 799.067 372.105C800.296 346.143 800.043 319.751 799.796 294.031C799.696 283.667 799.598 273.411 799.598 263.337C799.598 202.213 792.296 144.746 780.896 85.5133C779.833 79.9902 778.906 74.4361 777.936 68.6188L777.594 66.5701C776.516 60.1164 775.367 53.3645 773.97 46.583L773.967 46.5663C773.959 46.5105 773.93 46.3196 773.885 45.9436C773.817 45.3754 773.748 44.6846 773.656 43.7317L773.619 43.3425C773.454 41.6203 773.224 39.2234 772.87 36.8247C772.497 34.3041 771.873 30.9337 770.656 27.5746C769.552 24.5285 767.152 19.1737 761.802 15.2422C753.946 9.46858 745.205 9.2483 738.276 11.2792C732.12 13.0836 727.136 16.6542 723.778 19.4422C720.222 22.3944 717.106 25.6553 714.799 28.1751C713.424 29.6772 712.513 30.7039 711.831 31.4726L711.83 31.4736L711.829 31.4744C711.085 32.3128 710.612 32.8466 710.097 33.3643C668.629 75.0659 649.019 131.037 631.349 181.47L631.348 181.474C628.406 189.869 625.519 198.111 622.593 206.108C617.494 220.046 613.329 233.869 609.907 247.711C603.352 172.941 588.301 100.508 566.915 27.6226C564.155 18.2186 558.869 6.45855 547.01 1.80082C534.237 -3.2159 523.306 3.42848 518.154 7.39143C512.332 11.8704 507.247 17.9272 503.412 22.899C500.652 26.4767 497.862 30.4172 495.665 33.5193C494.812 34.725 494.047 35.8043 493.409 36.6868C478.608 57.1536 465.717 86.2486 460.156 110.854C450.227 154.788 440.846 199.024 434.132 244.358C434.096 244.602 434.047 244.979 433.988 245.453C431.668 247.641 430.48 249.849 430.093 250.574C428.244 254.039 427.596 257.746 427.347 259.184C426.657 263.169 426.287 268.252 426.05 272.659C425.801 277.284 425.657 282.093 425.551 285.844L425.521 286.908C425.48 288.359 425.445 289.588 425.411 290.6C425.372 291.755 425.349 292.174 425.349 292.174C425.349 292.174 425.351 292.156 425.355 292.123C425.357 292.106 425.359 292.085 425.362 292.059C420.429 338.359 411.583 385.406 402.742 432.424L402.742 432.426C400.502 444.338 398.262 456.248 396.087 468.144C393.473 482.436 390.435 496.938 387.354 511.644L387.353 511.649C379.926 547.096 372.251 583.729 369.676 621.46C367.993 646.129 368.139 671.066 368.281 695.163C368.319 701.789 368.358 708.352 368.358 714.827C368.358 724.894 376.473 733.054 386.483 733.054C389.744 733.054 392.805 732.188 395.449 730.672ZM301.193 32.7503C277.286 16.4215 253.264 16.6074 232.373 16.7691C230.338 16.7848 228.333 16.8004 226.36 16.8004C216.792 16.8004 207.694 18.9877 200.902 20.6205L200.343 20.7549C192.689 22.5932 187.724 23.708 183.2 23.708C179.844 23.708 176.7 24.6212 174.004 26.213C170.409 24.0945 166.071 23.2004 161.643 23.9875C99.2296 35.0805 47.2806 88.4083 27.1731 145.175C26.1151 148.162 24.8796 151.394 23.5681 154.825C18.8616 167.138 13.177 182.009 11.21 197.281C9.92536 207.254 8.98398 217.185 8.07584 226.765L7.98167 227.759C7.03403 237.751 6.10861 247.376 4.83533 256.943C-2.61002 312.882 -1.31139 378.052 7.72511 433.19C13.6315 469.229 24.1502 509.961 41.8379 544.036C46.0108 552.075 50.795 559.656 55.1263 566.519L55.3493 566.872C59.8771 574.047 63.9271 580.49 67.3715 587.135L67.4057 587.201C74.1711 600.254 84.1368 619.481 97.1008 632.949C99.1907 635.12 101.632 637.805 104.274 640.709L104.278 640.713L104.285 640.721C109.404 646.349 115.273 652.801 120.783 657.94C127.551 664.253 135.277 669.112 141.497 673.004L142.054 673.352C148.501 677.385 153.481 680.5 157.731 684.149C183.025 705.868 210.941 700.242 232.172 693.743C237.724 692.044 242.335 691.087 247.603 689.993C250.953 689.297 254.569 688.546 258.862 687.514C268.848 685.113 279.946 681.588 291.139 674.045C301.831 666.84 310.094 657.942 317.017 649.53C320.099 645.786 323.067 641.947 325.835 638.364L325.84 638.358L326.812 637.101C329.93 633.071 332.831 629.357 335.812 625.851C347.26 612.389 355.101 593.336 358.884 578.18C360.741 570.736 360.898 563.189 360.959 557.592C360.964 557.136 360.969 556.692 360.973 556.259L360.983 555.198C361.028 550.176 361.06 546.662 361.536 543.379C362.885 534.067 363.98 524.651 365.041 515.531L365.052 515.433C365.271 513.553 365.488 511.686 365.706 509.835C367.001 498.828 368.329 488.233 370.135 477.895C376.508 441.416 381.758 394.074 375.277 354.397C369.975 321.938 351.572 285.453 326.032 263.065C302.225 242.198 276.994 237.846 249.984 237.846C230.089 237.846 218.343 252.014 212.001 262.249C208.633 267.683 205.894 273.427 203.687 278.239C203.059 279.61 202.487 280.872 201.956 282.043C200.454 285.36 199.279 287.952 198.069 290.241C188.897 307.598 183.447 331.009 183.447 350.424C183.447 353.513 182.617 356.691 180.803 362.593L180.545 363.428C178.96 368.557 176.552 376.346 176.552 384.962C176.552 394.509 174.738 403.649 171.052 412.511C167.769 420.402 167.112 428.332 167.02 434.587C166.973 437.761 167.076 440.862 167.17 443.515L167.196 444.239C167.285 446.708 167.358 448.749 167.358 450.713C167.358 451.556 167.341 452.401 167.318 453.382L167.312 453.665C167.292 454.527 167.268 455.558 167.263 456.567C167.253 458.765 167.315 461.897 167.985 465.279C169.62 473.527 174.257 480.324 181.956 485.367C190.056 490.673 199.413 491.819 207.197 490.962C214.996 490.104 223.387 487.014 229.94 481.106C232.285 478.992 234.538 476.859 236.691 474.692C236.493 482.889 236.3 490.118 235.318 497.591C235.126 499.056 234.94 500.487 234.759 501.885C231.988 523.256 230.198 537.06 219.962 548.103C217.252 551.027 214.973 553.643 212.875 556.052L212.867 556.061L212.862 556.067C209.121 560.363 205.949 564.005 201.912 567.577C196.37 572.481 192.437 574.02 188.946 574.02C186.868 574.02 184.515 574.096 182.584 574.159C181.815 574.184 181.114 574.207 180.523 574.222C178.051 574.285 176.279 574.266 174.82 574.126C172.328 573.888 171.969 573.427 171.903 573.341L171.893 573.33C166.717 568.144 162.992 561.909 159.197 553.93C158.133 551.693 156.932 548.994 155.625 546.056L155.623 546.052C152.872 539.869 149.649 532.628 146.241 526.402C142.713 519.957 141.231 515.945 140.432 512.234C139.578 508.267 139.282 503.658 139.282 495.357C139.282 473.095 137.454 452.157 135.085 430.797C132.882 410.936 132.386 391.336 132.386 370.635C132.386 365.341 132.181 358.961 131.987 352.932C131.849 348.668 131.718 344.578 131.669 341.173C131.531 331.701 131.839 323.28 133.232 315.741C139.298 282.928 147.926 249.658 158.94 218.302C166.091 197.942 182.724 175.95 203.123 162.491C223.259 149.206 244.262 145.755 263.204 155.801C263.685 156.056 264.355 156.428 265.185 156.89C270.411 159.796 281.986 166.234 292.673 169.088C298.634 170.68 308.527 172.422 317.978 168.028C329.559 162.644 334.067 151.49 334.628 140.823C334.703 139.387 334.808 137.745 334.922 135.957C335.277 130.379 335.722 123.38 335.658 116.771C335.572 108.033 334.663 97.1173 330.218 87.3198C329.149 84.9659 328.065 81.8116 326.676 77.4384C326.434 76.6761 326.182 75.8732 325.92 75.0393L325.918 75.0347C324.795 71.4629 323.493 67.3211 322.05 63.3441C318.722 54.1703 313.024 40.8312 301.193 32.7503ZM164.268 60.5059C161.261 61.1562 158.274 61.9426 155.312 62.8578C155.714 62.9367 156.117 63.0205 156.521 63.1097C158.838 62.5279 161.391 61.6636 164.268 60.5059ZM125.314 76.9126C99.4205 93.366 77.7008 119.098 65.2687 147.473C66.2614 147.415 67.3103 147.432 68.4095 147.55C74.0455 148.152 78.1142 151.065 80.5485 153.797C81.9279 155.346 82.9166 156.972 83.6266 158.474C84.7666 156.919 85.9043 155.364 87.0398 153.806C88.1979 152.218 93.8332 144.963 99.1189 138.469C101.774 135.208 104.589 131.831 106.864 129.31C107.904 128.158 109.293 126.665 110.692 125.424L110.73 125.39C111.202 124.97 112.959 123.409 115.412 122.191L115.448 122.173C115.973 121.912 117.612 121.097 120.002 120.603C123.979 112.215 128.31 103.845 133.189 95.6809C132.649 95.3054 132.047 94.8488 131.425 94.3047C130.43 93.4332 127.99 91.1553 126.412 87.353C125.186 84.4006 124.609 80.7085 125.314 76.9126ZM36.3079 339.643C36.5026 360.788 37.7712 381.973 40.0669 402.209C40.0631 401.991 40.0607 401.773 40.0597 401.556C40.0525 399.86 40.1084 396.785 40.9501 393.613C41.346 392.121 42.3409 388.892 44.9567 385.747C46.3384 384.085 48.1657 382.49 50.3752 381.25C51.2679 374.374 52.4691 367.281 53.5814 360.713C54.4495 355.588 55.2635 350.781 55.8349 346.645C56.1068 344.676 56.2201 340.505 56.3062 335.612C54.9596 336.892 53.1347 338.272 50.7769 339.312C47.7635 340.642 43.7332 341.46 39.2635 340.521C38.2055 340.298 37.2206 339.998 36.3079 339.643ZM43.2617 425.663C43.3494 426.211 43.4379 426.757 43.5273 427.302C48.7335 459.069 57.5047 492.98 70.9992 521.19C71.2352 518.532 72.2084 513.888 76.0865 509.886C63.1241 483.494 51.2053 454.417 43.2617 425.663ZM95.9876 563.809C97.2127 565.961 98.4146 568.155 99.5712 570.387C106.865 584.458 114.548 598.713 123.218 607.72C126.979 611.628 130.062 615.045 132.923 618.215C135.202 620.742 137.341 623.112 139.57 625.45L139.569 613.15C138.31 615.88 138.283 618.286 138.34 619.202C138.38 619.829 138.469 620.213 138.493 620.305C138.472 620.236 138.397 619.999 138.221 619.576C137.811 618.591 137.108 617.197 136.055 615.412C132.724 609.764 128.742 604.624 125.522 600.467L125.522 600.466C124.113 598.648 122.849 597.017 121.849 595.613C115.196 586.273 107.863 577.7 99.8545 568.336L99.8501 568.331L99.8299 568.308L99.8174 568.293C98.5576 566.82 97.281 565.328 95.9876 563.809ZM159.675 641.523C160.017 641.738 160.365 641.956 160.717 642.177L161.982 642.967C167.788 646.591 174.938 651.054 181.343 656.554C191.335 665.133 202.184 664.918 221.57 658.984C226.779 657.39 232.469 656.065 237.705 654.928C238.541 649.358 239.588 643.677 240.74 637.997C238.316 639.063 235.839 639.84 233.506 640.424C230.07 642.445 226.432 644.561 223.36 646.272C221.781 647.152 220.216 648.001 218.839 648.7L218.764 648.737L218.763 648.738C217.871 649.191 215.575 650.356 213.204 651.029C212.481 651.234 211.492 651.502 210.458 651.708C209.979 651.803 209.03 651.98 207.868 652.067C207.286 652.111 206.288 652.162 205.063 652.075C204.073 652.005 201.57 651.769 198.696 650.471C196.32 649.398 192.737 647.092 190.339 642.943C185.598 642.778 181.089 642.549 177.116 642.324C174.149 642.156 171.651 642.004 169.591 641.879L169.572 641.878L169.545 641.876L169.541 641.876C165.982 641.66 163.741 641.523 162.666 641.523H159.675ZM281.582 634.793C284.061 632.254 286.514 629.458 289.025 626.407C291.732 623.119 294.35 619.732 297.168 616.087L298.135 614.837C301.251 610.809 304.61 606.496 308.193 602.282C314.815 594.495 320.727 581.22 323.685 569.364C324.394 566.523 324.618 562.874 324.68 557.194C324.687 556.553 324.692 555.873 324.696 555.159V555.153C324.728 550.374 324.77 544.099 325.631 538.158C326.9 529.399 327.925 520.592 328.984 511.487C329.212 509.533 329.441 507.566 329.674 505.582C330.252 500.665 330.855 495.674 331.52 490.646C329.807 491.943 327.61 493.163 324.963 493.87C324.271 512.118 322.489 531.191 317.165 550.753C314.864 559.206 312.186 567.457 309.63 575.27L309.196 576.596L309.196 576.597C306.757 584.049 304.451 591.095 302.437 598.19L302.403 598.311C302.024 599.652 300.889 603.672 298.195 607.126C297.294 608.281 293.389 613.02 286.568 614.207C284.885 621.028 283.235 627.894 281.582 634.793ZM298.554 287.471C293.634 283.694 288.592 280.906 283.167 278.887C283.675 280.186 284.176 281.57 284.646 282.911C286.057 286.934 287.748 292.188 289.402 297.327L289.405 297.335L289.406 297.339L289.683 298.199C289.986 299.14 290.288 300.076 290.588 301.004C290.687 299.948 290.951 298.161 291.721 296.146C292.277 294.689 294.209 290.456 298.554 287.471ZM245.801 277.211C244.946 278.23 243.956 279.594 242.826 281.417C240.721 284.815 238.759 288.827 236.656 293.413C236.242 294.315 235.808 295.275 235.358 296.27L235.355 296.275C233.735 299.854 231.912 303.883 230.134 307.247C226.199 314.694 223.085 324.422 221.324 334.071C221.667 333.717 222.017 333.369 222.374 333.027L223.232 331.118L223.7 330.076C229.212 317.816 234.509 306.032 239.179 294.099C239.177 294.103 239.179 294.1 239.183 294.087L239.189 294.071L239.192 294.063C239.225 293.974 239.319 293.715 239.513 293.174L239.848 292.235C240.008 291.786 240.188 291.282 240.37 290.775C241.043 288.899 241.92 286.49 242.851 284.102C243.686 281.96 244.719 279.431 245.801 277.211ZM210.662 406.613C209.281 413.367 207.242 419.998 204.542 426.49C203.854 428.145 203.362 430.712 203.298 435.122C203.266 437.279 203.334 439.553 203.428 442.219L203.456 442.994C203.541 445.345 203.639 448.054 203.639 450.713C203.639 452.011 203.613 453.221 203.59 454.216L203.585 454.462L203.577 454.788C204.155 454.697 204.685 454.543 205.114 454.365C205.484 454.21 205.666 454.086 205.7 454.062L205.703 454.06C215.106 445.578 220.706 438.487 224.143 431.257C227.12 424.998 228.938 417.655 229.334 407.668C226.607 409.079 222.858 410.181 218.259 409.516C215.115 409.062 212.605 407.918 210.662 406.613ZM246.877 368.442C248.359 367.68 250.223 366.841 252.27 366.24C253.88 365.767 257.245 364.974 261.244 365.426C261.13 364.186 261.026 362.94 260.936 361.69C260.811 361.641 260.687 361.592 260.562 361.542C260.478 361.508 260.393 361.474 260.309 361.439C258.536 360.713 255.622 359.411 252.653 357.206C252.562 357.233 252.473 357.26 252.384 357.287C252.337 357.301 252.291 357.315 252.246 357.329C252.024 357.396 251.814 357.462 251.615 357.527C249.997 361.187 248.413 364.82 246.877 368.442ZM274.615 449.259C273.685 455.423 273.336 461.865 273.129 469.012C273.08 470.689 273.04 472.433 272.999 474.227L272.998 474.231C272.866 479.975 272.72 486.259 272.25 492.729C273.186 491.204 274.423 489.524 276.054 487.945C278.683 485.397 282.911 482.621 288.548 482.057C288.63 477.574 288.678 472.888 288.728 468.101L288.728 468.089C288.764 464.546 288.801 460.946 288.853 457.329C283.31 457.036 279.266 454.27 277.161 452.267C276.068 451.226 275.235 450.173 274.615 449.259ZM263.639 543.312C263.51 543.696 263.378 544.081 263.244 544.465C263.357 544.363 263.479 544.256 263.607 544.146L263.639 543.312ZM257.939 556.713C254.977 562.313 251.26 567.752 246.549 572.834C245.334 574.146 243.843 575.848 242.161 577.77C237.643 582.931 231.725 589.69 225.931 594.818C220.97 599.208 214.878 603.637 207.589 606.638C212.251 606.542 216.362 606.291 219.712 605.877C220.38 605.444 220.692 605.207 220.751 605.163L220.759 605.157C228.185 598.871 237.207 590.129 244.675 580.744C251.338 572.371 255.658 564.853 257.478 558.975C257.645 558.154 257.799 557.396 257.939 556.713ZM102.711 480.445C102.139 465.394 100.767 450.515 99.025 434.811C97.763 423.433 97.0232 412.24 96.6041 401.128L96.6019 401.198C96.5125 404.125 96.4242 407.012 96.3459 409.851C96.0985 418.824 95.1554 433.595 93.2903 441.968L93.2692 442.063C92.9697 443.411 92.1584 447.064 90.1205 450.542C93.9696 460.618 98.2139 470.64 102.711 480.445ZM95.3841 333.474C95.5039 325.575 96.0451 317.303 97.5573 309.123C103.934 274.626 113.025 239.522 124.715 206.239C133.955 179.931 153.746 153.186 178.591 135.294C172.186 137.301 165.681 139.189 159.195 140.8C155.814 141.64 152.908 142.292 150.489 142.732L150.142 142.795C146.929 149.966 143.856 157.336 140.67 164.974C137.29 173.081 133.782 181.492 129.844 190.297C129.558 190.936 129.27 191.581 128.979 192.233L128.975 192.242C122.834 206.004 115.463 222.52 103.134 236.58C100.959 239.059 96.4944 243.348 91.7417 246.374C92.9744 254.979 93.5906 265.289 93.9043 275.152C94.4702 292.947 94.0909 312.102 93.9248 320.492C93.9092 321.278 93.8956 321.969 93.8847 322.556C94.4772 326.177 94.9725 329.819 95.3841 333.474ZM271.657 119.709C274.502 120.855 277.345 122.175 280.179 123.679C281.44 124.347 282.607 124.992 283.8 125.651C285.868 126.793 288.011 127.977 290.846 129.399C293.662 130.81 296.345 132.019 298.753 132.912L298.782 132.458C299.114 127.231 299.429 122.284 299.378 117.128C299.307 109.913 298.452 105.146 297.188 102.36C297.117 102.204 297.047 102.048 296.978 101.891C296.692 102.333 296.408 102.733 296.135 103.089C294.272 105.523 292.22 106.979 291.141 107.68C290.784 107.912 290.418 108.133 290.046 108.344C289.097 109.935 287.937 111.417 286.575 112.754C282.889 116.377 278.688 118.015 275.858 118.817C274.414 119.227 272.995 119.51 271.657 119.709ZM287.317 74.0635C284.477 66.6844 282.177 63.752 280.754 62.7802C274.412 58.4485 268.324 56.0547 261.525 54.7356C261.33 55.9945 261.029 57.1043 260.711 58.0092C258.834 63.3432 255.028 66.2536 254.23 66.864L254.175 66.9064C252.665 68.067 251.161 68.9053 249.924 69.5017C248.163 70.3511 246.257 71.0397 244.264 71.5716C243.829 71.8493 243.395 72.13 242.962 72.4137C250.883 71.8262 258.75 71.9719 265.436 72.0957C267.958 72.1424 270.311 72.186 272.436 72.186C274.377 72.186 276.666 72.2385 278.847 72.407L278.908 72.4117C280.241 72.5145 283.846 72.7922 287.317 74.0635ZM248.598 68.9514C248.655 68.9255 248.685 68.9093 248.685 68.9093L248.66 68.9203C248.646 68.927 248.625 68.9372 248.598 68.9514Z" fill="#42F55F"/>
</svg>
