<svg width="800" height="793" viewBox="0 0 800 793" fill="none" xmlns="http://www.w3.org/2000/svg">
<path fill-rule="evenodd" clip-rule="evenodd" d="M436.979 110.841C436.351 113.383 435.696 115.995 434.998 118.687C432.059 130.033 428.489 141.13 424.512 152.012C428.334 151.182 433.441 151.207 438.663 154.354C445.133 158.253 446.951 164.282 447.398 165.918C449.16 172.367 449.29 178.759 449.205 183.454C449.166 185.622 449.068 187.778 448.985 189.593L448.957 190.203C448.863 192.269 448.801 193.852 448.801 195.241C448.801 204.936 450.172 214.338 452.374 224.071C452.371 223.743 452.369 223.415 452.368 223.088C452.367 222.831 452.366 222.575 452.366 222.319L452.366 221.969C452.365 220.839 452.363 218.988 452.455 217.89L452.456 217.873C452.47 217.707 452.54 216.858 452.741 215.819L452.747 215.787C452.807 215.467 453.176 213.501 454.23 211.265C455.053 209.708 458.246 205.645 460.9 203.49C461.979 202.986 463.299 202.592 464.761 202.306C461.615 192.996 458.432 183.66 455.235 174.28L455.206 174.194L455.19 174.149C452.066 164.984 448.928 155.776 445.794 146.51C441.783 134.653 438.95 122.728 436.979 110.841ZM452.431 220.59C452.426 220.504 452.427 220.485 452.43 220.565L452.431 220.59ZM445.916 338.729C444.933 335.572 443.955 332.415 442.981 329.258C443.106 342.311 442.746 355.588 441.492 369.016C439.956 385.454 438.241 397.24 433.932 413.351C433.932 413.375 433.863 413.767 433.692 414.926L433.664 415.115C433.487 416.317 433.162 418.527 432.636 420.675L432.624 420.725C432.243 422.281 430.961 427.519 426.904 431.974C426.177 432.773 425.317 433.593 424.323 434.378L424.41 439.422C424.52 445.898 424.631 452.67 424.739 459.617C425.432 471.792 426.302 483.946 427.335 496.104C429.018 492.425 430.951 488.792 433.187 485.259C433.392 484.636 433.634 483.889 433.924 482.994L433.938 482.948L434.172 482.224C435.164 479.16 436.55 474.904 437.994 471.069C438.713 469.161 439.556 467.06 440.48 465.111C440.873 464.281 441.587 462.795 442.642 461.129C446.171 420.919 446.05 380.368 445.916 338.729ZM427.469 411.576C427.467 411.564 427.462 411.546 427.456 411.521C427.466 411.567 427.473 411.595 427.473 411.595C427.473 411.595 427.472 411.589 427.469 411.576ZM394.384 221.881C394.007 225.869 393.765 231.032 393.55 235.85C393.49 237.194 393.431 238.551 393.371 239.91C392.782 253.327 392.178 267.081 390.928 273.584C388.956 283.837 386.713 294.403 384.429 305.162C381.914 317.007 379.348 329.092 377.039 341.263C376.694 298.01 377.412 260.198 394.384 221.881ZM367.804 410.656C366.059 412.025 363.928 413.263 361.381 414.109C357.063 415.542 352.893 415.4 349.442 414.544C343.376 413.039 339.263 409.299 337.242 407.271C334.818 404.84 332.591 401.938 330.528 398.919C326.907 393.617 323.211 388.384 319.44 383.1C327.789 403.049 335.135 424.49 337.581 446.644L337.585 446.681C337.627 447.065 337.813 448.742 337.997 451.038C342.183 460.351 346.024 470.086 348.961 480.111C352.764 465.92 357.206 451.566 361.516 437.639C363.331 431.774 365.123 425.985 366.833 420.315C367.172 417.133 367.49 413.916 367.804 410.656ZM233.558 213.834C230.782 209.029 227.842 204.332 224.695 199.754C223.312 197.742 221.864 195.767 220.314 193.7C220.387 193.87 220.446 194.013 220.488 194.118C221.726 197.175 222.471 200.571 222.909 202.654C223.149 203.796 223.492 205.554 223.792 207.092L223.794 207.1C223.99 208.106 224.168 209.018 224.286 209.603C224.622 211.255 224.902 212.476 225.138 213.355C226.489 215.101 227.598 216.928 228.514 218.756C229.622 217.188 231.238 215.391 233.533 213.848L233.558 213.834ZM195.81 183.08C196.317 182.895 196.843 182.727 197.389 182.58C201.415 181.49 205.149 181.852 208.063 182.73C210.98 183.609 213.179 185.021 214.662 186.217C212.813 183.74 210.897 181.101 209.077 178.375C204.972 172.228 200.894 164.987 198.364 156.41C198.286 157.068 198.221 157.717 198.17 158.36C197.526 166.585 196.699 174.864 195.81 183.08ZM228.23 68.9223C228.283 68.8363 228.273 68.8604 228.201 68.9685L228.23 68.9223ZM195.473 60.9798C195.464 60.8902 195.463 60.8396 195.463 60.8396C195.463 60.8396 195.468 60.8824 195.473 60.9798ZM190.211 235.616C189.264 246.898 188.654 258 188.654 269.034C188.654 281.38 189.076 292.887 190.07 303.993C190.649 303.269 191.329 302.526 192.123 301.8C193.75 300.314 196.146 298.643 199.341 297.63C198.065 291.019 196.865 284.392 195.741 277.75C194.931 272.962 194.948 267.27 194.998 262.977C195.018 261.319 195.047 259.731 195.076 258.18L195.076 258.175L195.076 258.159C195.099 256.889 195.122 255.642 195.139 254.4C193.293 248.212 191.638 241.951 190.211 235.616ZM167.227 381.074C154.177 342.977 149.945 309.348 149.945 269.034C149.945 249.207 151.7 229.675 153.747 210.816C154.347 205.293 154.965 199.871 155.577 194.512C157.089 181.258 158.558 168.394 159.579 155.354C160.165 147.872 161.895 140.263 163.256 134.276C163.417 133.567 163.573 132.88 163.721 132.22C165.294 125.212 166.205 120.336 166.205 116.241C166.205 104.902 169.943 92.5555 174.578 82.167C178.962 72.3425 185.025 62.3131 192.09 54.5369L192.182 54.358L192.385 53.959C192.999 52.7501 194.128 50.5296 195.281 48.6642C195.884 47.6889 197.127 45.7494 198.939 43.8764C199.841 42.9441 201.567 41.3056 204.11 39.9241C206.693 38.5205 211.466 36.6865 217.432 37.8175C223.661 38.9985 227.685 42.7325 229.841 45.683C231.826 48.3996 232.713 51.0334 233.126 52.4894C233.957 55.4215 234.121 58.2483 234.172 60.0559C234.487 71.2027 234.101 82.6544 233.739 93.4024C233.627 96.7229 233.517 99.979 233.431 103.136C233.054 116.986 233.084 129.741 234.73 141.936C235.352 146.549 237.376 151.113 241.296 156.984C243.287 159.964 245.55 162.975 248.229 166.505L248.687 167.109C251.151 170.356 253.952 174.046 256.624 177.934C269.942 197.309 279.71 217.797 287.984 237.687C291.606 246.394 295.292 256.29 298.828 265.785L298.831 265.792C301.316 272.466 303.728 278.942 305.992 284.668C311.972 299.788 318.344 313.693 326.683 326.179C330.447 331.815 334.32 337.37 338.283 342.959C337.814 297.788 338.547 250.203 360.577 202.755C375.535 170.538 389.341 140.606 397.52 109.034C398.375 105.731 399.221 102.256 400.098 98.6528C403.673 83.9618 407.763 67.1545 415.14 51.2903C416.343 48.7038 417.15 46.0534 418.465 41.7345L418.547 41.4668C419.752 37.5067 421.392 32.1676 424.164 26.5918L424.268 26.3307L424.427 25.931L424.43 25.9234L424.435 25.9113C424.656 25.3562 424.95 24.6172 425.269 23.8315C426.078 21.8409 427.256 19.0293 428.597 16.3204C429.558 14.3786 431.868 9.76284 435.445 6.25094C436.674 5.04325 442.787 -0.904369 452.436 0.117463C463.697 1.31013 468.211 10.2911 469.337 12.9698C473.116 21.9598 472.969 31.7173 472.645 37.9667C472.5 40.7698 472.257 43.6158 472.054 45.9962C472.012 46.4836 471.972 46.9515 471.935 47.3955C471.695 50.2688 471.564 52.2429 471.564 53.7553C471.564 82.0075 473.888 108.795 482.473 134.176C485.545 143.26 488.643 152.347 491.744 161.443C508.697 211.167 525.745 261.17 539.222 312.499C540.399 316.981 541.23 321.473 541.84 325.856C559.226 286.426 587.125 251.22 616.689 218.838C631.32 202.812 646.665 187.159 661.586 171.937L661.591 171.932L661.614 171.909C662.898 170.599 664.179 169.293 665.456 167.99C681.693 151.417 697.331 135.343 711.573 119.245C719.566 110.21 726.357 100.104 733.984 88.7542L734.128 88.5406C741.335 77.8162 749.343 65.9135 759.074 55.0423L759.128 54.9308C759.593 53.9666 760.084 52.7961 760.736 51.2326L760.833 50.9985C761.229 50.0371 762.31 47.408 763.48 45.4628L763.492 45.442C763.809 44.9156 764.986 42.9569 767.026 41.0352C768.032 40.0878 770.469 37.9628 774.289 36.6916C778.88 35.1637 784.961 35.1218 790.559 38.5191C795.266 41.3755 797.381 45.3391 798.196 47.1357C799.104 49.139 799.479 50.8705 799.645 51.7759C799.983 53.6122 800 55.16 800 55.8382V76.5181C800 90.558 798.647 104.318 797.1 117.374C796.622 121.402 796.134 125.311 795.654 129.149C794.536 138.095 793.467 146.652 792.7 155.411C791.66 167.298 791.294 179.066 790.907 191.481L790.907 191.489C790.722 197.415 790.533 203.489 790.264 209.794C789.459 228.663 787.936 248.627 783.209 268.319C779.209 284.983 775.267 301.612 771.317 318.277L771.279 318.436C769.602 325.512 767.923 332.594 766.238 339.688C757.512 376.418 746.209 415.183 732.224 451.379C727.101 464.638 719.825 475.766 713.163 485.397C711.812 487.349 710.5 489.223 709.227 491.042L709.211 491.065C703.903 498.647 699.26 505.28 695.231 512.697C694.086 514.804 692.92 516.969 691.728 519.181L691.722 519.193C684.383 532.82 676.081 548.233 666.005 562.738C670.323 567.03 671.366 571.984 671.672 573.761C672.096 576.224 672.019 578.353 671.932 579.596C671.75 582.178 671.219 584.682 670.779 586.498C669.025 593.75 665.406 603.235 664.134 606.248C657.268 622.508 646.479 638.427 633.049 651.493C627.677 662.021 620.946 672.729 611.668 681.928C608.809 684.762 605.28 686.527 601.586 687.221C600.606 688.471 599.542 689.75 598.49 690.991C580.701 711.964 556.063 723.834 532.859 732.169C521.148 736.376 509.183 739.886 498.097 743.121L497.22 743.377C486.409 746.532 476.547 749.409 467.545 752.605C467.545 752.605 467.439 752.658 467.178 752.778L467.16 752.787C466.857 752.926 466.358 753.156 465.599 753.512L464.556 754.003C463.083 754.696 461.238 755.564 459.214 756.497C454.169 758.822 447.508 761.785 440.979 764.201C435.306 766.3 426.815 769.142 419.259 769.164C417.921 769.168 415.512 769.101 412.683 768.436C403.769 771.707 395.215 774.632 387.5 777.182C385.19 777.945 382.84 778.28 381.855 778.418C380.451 778.616 378.934 778.777 377.519 778.911C376.308 779.025 375.038 779.13 373.793 779.227C371.995 779.725 370.591 779.874 370.073 779.929L370.013 779.935C368.604 780.086 367.255 780.119 366.164 780.119C364.684 780.119 363.315 780.11 362.324 780.069C362.061 780.058 361.6 780.035 361.066 779.987C360.805 779.963 360.337 779.916 359.765 779.828L359.741 779.824C359.388 779.77 357.926 779.544 356.179 778.926C355.46 778.672 353.056 777.806 350.539 775.8C349.952 775.333 349.157 774.625 348.307 773.683L348.073 773.62L347.552 773.479C347.534 773.654 347.514 773.83 347.491 774.007C347.472 774.156 347.452 774.305 347.43 774.455C346.975 777.571 344.722 787.599 333.811 791.592C324.388 795.039 316.556 790.67 314.351 789.365C311.102 787.442 308.208 784.883 305.77 782.466C298.178 774.938 289.991 768.03 281.633 762.702C207.432 715.411 151.175 651.397 96.7579 584.669C93.6017 580.799 92.2087 576.084 92.4769 571.478C82.8724 562.31 74.6564 551.62 69.8945 539.029C59.6722 512.002 51.4089 484.587 43.3649 457.899C40.4015 448.067 37.4678 438.334 34.4768 428.755C31.3963 418.889 27.606 409.268 23.5075 398.865L22.6615 396.717C18.3366 385.73 13.7384 373.888 10.1436 361.388C-0.77512 323.423 -0.266568 282.8 0.186939 246.574C0.274919 239.546 0.360829 232.683 0.360829 226.038V164.891C0.360829 163.954 0.315872 162.818 0.264317 161.516C-0.0657969 153.176 -0.666395 138.002 8.53373 124.365C8.87565 123.858 9.03203 123.586 9.30656 123.109C9.59685 122.605 10.0192 121.872 10.9328 120.388L10.9542 120.353C11.918 118.788 14.3269 114.875 17.9971 111.775C20.0245 110.062 23.5108 107.656 28.4048 106.688C33.8316 105.615 39.1525 106.676 43.5641 109.201C50.7126 113.293 54.0455 120.375 55.6011 124.035C62.7069 140.754 65.3801 157.442 67.4815 172.04C67.686 173.461 67.8852 174.86 68.0813 176.238C69.984 189.607 71.6081 201.017 75.3182 212.279C93.6146 267.813 120.555 325.161 158.526 372.066C160.912 375.013 163.836 377.997 167.227 381.074ZM640.771 526.262C641.648 526.314 642.491 526.415 643.301 526.557C648.014 518.658 652.517 510.362 657.106 501.87C651.49 510.018 645.857 518.14 640.22 526.236C640.402 526.242 640.586 526.251 640.771 526.262ZM517.818 674.678C518.182 674.338 518.554 673.992 518.933 673.639C512.895 675.065 506.687 676.596 500.36 678.165C502.085 680.581 503.279 683.34 503.851 686.278C507.772 683.811 511.509 680.534 516.371 676.024L516.905 675.529L517.818 674.678ZM297.714 692.194C304.831 693.069 312.163 693.644 319.718 693.897C319.629 695.385 319.673 696.727 319.764 697.852C320.336 704.926 323.44 711.586 326.067 716.192C327.842 719.304 329.952 722.429 332.267 725.342C324.665 720.58 318.236 714.777 311.369 706.768C309.619 704.726 303.172 697.881 297.714 692.194ZM226.82 670.881C237.033 676.073 247.889 680.51 259.426 684.069C258.906 684.712 258.408 685.41 257.938 686.17C255.764 689.679 255.146 693.121 255.075 695.729C245.397 687.77 236 679.476 226.82 670.881ZM211.375 614.464C239.4 638.016 274.586 653.28 318.872 655.235C318.198 652.853 317.873 650.604 317.693 648.833C317.598 647.9 317.529 646.951 317.483 645.998C312.663 646.872 306.918 646.118 301.886 642.41C297.211 638.966 295.327 634.523 294.589 632.407C293.758 630.02 293.443 627.826 293.297 626.321C292.353 616.599 291.942 606.468 292.096 596.31C291.965 596.125 291.866 595.977 291.797 595.875L291.793 595.868L291.761 595.82C290.494 593.936 289.688 592.022 289.212 590.685C289.412 594.42 289.505 598.166 289.428 601.647C289.349 605.169 289.087 609.127 288.362 612.856C287.844 615.517 286.374 622.445 280.891 627.777C277.474 631.1 272.445 633.816 266.24 633.957C260.545 634.086 256.094 631.988 253.346 630.236C248.292 627.015 244.621 622.159 242.074 618.346C237.944 612.161 233.734 606.039 229.462 599.943C228.128 601.169 226.505 602.303 224.531 603.231C217.458 606.56 211.223 604.555 209.222 603.791C209.16 603.767 209.098 603.743 209.036 603.718C209 603.704 208.963 603.69 208.927 603.675C210.781 606.96 211.627 610.722 211.375 614.464ZM197.377 593.488C192.646 590.443 187.653 587.461 182.616 584.545C165.758 563.129 152.384 538.247 141.722 511.904C141.019 510.169 140.335 508.436 139.669 506.707C140.902 508.485 142.133 510.258 143.362 512.027L143.426 512.119C146.948 517.191 150.444 522.226 153.887 527.225C153.874 527.207 153.931 527.295 154.068 527.508L154.079 527.526L154.088 527.539L154.091 527.544L154.107 527.568C154.393 528.014 154.971 528.913 155.916 530.391C156.583 531.434 157.258 532.492 158.01 533.669C158.923 535.1 159.949 536.707 161.209 538.678C165.498 545.388 171.099 554.129 176.717 562.778C182.314 571.395 188.012 580.051 192.47 586.545C194.238 589.121 195.918 591.514 197.377 593.488ZM162.756 427.08C166.246 434.532 169.6 441.556 173.448 448.56C187.276 473.734 203.788 497.9 221.322 522.384C226.167 529.149 231.118 535.975 236.109 542.856L236.117 542.867L236.136 542.894C238.202 545.743 240.276 548.601 242.351 551.469C239.502 543.209 236.109 534.818 232.397 526.14C230.54 521.797 228.57 517.314 226.557 512.734C221.272 500.706 215.695 488.013 211.098 475.46C207.425 465.431 204.359 455.313 201.729 445.196C199.458 445.863 197.131 446.139 194.86 446.063C186.786 445.793 180.846 441.19 178.293 439.088C174.059 435.601 169.918 432.48 165.362 429.046C164.509 428.403 163.641 427.749 162.756 427.08ZM277.985 536.148C281.319 545.513 284.241 555.192 286.338 565.149C286.396 565.423 286.457 565.735 286.522 566.083C286.515 553.304 286.461 540.878 286.048 528.664C285.772 529.116 285.473 529.571 285.149 530.025C283.531 532.289 281.163 534.561 277.985 536.148ZM300.503 613.738C300.503 613.738 300.54 613.681 300.61 613.589C300.537 613.697 300.503 613.738 300.503 613.738ZM356.245 645.257C356.246 645.268 356.243 645.252 356.236 645.207C356.241 645.233 356.245 645.257 356.245 645.257ZM385.507 554.918L385.507 554.922L385.506 554.927L385.502 554.972C385.242 558.052 384.98 561.16 384.707 564.301C382.867 585.478 380.572 607.823 375.075 630.111C374.592 632.068 371.751 641.243 367.92 649.577C366.993 651.594 365.81 654.011 364.367 656.475C369.528 656.683 374.59 656.878 379.419 657.011C396.211 657.471 411.78 657.274 425.717 655.088L426.351 654.988L426.35 653.912L426.35 653.455C420.402 653.697 415.882 651.19 413.019 648.861C411.344 649.297 409.467 649.549 407.396 649.487C398.006 649.208 392.892 642.958 391.131 640.2C389.329 637.377 388.601 634.699 388.311 633.527C387.953 632.08 387.762 630.762 387.651 629.805C387.296 626.762 387.32 623.18 387.328 621.95C387.329 621.815 387.33 621.708 387.33 621.634V582.803C387.33 571.179 387.22 555.253 387.041 537.39C386.501 543.147 386.008 548.979 385.507 554.918ZM490.814 640.735C500.139 638.419 509.659 636.091 519.534 633.893C533.748 630.729 546.18 625.246 557.523 618.109C554.204 618.91 550.487 619.203 546.526 618.466C541.879 617.601 538.151 615.579 535.252 613.054C534.162 615.422 533.181 617.457 532.317 619.113C531.757 620.186 531.095 621.394 530.365 622.54L530.327 622.601C529.991 623.143 528.082 626.215 524.806 628.628C523.586 629.526 516.256 634.806 506.555 631.334C500.929 629.321 497.796 625.544 496.083 622.433C495.82 623.601 495.553 624.774 495.281 625.953C494.55 629.13 492.948 634.473 490.814 640.735ZM628.177 475.691C656.244 434.872 683.556 393.775 708.594 352.228C709.75 350.31 710.892 348.409 712.017 346.523C708.473 349.81 704.967 352.881 701.692 355.752L700.95 356.402C690.599 365.475 682.483 372.718 676.815 380.654C675.617 382.331 674.616 383.71 673.831 384.752C673.448 385.26 673.018 385.82 672.588 386.345C672.376 386.605 672.069 386.972 671.704 387.376L671.696 387.385C671.462 387.643 670.628 388.564 669.442 389.533C669.123 389.793 668.243 390.51 666.924 391.28C663.822 397.973 660.646 404.569 657.558 410.982L657.55 410.998L657.548 411.004C653.358 419.704 649.332 428.065 645.876 435.87C644.579 438.801 643.281 441.736 641.982 444.676C637.43 454.976 632.857 465.325 628.177 475.691ZM732.444 153.846C725.148 161.832 717.614 169.773 709.992 177.669C712.254 178.142 714.753 179.082 717.185 180.796C717.568 181.065 717.933 181.343 718.282 181.628C719.498 181.745 721.244 181.958 723.169 182.419C725.604 183.004 729.081 184.182 732.444 186.637V153.846ZM732.884 219.458C732.64 219.621 732.39 219.78 732.136 219.933C725.715 223.809 717.934 223.525 711.953 219.855C711.809 219.844 711.65 219.832 711.477 219.818C710.101 221.534 708.626 223.388 707.096 225.321C707.823 225.001 708.6 224.695 709.418 224.419C711.558 223.699 715.585 222.632 720.455 223.422C725.827 224.293 730.884 227.241 734.252 232.044C735.077 230.916 736.163 229.625 737.552 228.374C735.268 225.905 733.625 222.847 732.884 219.458ZM636.727 254.377C620.281 273 605.511 291.704 593.543 310.905C595.321 310.803 597.206 310.933 599.136 311.389C601.576 308.181 603.809 305.132 605.85 302.032C609.882 295.911 613.962 289.507 618.136 282.956C624.097 273.6 630.25 263.943 636.727 254.377ZM528.856 422.121C526.862 425.849 524.856 429.586 522.843 433.335L522.84 433.341C512.999 451.671 502.987 470.318 493.38 489.773C482.89 511.014 476.266 532.61 471.152 553.809C472.027 549.054 472.98 544.4 473.972 539.558C475.173 533.691 476.43 527.549 477.676 520.616C480.387 505.525 482.496 489 481.072 471.996C481.004 471.19 480.907 470.278 480.755 469.304C481.159 465.039 481.522 460.775 481.849 456.513C483.547 457.947 486.171 459.662 489.782 460.54C495.9 462.026 501.615 460.354 505.641 457.482C508.992 455.092 510.699 452.265 511.389 451.004C512.764 448.487 513.238 446.244 513.354 445.692L513.36 445.664C513.547 444.779 513.638 444.049 513.682 443.643C513.836 442.249 513.838 440.895 513.838 440.276C513.838 436.371 513.786 432.478 513.681 428.595C516.275 424.165 516.687 419.75 516.822 418.302L516.826 418.261C517.018 416.2 517.177 414.142 517.302 412.088C518.321 413.807 519.753 415.798 521.745 417.651C523.554 419.334 525.949 420.99 528.856 422.121ZM607.184 380.036C606.482 382.507 605.752 384.954 605.003 387.376C607.569 383.429 610.18 379.496 612.838 375.578C610.855 377.233 608.961 378.733 607.184 380.036ZM250.361 605.507C250.231 606.179 250.177 606.076 250.364 605.493L250.361 605.507ZM79.7599 321.993C62.9916 290.427 49.6101 257.657 39.0695 225.916V226.038C39.0695 233.68 38.9877 241.219 38.907 248.66C38.5142 284.868 38.1468 318.74 47.3525 350.749C50.3806 361.278 54.3426 371.56 58.6942 382.616L59.6398 385.016L60.194 386.422C56.328 374.694 52.9717 361.728 52.4071 348.244C52.2881 345.403 52.2716 342.275 52.6626 339.385C52.8469 338.023 53.2579 335.599 54.4022 332.959C55.35 330.772 58.4842 324.555 66.2543 321.843C71.6434 319.962 76.3584 320.724 79.7599 321.993ZM44.486 139.721C44.486 139.721 44.472 139.741 44.4445 139.776L44.4731 139.737L44.486 139.721ZM758.752 55.6555C758.752 55.6555 758.773 55.6154 758.815 55.5461C758.773 55.6227 758.752 55.6555 758.752 55.6555ZM191.552 55.5601C191.402 55.825 191.426 55.7513 191.608 55.4603L191.552 55.5601ZM360.035 777.116C360.035 777.116 359.997 777.102 359.93 777.074L359.99 777.097C360.021 777.11 360.035 777.116 360.035 777.116Z" fill="#FFD43E"/>
<path fill-rule="evenodd" clip-rule="evenodd" d="M266.117 563.602C255.037 546.172 243.3 526.921 234.896 506.475C234.896 506.475 234.049 504.501 233.432 502.884C232.816 501.269 231.781 498.401 231.217 495.29C230.946 493.795 230.565 491.126 230.906 487.994C231.222 485.087 232.532 478.656 238.575 473.833C244.98 468.721 252.014 469.079 255.695 469.829C259.293 470.562 262.173 472.075 263.953 473.127C265.409 473.988 266.815 474.925 268.173 475.927C267.705 474.697 267.241 473.465 266.784 472.237C263.914 464.523 261.039 456.21 259.331 449.548C258.546 446.484 257.631 442.38 257.528 438.444C257.484 436.772 257.469 432.686 259.37 428.302C260.434 425.848 262.412 422.581 265.99 419.937C269.768 417.144 274.046 416 277.958 416C290.267 416 298.56 423.513 303.108 429.246C307.771 435.123 311.033 442.168 313.333 448.124C316.924 457.423 319.664 468.447 321.017 473.888C321.346 475.214 321.593 476.208 321.75 476.765C329.043 502.649 338.196 525.544 349.948 548.777C349.606 539.551 349.298 530.625 349.025 522.681C348.491 507.161 348.086 495.39 347.799 492.461C347.8 492.474 347.801 492.481 347.801 492.481C347.801 492.481 347.784 492.332 347.735 491.955C347.683 491.552 347.611 491.022 347.52 490.367C347.339 489.057 347.098 487.375 346.818 485.442C346.662 484.358 346.493 483.198 346.319 481.993C345.877 478.947 345.393 475.613 344.951 472.497C344.347 468.233 343.766 464.002 343.474 461.33C343.4 460.655 343.323 459.883 343.272 459.146C343.247 458.791 343.214 458.244 343.206 457.619C343.206 457.619 343.205 457.605 343.205 457.594C343.199 457.33 343.157 455.436 343.607 453.226C343.75 452.521 344.051 451.225 344.682 449.689C345.202 448.422 346.634 445.248 349.904 442.407C353.974 438.871 359.992 436.73 366.486 438.102C371.713 439.207 374.925 442.131 376.135 443.342C378.5 445.708 379.669 448.158 379.902 448.648C379.91 448.665 379.917 448.68 379.923 448.692C380.339 449.555 380.61 450.279 380.745 450.655C381.211 451.949 381.521 453.23 381.647 453.752L381.648 453.756C384.353 464.932 386.512 476.196 388.1 487.552C388.396 487.181 388.686 486.834 388.952 486.539C391.195 484.596 398.028 481.384 402.611 480.827C405.174 481.156 408.426 482.353 411.283 483.759C415.932 478.92 422.101 475.11 430.192 473.442C437.638 471.907 447.938 470.756 458.022 470.525C467.568 470.307 479.539 470.825 489.004 474.104C495.56 476.376 499.208 481.105 500.997 484.283C502.763 487.421 503.58 490.503 504.006 492.586C504.343 494.231 504.563 495.902 504.701 497.518C510.011 501.731 514.998 507.017 519.114 511.791C524.66 518.224 529.875 525.214 533.888 531.032C537.407 536.134 541.311 542.199 542.936 546.171C553.793 572.71 543.779 595.708 530.823 612.045C519.146 626.771 502.958 638.927 491.755 647.34C490.976 647.925 490.22 648.493 489.492 649.041C489.215 649.25 488.802 649.567 488.311 649.945C487.11 650.867 485.442 652.148 484.144 653.087C483.42 653.611 482.326 654.398 480.983 655.241C480.986 655.763 480.994 656.158 481.003 656.444C481.007 656.474 481.011 656.503 481.016 656.533C481.087 657.041 481.191 657.896 481.22 658.93L481.22 658.954C481.23 659.283 481.27 660.683 481.01 662.416C480.93 662.944 480.78 663.803 480.487 664.837C480.242 665.702 479.632 667.666 478.255 669.862C477.029 671.818 473.499 676.63 466.549 678.347C458.895 680.238 452.961 677.025 450.205 674.898C449.582 674.417 449.026 673.926 448.534 673.446C447.224 673.351 445.79 673.298 444.29 673.293C444.202 673.292 444.114 673.292 444.026 673.292C444.03 673.343 444.034 673.394 444.038 673.445C444.068 673.833 444.105 674.307 444.145 674.8C444.205 675.556 444.269 676.358 444.313 676.967C444.389 678.016 444.49 679.514 444.49 680.963C444.49 684.011 444.434 688.594 443.399 692.458C443.112 693.527 442.397 695.965 440.705 698.571C439.109 701.029 434.412 706.878 425.668 707.504C417.428 708.093 412.159 703.495 410.504 701.864C408.529 699.918 407.374 697.967 406.867 697.061C405.053 693.821 403.986 689.922 403.463 687.978C402.745 685.305 402.037 682.191 401.376 679.003C400.422 674.407 399.482 669.249 398.665 664.289C396.505 666.4 390.553 671.329 381.671 670.233C372.594 669.112 368.108 662.934 366.206 659.309C362.106 660.384 355.613 660.345 353.095 659.692C349.273 658.408 346.82 656.179 346.487 655.877C346.474 655.864 346.464 655.855 346.457 655.849C345.702 655.18 345.163 654.595 344.927 654.333C344.419 653.77 344.057 653.3 343.938 653.146C343.772 652.93 343.643 652.752 343.568 652.648C343.535 652.601 343.503 652.557 343.473 652.515C340.609 659.376 333.921 664.251 326.043 664.395C317.034 664.559 309.356 658.484 307.096 650.126C302.148 646.669 296.203 641.496 289.399 635.184C286.386 632.389 283.488 629.67 280.674 627.029C277.87 624.398 275.15 621.845 272.483 619.375C269.014 616.867 266.034 614.626 263.276 612.551C259.188 609.477 255.586 606.768 251.602 604.099C246.59 600.741 241.384 596.633 236.64 592.873C236.348 592.641 236.056 592.41 235.765 592.179C233.64 590.494 231.562 588.847 229.504 587.248C226.857 585.919 224.123 584.67 221.281 583.504C219.015 582.575 210.686 578.873 203.556 575.476C200.043 573.804 196.29 571.955 193.581 570.428C193.553 570.411 193.521 570.394 193.487 570.375C192.605 569.879 190.038 568.436 187.889 566.47C187.289 565.922 185.663 564.399 184.219 562.023C183.176 560.306 178.986 552.759 183.124 543.701C187.091 535.014 195.082 533.116 196.744 532.758C199.292 532.21 201.388 532.3 202.202 532.347C218.888 533.305 233.799 542.516 244.588 550.241C246.534 551.634 248.456 553.064 250.333 554.492C255.736 557.396 260.846 560.543 265.719 563.864C265.852 563.774 265.985 563.687 266.117 563.602ZM458.804 509.251C458.505 510.28 458.266 511.245 458.071 512.114C457.248 515.778 456.837 519.474 456.593 522.577C456.366 525.455 456.249 528.32 456.156 530.588C456.148 530.782 456.14 530.972 456.132 531.157C456.022 533.826 455.944 535.228 455.848 536.029C455.291 540.67 454.753 545.364 454.229 550.081C453.048 551.929 451.785 553.759 450.448 555.583C450.192 553.68 449.532 550.8 447.758 547.843C446.186 545.223 443.436 542.061 439.057 540.08C438.373 539.77 437.692 539.509 437.018 539.291C435.8 528.488 436.038 519.918 437.451 514.436C437.886 512.746 438.332 511.76 438.612 511.25C443.491 510.304 451.065 509.433 458.804 509.251ZM433.423 635.094C436.863 634.734 440.403 634.569 443.736 634.559C444.147 631.039 444.623 627.602 445.117 624.272C443.692 624.548 442.167 624.736 440.566 624.782C440.275 625.198 439.952 625.66 439.597 626.173C438.925 627.141 438.181 628.219 437.391 629.364C436.153 631.159 434.799 633.121 433.423 635.094ZM344.143 462.697C344.143 462.697 344.151 462.726 344.17 462.8C344.152 462.736 344.143 462.697 344.143 462.697ZM305.045 640.978C305.049 640.986 305.052 640.993 305.055 641C305.084 641.064 305.077 641.055 305.045 640.978ZM211.874 536.312C211.874 536.312 211.949 536.354 212.069 536.434C211.93 536.351 211.874 536.312 211.874 536.312Z" fill="#FF5050"/>
</svg>
