<svg width="732" height="800" viewBox="0 0 732 800" fill="none" xmlns="http://www.w3.org/2000/svg">
<path fill-rule="evenodd" clip-rule="evenodd" d="M425.233 71.5939C447.97 72.7279 470.55 76.1186 493.712 82.7594C495.022 83.135 496.331 83.5175 497.639 83.9068C497.578 84.0959 497.518 84.2865 497.461 84.4785C497.187 85.3981 496.976 86.3081 496.819 87.204C480.843 82.3222 464.358 79.3813 448.548 77.1349C443.646 75.8779 438.793 74.7216 434.034 73.6164C431.055 72.9244 428.123 72.2542 425.233 71.5939ZM290.009 83.6319C279.061 86.0678 268.013 88.9719 256.757 92.0897C265.734 92.2276 274.617 92.4588 283.338 92.6858C286.256 92.7618 289.156 92.8373 292.035 92.9086C291.439 91.1974 290.914 89.3615 290.536 87.4356C290.307 86.2653 290.118 84.9895 290.009 83.6319ZM52.4113 213.658C44.5761 228.821 43.8258 245.197 43.9156 266.602C45.3408 266.639 46.6021 266.818 47.617 267.023C48.027 248.576 49.5366 231.177 52.4113 213.658ZM98.5187 543.383C101.106 547.179 102.75 548.079 103.99 548.662C105.028 549.151 106.419 549.65 108.759 550.316C107.021 547.404 105.333 544.472 103.692 541.53C103.205 541.787 102.693 542.03 102.156 542.255C100.925 542.77 99.7093 543.139 98.5187 543.383ZM135.624 587.429C135.561 591.025 135.369 594.508 135.199 597.255C135.179 597.575 135.148 598.057 135.114 598.58C135.083 599.065 135.049 599.585 135.019 600.04L134.941 601.246C134.897 601.958 134.877 602.344 134.869 602.511L134.866 602.579C134.863 602.633 134.863 602.619 134.863 602.56V604.656C138.991 601.817 143.037 599.833 146.083 598.37C146.31 598.261 146.534 598.154 146.754 598.049C147.032 597.915 147.305 597.785 147.573 597.658C147.338 597.537 147.124 597.423 146.934 597.318C143.03 595.172 139.778 591.94 137.459 589.438C136.842 588.773 136.231 588.103 135.624 587.429ZM217.675 606.133C217.934 601.595 218.173 596.605 218.292 591.526C218.44 591.417 218.584 591.307 218.726 591.197C221.198 589.278 223.167 587.053 224.711 584.965C224.818 585.328 224.925 585.691 225.029 586.054C225.087 586.252 225.143 586.45 225.199 586.649C225.28 592.664 225.306 598.66 225.262 604.628C222.737 605.115 220.208 605.615 217.675 606.133ZM443.472 568.623C443.492 567.26 443.445 565.911 443.33 564.579C452.78 565.366 462.201 565.564 471.195 565.611C475.264 565.632 479.204 565.624 483.044 565.617H483.066C484.989 565.613 486.887 565.609 488.763 565.609C473.747 567.037 458.598 567.984 443.472 568.623ZM181.088 668.171C181.111 668.267 181.133 668.363 181.156 668.459C176.697 669.422 171.589 670.638 166.674 672.225C166.876 671.371 167.073 670.527 167.266 669.694C167.612 668.199 167.945 666.744 168.269 665.326L168.274 665.304C168.427 664.635 168.578 663.974 168.728 663.322C171.582 665.234 174.406 666.341 176.562 667.021C178.116 667.512 179.672 667.884 181.088 668.171ZM233.886 716.139H236.705C240.505 716.139 244.399 716.094 248.372 716.025C247.428 715.733 246.551 715.438 245.829 715.189C243.468 714.372 240.404 713.201 237.656 711.838L237.599 711.809C236.41 713.292 235.172 714.737 233.886 716.139ZM417.967 738.017C418.81 737.099 419.577 736.158 420.274 735.216V738.413C419.537 738.296 418.767 738.164 417.967 738.017ZM674.083 317.889C673.618 317.782 673.149 317.684 672.677 317.595C673.24 312.643 673.801 307.631 674.33 302.568C674.268 307.688 674.187 312.794 674.083 317.889ZM584.005 122.454C585.422 123.359 586.829 124.275 588.226 125.204C597.19 133.049 605.498 143.127 612.695 154.349C607.805 149.659 602.808 145.202 598.105 141.008C596.894 139.928 595.703 138.865 594.538 137.821C587.416 131.434 580.984 125.466 575.226 118.993C575.038 118.781 574.847 118.561 574.652 118.332C578.475 119.921 581.681 121.348 584.005 122.454ZM610.754 95.6897C625.342 105.562 639.093 116.713 651.589 129.253C670.164 147.893 685.371 166.431 695.793 187.931C706.335 209.675 711.489 233.413 711.489 261.852C711.489 307.602 711.06 352.991 706.873 399.208C703.362 437.964 693.645 471.681 683.732 506.076L683.724 506.105C682.483 510.41 681.239 514.727 680.004 519.066C673.645 541.402 658.65 556.345 642.325 566.284C626.26 576.066 608.002 581.597 592.813 585.183C588.078 586.301 583.026 587.556 577.742 588.868L577.729 588.871C553.696 594.84 524.881 601.996 499.422 602.877C495.752 603.004 492.912 604.494 486.202 609.801C485.987 609.971 485.765 610.148 485.535 610.333C485.29 610.529 485.036 610.733 484.774 610.945C478.925 615.652 468.868 623.747 455.001 625.486C454.883 625.513 454.708 625.553 454.467 625.611C453.695 625.799 452.614 626.081 451.274 626.452C450.152 626.762 448.908 627.118 447.597 627.504C448.071 628.265 448.536 629.021 448.957 629.729C449.478 630.602 450.385 632.148 451.094 633.75C457.849 649.001 457.537 664.745 457.305 676.459L457.305 676.469C457.266 678.449 457.229 680.314 457.229 682.042V750.639C457.229 754.777 456.266 759.239 453.773 763.4C451.3 767.53 447.926 770.356 444.621 772.203C438.567 775.587 431.973 776.144 427.433 776.17C417.922 776.223 406.602 773.802 396.777 771.204C386.541 768.497 376.148 765.098 367.958 762.338C365.919 761.65 364.112 761.035 362.462 760.473C360.633 759.851 358.997 759.294 357.45 758.776C356.048 758.307 354.932 757.943 354.07 757.676C353.441 757.481 353.115 757.39 353.009 757.361C352.982 757.353 352.97 757.35 352.97 757.35L352.978 757.351C352.992 757.354 353.005 757.357 353.019 757.36L353.006 757.357C352.994 757.355 352.978 757.351 352.978 757.351C326.025 751.348 297.955 752.025 267.896 752.75C257.737 752.995 247.352 753.245 236.705 753.245H152.708C144.861 753.245 137.138 752.818 130.577 751.086C124.072 749.37 114.886 745.302 110.461 735.098C106.426 725.795 108.767 716.577 110.83 710.838C111.739 708.306 112.883 705.685 114.199 702.998C105.025 701.912 97.9078 694.077 97.9078 684.573V602.56C97.9078 601.351 97.999 599.881 98.0592 598.918C98.1118 598.078 98.1435 597.601 98.1756 597.118C98.2116 596.575 98.2482 596.023 98.3155 594.941C98.4914 592.114 98.6546 588.984 98.6861 586.014C95.1861 584.994 91.5146 583.771 88.306 582.261C79.7228 578.221 72.9113 572.03 66.7924 562.478C63.599 557.493 59.9412 552.828 55.6631 547.371C54.1866 545.488 52.6362 543.51 51.0056 541.393C45.1136 533.742 38.4583 524.577 33.8756 514.065C23.0393 489.21 19.441 458.475 16.7344 435.356L16.5602 433.869C10.9516 386.029 7.1005 337.224 7.1005 288.43C7.1005 284.41 7.03057 280.281 6.95917 276.066C6.43842 245.322 5.83919 209.944 31.7122 178.211C35.5823 173.464 39.655 168.128 44.1327 162.261L44.9588 161.178C49.6849 154.987 54.7979 148.312 60.1483 141.789C70.6531 128.983 83.1303 115.415 97.3169 106.263C125.743 87.9254 149.22 81.117 180.485 74.145C196.766 70.5142 212.891 65.9388 229.63 61.1891C234.4 59.8355 239.224 58.4668 244.112 57.1027C265.795 51.0518 288.43 45.1935 311.62 41.9836C375.901 33.0862 437.341 28.0075 503.859 47.0791C537.313 56.671 571.234 70.6402 601.956 89.9509C602.754 90.3496 603.513 90.7416 604.213 91.1207C605.075 91.5876 607.103 92.6902 608.922 94.1708C609.536 94.6703 610.147 95.1766 610.754 95.6897ZM305.591 496.129C298.832 495.077 292.05 493.403 284.731 491.159C278.068 489.116 268.439 486.782 258.021 484.5C256.596 464.304 254.782 444.222 252.954 424.325C256.882 430.47 260.92 436.004 264.546 440.756C268.067 445.372 271.552 450.021 275.035 454.667L275.038 454.671C284.46 467.241 293.87 479.794 303.968 491.637C304.518 493.133 305.059 494.63 305.591 496.129ZM261.281 550.68C264.585 551.938 267.968 553.085 271.448 554.12C269.674 554.366 268.144 554.565 266.539 554.774L266.523 554.776C264.993 554.975 263.395 555.183 261.453 555.448C261.397 553.855 261.34 552.266 261.281 550.68ZM288.97 302.896C289.532 304.561 290.108 306.225 290.7 307.887C288.94 308.792 287.168 309.735 285.41 310.707C286.612 308.095 287.797 305.486 288.97 302.896ZM290.313 370.459C291.665 370.499 293.05 370.518 294.469 370.518C295.395 370.518 296.322 370.521 297.248 370.527C297.712 375.274 298.249 379.994 298.861 384.675C296.174 379.781 293.333 375.017 290.313 370.459ZM222.081 214.634C217.861 215.811 213.795 217.025 210.138 218.151C209.058 218.483 207.956 218.827 206.859 219.172C207.113 220.415 207.299 221.621 207.444 222.715C208.451 230.278 208.406 237.821 208.198 244.404H215.639C216.369 242.337 217.071 240.283 217.74 238.24C218.959 230.397 220.394 222.529 222.081 214.634ZM132.985 234.391C133.248 233.993 133.51 233.596 133.773 233.201C135.412 230.739 137.122 228.123 138.901 225.396C137.364 225.428 135.886 225.48 134.465 225.555C133.932 228.485 133.439 231.431 132.985 234.391ZM383.871 228.277C384.772 227.927 385.69 227.596 386.624 227.283C386.583 229.586 386.534 231.894 386.476 234.207C385.072 233.535 383.45 232.977 381.614 232.663C379.655 232.328 377.776 232.327 376.029 232.564C378.405 230.814 381.015 229.386 383.871 228.277ZM481.462 277.489C480.693 278.255 479.897 278.961 479.086 279.613C481.192 287.321 483.549 295.737 486.116 304.6C486.434 305.697 486.755 306.801 487.079 307.91C492.185 307.409 497.344 307.159 502.492 307.17C502.384 306.907 502.276 306.643 502.167 306.38C497.292 294.573 491.507 283.476 484.848 273.381C483.799 274.948 482.635 276.32 481.462 277.489ZM520.163 405.66C518.106 400.626 516.044 395.361 513.986 389.903C512.605 386.242 511.238 382.526 509.887 378.771C513.055 378.547 516.235 378.283 519.412 377.972C520.232 387.419 520.48 396.709 520.163 405.66ZM496.167 487.575C495.599 489.794 494.991 491.999 494.34 494.19C493.98 495.403 493.597 496.601 493.188 497.781C496.779 497.964 500.28 498.176 503.621 498.378L503.676 498.381C504.296 498.418 504.91 498.455 505.518 498.492C505.835 498.339 506.154 498.183 506.475 498.025C509.801 496.385 513.204 494.552 516.626 492.556C509.633 491.179 502.776 489.455 496.167 487.575ZM559.469 457.471C559.53 457.248 559.589 457.029 559.646 456.814C561.059 451.527 562.193 445.917 563.024 441.222V446.706C563.024 448.594 563.162 450.445 563.421 452.253C563.023 452.827 562.604 453.415 562.162 454.014C561.318 455.158 560.419 456.312 559.469 457.471ZM607.646 346.796C609.354 366.199 608.649 385.04 605.36 401.528C604.315 392.965 602.657 384.493 600.057 376.048V363.421C600.057 359.098 599.984 354.552 599.754 349.858C602.411 347.439 604.897 344.804 607.169 341.932C607.344 343.552 607.503 345.174 607.646 346.796ZM553.482 229.157C554.599 231.112 555.657 232.999 556.624 234.723L556.628 234.729C557.776 236.777 558.795 238.595 559.632 240.023C568.873 255.793 576.131 271.635 581.679 287.778C581.849 288.026 582.018 288.276 582.186 288.527C581.477 285.525 580.515 282.266 579.256 278.726C578.014 275.238 576.81 271.817 575.63 268.467L575.612 268.416C571.615 257.063 567.898 246.506 563.956 236.771C563.83 236.67 563.705 236.571 563.579 236.472C560.305 233.9 556.936 231.464 553.482 229.157ZM98.3386 579.088C98.3386 579.088 98.348 579.12 98.3624 579.194C98.3452 579.127 98.3386 579.088 98.3386 579.088ZM177.49 707.711C180.71 706.635 184.01 705.813 187.472 705.05C185.395 706.164 183.245 707.211 181.064 708.142C176.468 710.105 172.428 711.252 169.194 711.666C170.63 710.566 173.178 709.152 177.49 707.711ZM619.1 534.301C616.149 535.811 613.077 537.197 610.003 538.467C607.823 534.142 604.397 531.468 602.125 530.126C601.324 529.653 600.523 529.25 599.739 528.905C610.594 528.318 620.306 528.318 627.72 529.137C625.471 530.767 622.601 532.511 619.1 534.301ZM278.812 134.492C278.023 135.374 277.266 136.266 276.54 137.168C275.9 136.381 275.123 135.553 274.188 134.752C275.334 134.669 276.788 134.586 278.483 134.507L278.812 134.492ZM88.3878 327.062C87.6958 322.692 87.0899 318.303 86.576 313.89C87.3929 317.546 88.2399 321.2 89.1166 324.851C88.8683 325.586 88.6254 326.323 88.3878 327.062ZM202.937 228.902C202.93 228.915 202.911 228.961 202.88 229.046L202.865 229.087C202.924 228.949 202.947 228.882 202.937 228.902Z" fill="white"/>
<path fill-rule="evenodd" clip-rule="evenodd" d="M364.691 1.27649C371.869 1.96567 379.047 2.95084 383.488 4.194C390.921 6.27504 398.761 6.64321 409.364 7.1411L409.446 7.14491C419.403 7.61247 431.816 8.21107 444.452 12.1298C449.03 13.5495 454.01 13.8687 461.521 14.35L461.527 14.3504C463.091 14.4507 464.766 14.558 466.569 14.6838C475.59 15.313 488.22 16.4849 499.71 23.1024C507.117 27.3681 515.849 31.0414 525.212 34.9803C529.727 36.8797 534.389 38.8409 539.12 40.96C548.386 45.1109 556.297 51.3952 562.272 56.1412L562.355 56.2075C569.004 61.4893 573.663 65.1861 578.533 67.6402C588.294 72.5593 599.133 76.661 610.562 80.986C613.959 82.2713 617.407 83.5763 620.895 84.9284C627.267 87.3984 632.192 91.2603 635.576 94.1602C637.752 96.0243 639.011 97.1885 640.039 98.1384C641.176 99.1886 642.029 99.9767 643.522 101.159C650.423 106.624 656.926 112.611 662.882 118.095L663.029 118.231C667.529 122.373 671.741 126.248 675.96 129.85C682.008 131.271 687.201 135.71 689.31 142.05C690.785 146.487 693.038 150.067 696.338 154.137C697.898 156.06 699.538 157.913 701.513 160.144L702.261 160.988C704.469 163.486 707.022 166.398 709.541 169.644C717.22 179.54 720.798 191.934 723.033 201.574C724.019 205.83 724.865 210.156 725.616 213.995L725.617 214.001C725.751 214.683 725.881 215.349 726.009 215.997C726.899 220.517 727.66 224.167 728.505 227.215C731.787 239.056 732.099 251.768 731.847 262.718C731.736 267.562 731.498 272.423 731.279 276.913L731.182 278.894C730.933 284.054 730.737 288.654 730.737 292.863C730.737 298.696 730.814 304.787 730.892 311.018V311.022C731.056 324.035 731.227 337.655 730.723 350.791C729.86 373.296 726.746 399.045 722.643 421.248C721.635 426.707 720.795 432.162 719.912 437.901L719.628 439.743C718.656 446.044 717.611 452.677 716.277 459.308C713.598 472.624 709.613 486.724 701.894 500.478C679.322 540.699 640.175 589.929 590.103 607.853C583.255 610.305 576.936 613.878 569.079 618.321L569.074 618.324C566.415 619.827 563.58 621.431 560.488 623.124C549.359 629.219 535.433 636.06 519.231 637.472C504.215 638.781 488.426 638.716 473.084 636.563C471.537 646.124 470.922 660.124 470.972 675.65C471.072 706.989 473.818 739.792 474.511 744.301C475.781 752.575 477.459 768.472 474.804 780.447C472.384 791.363 463.133 794.993 460.082 795.933C456.398 797.069 452.832 797.217 450.81 797.242C448.505 797.271 446.307 797.132 444.848 797.03C442.748 796.883 442.744 796.879 442.9 796.879C436.408 796.879 429.759 797.546 422.073 798.341L421.532 798.398C414.307 799.146 406.059 800 397.752 800H329.252C256.596 800 187.612 789.819 117.539 777.892C107.462 776.177 100.681 766.599 102.392 756.499C102.848 753.804 103.864 751.344 105.298 749.218C100.365 745.898 97.1168 740.247 97.1168 733.834C97.1168 720.246 98.8091 707.875 100.324 696.804L100.389 696.329C101.957 684.86 103.318 674.715 103.318 663.777V640.425C103.318 639.442 103.303 638.258 103.287 636.957C103.268 635.385 103.247 633.641 103.246 631.867C101.672 630.321 100.369 628.749 99.3218 627.33C95.4681 622.11 92.6525 615.737 90.7264 611.36L90.066 609.857C88.1357 605.46 86.7563 602.318 85.2186 599.721C84.5925 598.664 84.1426 598.062 83.8947 597.758C74.9155 593.51 69.0152 587.114 64.9039 582.042C62.8397 579.496 61.412 577.599 60.2288 576.028C58.4809 573.705 57.2643 572.089 55.3185 570.135C54.0238 568.835 52.6764 567.597 50.9764 566.034L50.9579 566.017C50.4536 565.554 49.9183 565.062 49.3442 564.531C47.0346 562.397 44.2445 559.766 41.589 556.789C36.231 550.782 30.324 542.168 29.0196 530.378C27.4078 515.811 22.3653 501.977 16.3848 485.57L16.3832 485.566C15.7661 483.873 15.139 482.153 14.5047 480.401C8.0435 462.562 1.00279 441.813 1.00279 418.666C1.00279 409.99 0.769417 400.784 0.527838 391.253C-0.197683 362.632 -0.997243 331.089 4.22824 302.227C8.61363 278.005 10.3767 254.194 12.2473 228.932C12.6918 222.929 13.1423 216.845 13.6355 210.653C14.428 200.705 15.587 188.283 18.9514 176.448C22.3449 164.511 28.4113 151.574 40.144 141.933C43.82 138.913 46.8714 135.584 50.9506 131.134C51.4138 130.628 51.8903 130.109 52.3825 129.573C56.9191 124.637 62.613 118.596 70.1457 113.272C73.0336 111.231 75.8857 108.361 80.0858 103.938L80.7773 103.209C84.4588 99.3248 89.3309 94.1844 95.0144 89.9036C99.1468 86.7911 103.056 83.2417 107.707 78.9977L107.953 78.7726C112.34 74.7692 117.434 70.1198 123.091 65.8595C135.263 56.6917 147.698 49.0327 159.7 41.9241C162.731 40.1294 165.709 38.3832 168.65 36.659C177.588 31.4193 186.178 26.3836 194.804 20.8148C212.461 9.41566 233.546 7.04516 251.664 6.82558C260.931 6.71326 270.181 7.17521 278.577 7.62798L280.644 7.73991C286.313 8.0475 291.503 8.32909 296.333 8.45906C297.585 7.57801 298.782 6.88166 299.818 6.34056C304.019 4.14547 308.597 2.88972 312.565 2.09264C320.615 0.475093 330.14 -0.00977373 338.939 0.000148597C347.931 0.0102876 357.058 0.543662 364.691 1.27649ZM304.925 45.2417C303.838 45.4425 302.717 45.5473 301.572 45.5473C294.237 45.5473 286.358 45.1183 278.825 44.7081L276.601 44.5874C268.173 44.1329 260.025 43.7396 252.109 43.8355C235.86 44.0325 223.434 46.3324 214.734 51.949C205.378 57.9893 195.836 63.5822 186.741 68.9129C183.92 70.5666 181.139 72.1966 178.423 73.8054C166.712 80.7411 155.699 87.5654 145.204 95.4696C141.058 98.5926 137.141 102.149 132.493 106.39L132.23 106.63C127.849 110.628 122.765 115.268 117.128 119.514C114.011 121.861 111.076 124.935 106.758 129.482L106.632 129.614C102.774 133.677 97.5925 139.134 91.3561 143.541C87.2722 146.427 83.828 149.931 79.4652 154.677C79.0108 155.172 78.5406 155.686 78.0547 156.219C74.1849 160.456 69.3177 165.785 63.4826 170.58C59.6644 173.717 56.6185 178.775 54.3915 186.609C52.1353 194.545 51.1655 203.671 50.3742 213.605C49.9189 219.32 49.4936 225.086 49.0653 230.893L49.065 230.897C47.1911 256.304 45.2582 282.51 40.4898 308.848C36.0021 333.635 36.6484 359.461 37.3361 386.947C37.5945 397.275 37.8588 407.837 37.8588 418.666C37.8588 434.654 42.69 449.939 49.1408 467.75C49.7723 469.493 50.4237 471.271 51.0868 473.08L51.0938 473.099C56.8642 488.843 63.5144 506.987 65.6502 526.291C65.7685 527.361 66.2885 529.007 69.0417 532.093C70.4419 533.663 72.1285 535.288 74.3018 537.296C74.6816 537.647 75.0896 538.022 75.518 538.415C77.3044 540.055 79.446 542.021 81.3796 543.963C84.2221 546.818 86.5886 549.75 88.4995 552.215C89.3593 553.324 90.0577 554.244 90.6897 555.076L90.6931 555.081C91.6659 556.362 92.4821 557.436 93.4869 558.676C96.3884 562.255 98.1289 563.62 99.7758 564.355C108.603 568.295 113.853 575.664 116.897 580.804C119.673 585.492 122.017 590.86 123.778 594.894L123.781 594.9C124.01 595.424 124.229 595.925 124.437 596.399C126.053 600.07 127.183 602.426 128.074 603.962C131.841 605.057 134.93 607.283 137.078 609.856C139.605 612.882 140.5 615.92 140.828 617.22C141.484 619.827 141.399 621.972 141.379 622.479L141.378 622.51C141.325 623.873 141.126 624.963 141.079 625.221L141.075 625.243C140.942 625.975 140.781 626.63 140.723 626.865C140.624 627.268 140.471 627.851 140.36 628.279L140.262 628.654C140.208 628.863 140.162 629.044 140.123 629.201C140.075 631.189 140.1 633.035 140.13 635.181C140.151 636.72 140.174 638.415 140.174 640.425V663.777C140.174 677.447 138.475 689.864 136.957 700.963L136.902 701.365C135.332 712.843 133.973 722.955 133.973 733.834C133.973 737.035 133.164 740.046 131.74 742.672C198.591 753.921 262.557 762.901 329.252 762.901H397.752C404.026 762.901 410.546 762.239 418.271 761.439L418.529 761.412C424.75 760.768 431.766 760.042 439.006 759.837C438.79 756.537 438.412 753.092 437.928 749.942C436.848 742.908 434.063 708.084 433.959 675.769C433.907 659.638 434.508 642.941 436.622 630.176C437.632 624.077 439.255 617.071 442.37 611.297C443.955 608.359 446.64 604.38 451.112 601.399C456.19 598.014 462.43 596.712 468.71 598.111C483.243 601.348 499.67 601.938 516.024 600.513C524.101 599.809 532.31 596.28 542.741 590.568C544.68 589.506 546.768 588.321 548.973 587.069L548.989 587.06L548.993 587.058C557.396 582.288 567.511 576.547 577.654 572.916C614.965 559.56 648.45 520.038 669.635 482.29C674.707 473.252 677.707 463.345 679.994 451.976C681.143 446.264 682.076 440.386 683.049 434.074L683.338 432.202L683.338 432.198L683.34 432.187L683.341 432.18C684.211 426.529 685.135 420.523 686.249 414.493C690.076 393.78 692.952 369.827 693.738 349.366C694.207 337.139 694.053 325.225 693.893 312.803V312.799C693.809 306.33 693.724 299.723 693.724 292.863C693.724 287.653 693.965 282.236 694.212 277.1L694.312 275.059C694.533 270.531 694.745 266.19 694.844 261.864C695.077 251.736 694.611 243.524 692.842 237.144C691.575 232.573 690.576 227.647 689.696 223.181C689.552 222.447 689.41 221.723 689.27 221.007L689.269 221.002C688.514 217.149 687.808 213.544 686.98 209.969C684.923 201.097 682.743 195.537 680.324 192.42C678.599 190.197 676.739 188.058 674.563 185.598L673.833 184.772C671.921 182.615 669.72 180.13 667.617 177.538C664.275 173.417 660.87 168.66 657.973 162.891L657.876 162.814C650.942 157.288 644.45 151.31 638.536 145.865L638.234 145.587C632.065 139.907 626.513 134.811 620.809 130.294C618.757 128.669 615.656 125.878 613.605 124.032C612.77 123.281 612.109 122.685 611.763 122.389C609.37 120.338 608.225 119.715 607.698 119.511C604.877 118.418 601.882 117.286 598.772 116.111L598.767 116.109C587.069 111.689 573.758 106.66 562.092 100.781C553.746 96.575 546.392 90.7178 540.737 86.2137C540.349 85.905 539.97 85.6027 539.598 85.3078C533.143 80.18 528.65 76.8171 524.189 74.8189C521.16 73.4625 517.551 71.9412 513.638 70.2917C503.337 65.9499 490.929 60.7203 481.471 55.2729C477.955 53.248 472.958 52.2705 464.031 51.6478C462.925 51.5706 461.716 51.4995 460.425 51.4235C452.986 50.9856 442.808 50.3865 433.641 47.5437C426.042 45.1873 418.044 44.6413 407.735 44.1571C407.197 44.1319 406.651 44.1068 406.098 44.0814C396.743 43.6519 385.17 43.1205 373.648 39.8946C373.638 39.892 373.546 39.8674 373.356 39.8241C373.15 39.7772 372.871 39.718 372.513 39.6486C371.79 39.5087 370.856 39.3487 369.712 39.1774C367.422 38.8344 364.526 38.4808 361.205 38.1619C354.546 37.5225 346.579 37.0612 338.898 37.0525C331.026 37.0436 324.302 37.5159 319.752 38.43C319.193 38.5423 318.721 38.6509 318.329 38.7502C314.98 42.7025 310.095 45.0765 304.925 45.2417ZM151.274 322.037C150.739 322.316 150.203 322.619 149.668 322.947C137.642 330.33 136.471 343.54 136.471 351.575C136.471 352.826 136.422 354.582 136.363 356.674C136.194 362.699 135.947 371.508 136.574 379.032C137.4 388.943 140.05 404.617 152.301 414.736C157.431 418.973 164.578 422.67 173.218 422.062C181.864 421.454 188.131 416.807 192.065 412.476C199.231 404.585 202.998 393.099 205.169 384.115C206.404 379.006 207.356 373.664 208.046 368.419C211.434 365.694 214.369 361.982 216.176 356.952C219.108 348.789 217.559 340.4 216.545 335.555C215.076 328.532 210.542 324.247 207.086 322.046C205.837 321.25 204.586 320.624 203.4 320.129C202.48 318.329 201.379 316.472 200.071 314.739C195.074 308.118 187.591 303.602 177.898 303.03C173.638 302.779 168.893 303.416 164.322 305.745C159.701 308.1 156.439 311.583 154.277 315.153C152.905 317.419 151.946 319.766 151.274 322.037ZM436.23 415.764L436.259 415.888C438.536 425.841 443.699 434.304 451.495 439.804C459.189 445.231 468.201 446.873 476.507 445.494C493.305 442.707 507.233 427.722 507.233 407.013C507.233 400.78 507.101 386.278 504.446 372.964C503.147 366.448 500.941 358.562 496.749 351.866C492.314 344.78 484.165 337.021 471.719 337.021C461.755 337.021 452.34 339.883 445.025 346.891C438.039 353.584 435.077 362.068 433.716 369.028C432.359 375.973 432.265 383.151 432.372 389.028C432.432 392.303 432.529 394.812 432.617 397.076C432.721 399.74 432.811 402.067 432.811 404.906C432.811 408.96 434.079 412.71 436.23 415.764ZM266.87 480.89C269.669 478.151 272.829 476.175 275.969 474.736C276.306 472.476 276.822 469.896 277.707 467.352C275.458 468.234 272.998 468.701 270.426 468.657C260.025 468.48 251.738 460.018 251.917 449.755C251.956 447.555 251.945 445.321 251.933 442.873L251.932 442.752C251.92 440.337 251.908 437.683 251.965 435.061C252.074 430.007 252.444 423.729 254.156 417.658C255.942 411.321 259.511 404.082 266.772 398.688C273.967 393.344 282.529 391.489 291.023 391.489C295.527 391.489 304.335 391.999 311.014 398.698C317.602 405.305 317.608 413.391 317.461 416.274C321.014 421.132 322.18 426.409 322.673 429.298C323.473 433.987 323.479 438.853 323.326 442.765C323.17 446.778 322.796 450.785 322.507 453.874L322.501 453.938C322.167 457.516 322.023 459.238 322.023 460.076C322.023 462.362 321.889 466.157 320.499 469.998C320.191 470.851 319.738 471.941 319.07 473.138C319.515 474.762 319.914 476.486 320.259 478.27C322.245 481.15 323.404 484.613 323.404 488.339C323.404 491.082 322.776 493.682 321.652 496.012C321.517 499.009 321.15 502.202 320.381 505.33C319.427 509.213 317.288 515.383 311.811 520.177C298.536 531.797 281.272 527.813 272.25 522.089C267.286 518.939 261.586 513.457 259.498 505.342C257.102 496.028 260.455 487.166 266.87 480.89ZM139.939 630C139.939 630 139.948 629.942 139.975 629.819C139.954 629.937 139.939 630 139.939 630Z" fill="#1B1A1A"/>
</svg>
