<svg width="800" height="783" viewBox="0 0 800 783" fill="none" xmlns="http://www.w3.org/2000/svg">
<path fill-rule="evenodd" clip-rule="evenodd" d="M278.7 7.63635C275.036 6.98395 271.203 6.1935 267.146 5.3486L266.27 5.16621C262.061 4.28905 257.63 3.36564 253.171 2.55603C243.686 0.833944 233.416 -0.505349 223.403 0.185341C207.039 1.31403 192.363 7.04756 178.912 13.2778C176.032 12.7404 173.58 12.9089 172.093 13.0857C167.921 13.5812 163.86 15.1397 160.665 16.5396C150.844 20.8424 142.602 26.5639 135.394 32.6131C126.342 36.0294 117.15 39.0721 108.311 41.4428C106.487 41.9323 104.302 42.4682 101.964 43.0418C97.9962 44.0151 93.5866 45.0968 89.7441 46.2437C83.1742 48.2047 76.0641 50.91 69.7477 55.3829C63.8803 59.5378 60.7358 63.6865 58.5002 68.3593C57.7087 70.0138 57.0166 71.7795 56.443 73.243C56.3277 73.5374 56.217 73.8197 56.1113 74.0863C55.4263 75.8148 54.7331 77.4745 53.7827 79.3102C52.5784 81.6359 49.7619 84.2564 45.6483 87.346C41.5481 90.4255 39.6377 95.2645 38.6408 98.3213C37.4823 101.874 36.7063 105.873 36.1388 109.518C35.5834 113.085 35.174 116.685 34.8368 119.649L34.8014 119.96C34.4267 123.252 34.1813 125.269 33.9599 126.306C32.3571 133.815 30.7266 141.322 29.0947 148.835C22.48 179.289 15.8441 209.841 10.9473 241.049C2.89786 292.349 4.45034 346.112 5.9558 398.247C6.54317 418.588 7.12339 438.681 7.12339 458.283C7.12339 459.622 7.27064 461.384 7.3872 462.778L7.42752 463.263C7.50646 464.222 7.58146 465.171 7.63868 466.099C7.11619 466.266 6.59303 466.48 6.07417 466.746C3.67998 467.97 2.34844 469.796 1.67506 470.983C0.458055 473.128 0.201021 475.286 0.111419 476.149C-0.111355 478.296 0.0431791 480.679 0.199501 482.388C0.371487 484.267 0.626835 486.12 0.833626 487.481C1.04112 488.848 1.22482 489.876 1.22309 489.866C3.88787 505.673 5.07269 521.647 6.11891 538.049C6.23892 539.93 6.35716 541.819 6.47579 543.714L6.47614 543.719C7.38251 558.196 8.31157 573.036 10.2236 587.806C10.8956 592.997 11.4366 598.555 11.9954 604.297C13.1864 616.532 14.4588 629.605 17.2538 641.751C17.8785 644.465 17.7787 647.989 17.4525 652.945C17.4294 653.296 17.4039 653.663 17.3774 654.046C17.098 658.077 16.7052 663.746 17.8027 668.515C20.6809 681.022 28.3256 693.167 35.9171 703.691C39.2953 708.373 42.8508 712.98 46.1905 717.308L46.2665 717.406C46.7222 717.997 47.1737 718.582 47.6202 719.161C51.4234 724.097 54.8474 728.601 57.6575 732.768C63.4927 741.421 72.2064 751.113 82.7277 756.758C83.3729 757.104 84.0273 757.467 84.6966 757.838C89.3349 760.412 94.6919 763.384 102.683 763.87C102.694 763.878 102.715 763.89 102.744 763.909C102.993 764.061 103.907 764.623 105.753 766.475C106.344 767.068 106.934 767.688 107.61 768.397L107.673 768.464C108.345 769.168 109.111 769.972 109.896 770.75C111.377 772.219 113.474 774.167 116.029 775.606C120.33 778.029 125.117 779.187 129.96 778.349C134.796 777.513 138.588 774.875 141.223 771.708C143.297 769.214 144.773 766.283 145.671 763.179C149.558 765.575 154.626 768.56 160.744 770.189C167.542 772 173.43 769.733 176.669 768.431C177.291 768.18 177.842 767.957 178.331 767.759C181.131 766.625 181.921 766.305 182.792 766.28C187.423 766.148 191.919 766.191 196.618 766.236L196.632 766.237C199.08 766.26 201.584 766.284 204.19 766.284C211.546 766.284 218.532 768.32 226.824 771.064C227.55 771.304 228.291 771.551 229.044 771.803C236.462 774.282 245.122 777.176 254.461 778.035C270.835 779.54 287.339 780.594 304.082 780.594C306.482 780.594 308.923 780.613 311.399 780.633C329.115 780.772 348.589 780.926 367.159 774.143C368.739 775.204 370.641 775.824 372.689 775.824C381.589 775.824 390.064 777.413 399.654 779.228L399.817 779.259C409.122 781.02 419.469 782.979 430.73 782.979C443.968 782.979 457.073 782.375 469.923 781.782L470.06 781.776C483.029 781.178 495.742 780.594 508.53 780.594H546.95C554.422 780.594 561.609 779.315 567.861 778.181L568.405 778.082C574.703 776.939 580.061 775.967 585.37 775.82C598.347 775.462 610.921 773.15 622.688 770.987L624.651 770.627C637.24 768.319 649.022 766.284 661.112 766.284C662.672 766.284 664.434 766.32 666.312 766.358C670.647 766.446 675.601 766.547 680.101 766.248C686.987 765.791 694.585 764.386 701.808 760.151C704.02 758.855 706.14 757.848 708.65 756.657L708.662 756.651C709.594 756.209 710.58 755.741 711.644 755.223C715.321 753.434 719.545 751.21 723.621 747.904C725.451 746.419 726.95 744.578 727.948 743.301C728.486 742.613 729.02 741.901 729.49 741.273L729.514 741.241C730.012 740.576 730.453 739.989 730.89 739.428C731.631 738.478 732.177 737.849 732.583 737.441C733.894 737.335 735.51 737.551 738.204 738.165C738.558 738.246 738.948 738.339 739.37 738.439C742.316 739.141 746.8 740.21 751.479 740.043C756.973 739.847 761.386 736.968 764.235 734.459C767.258 731.796 769.769 728.465 771.534 725.197C773.148 722.21 774.861 717.947 774.642 713.536C774.524 711.172 773.782 707.825 771.082 705.035C768.25 702.109 764.644 701.21 761.69 701.21C748.46 701.21 735.342 702.424 722.678 703.596L722.672 703.597L722.237 703.637C717.4 704.085 712.624 704.525 707.881 704.901C708.232 704.598 708.579 704.291 708.923 703.981C710.993 702.116 713.063 701.241 718.193 700.607C719.121 700.492 720.368 700.383 721.852 700.252C727.179 699.782 735.565 699.043 743.234 696.848C744.166 696.581 746.007 696.01 748.011 694.884L748.04 694.867C749.151 694.244 755.467 690.698 757.305 682.482C757.707 680.683 757.838 678.999 757.77 677.436C758.359 676.902 758.872 676.383 759.31 675.906C761.502 673.515 762.986 670.928 764.001 668.743C766.043 664.35 767.239 659.303 767.854 654.174C768.042 652.601 768.329 650.567 768.664 648.188L768.665 648.182C769.159 644.679 769.759 640.425 770.306 635.79V692.01C770.306 697.466 774.742 701.89 780.214 701.89C785.685 701.89 790.121 697.466 790.121 692.01V408.331C790.121 399.415 791.772 390.526 793.654 380.568L793.724 380.197C795.53 370.641 797.53 360.059 797.53 349.105V261.523C797.53 247.911 798.135 234.05 798.754 219.881L798.756 219.837C799.372 205.728 800 191.319 800 176.989C800 155.274 794.407 124.931 779.604 105.438C771 94.1087 766.337 75.3689 762.564 58.976C760.9 51.7451 755.881 47.0584 750.95 44.1155C746.082 41.2103 740.347 39.4025 735.131 38.1425C729.885 36.8752 724.447 36.003 719.928 35.2781L719.803 35.258C714.919 34.4744 711.58 33.9194 709.496 33.3002C695.87 29.2518 680.905 29.0123 666.991 29.5041C661.946 29.6824 657.12 29.9475 652.462 30.2034C643.654 30.6872 635.45 31.1379 627.511 30.9056C626.599 30.879 625.687 30.8528 624.773 30.8266C608.383 30.3561 591.704 29.8774 577.179 26.5192C575.676 26.1717 574.218 25.8218 572.787 25.4781L572.783 25.4772C563.017 23.1333 554.461 21.0795 541.021 22.0498C509.773 24.3058 478.49 24.1386 446.769 23.9691C438.346 23.9241 429.892 23.879 421.399 23.879C417.215 23.879 413.072 23.8953 408.951 23.9115C400.797 23.9436 392.731 23.9753 384.606 23.8797C364.705 23.6453 345.795 20.6071 326.477 16.8684C310.908 12.6019 294.887 9.19449 278.7 7.63635ZM224.69 19.9035C213.949 20.6563 204.371 23.7601 194.554 27.9661C195.642 32.4019 194.943 36.1549 194.463 38.056C194.393 38.3362 194.318 38.6107 194.24 38.879C201.473 36.0999 208.86 33.9572 216.231 32.5015C216.324 32.2443 216.421 31.9897 216.522 31.7377C218.475 26.8471 221.388 22.9732 224.69 19.9035ZM102.316 63.308C100.07 63.8678 97.8265 64.4571 95.4255 65.1737C89.7351 66.8722 84.9845 68.8279 81.2195 71.494C78.1412 73.6739 77.1859 75.1905 76.3834 76.8679C75.9282 77.8193 75.5513 78.7776 74.9927 80.1979C74.8539 80.5508 74.7038 80.9322 74.5386 81.3491C73.7625 83.3073 72.787 85.6748 71.3883 88.3762C68.0633 94.7975 62.2162 99.6058 58.178 102.67C58.0473 102.929 57.7966 103.473 57.4836 104.433C57.1518 105.45 56.8415 106.644 56.5512 107.986C61.9421 100.005 68.2628 93.1041 74.673 86.9772C81.3861 80.5608 88.5928 74.633 95.1548 69.2353L95.8502 68.6633C98.0809 66.8281 100.236 65.0516 102.316 63.308ZM40.1026 192.175C36.5547 209.404 33.2645 226.633 30.5233 244.103C27.5843 262.834 25.9718 281.782 25.1836 300.893C27.7801 274.619 33.8648 251.504 40.7505 225.989L40.7634 225.941C40.8303 224.652 40.8666 223.506 40.8666 222.487C40.8666 215.306 40.6446 208.781 40.4102 201.889C40.3037 198.759 40.1946 195.553 40.1026 192.175ZM37.5235 647.607C37.5006 650.04 37.3512 652.31 37.2242 654.238C36.8668 659.668 36.725 662.401 37.1149 664.095C39.0426 672.472 44.5922 681.88 52.0014 692.151C55.1771 696.553 58.5203 700.885 61.8751 705.233L63.3312 707.121C64.8045 709.033 66.2789 710.954 67.7197 712.869C70.3107 709.433 73.3667 707.873 74.2137 707.445C74.8281 707.135 75.4279 706.876 75.9881 706.662C72.915 705.165 70.8829 703.206 69.9771 702.253C69.3756 702.083 68.814 701.918 68.2963 701.758C67.2355 701.431 65.2396 700.795 63.3186 699.826L63.2602 699.797C62.6839 699.512 59.4913 697.933 56.8333 694.646C55.2827 692.728 52.1886 688.074 52.7251 681.39C52.8937 679.29 53.381 677.43 54.0515 675.8C52.0769 672.467 50.0564 668.881 48.1559 665.23C47.4236 663.824 46.6697 662.335 45.9185 660.785C42.0009 657.667 39.9547 653.793 38.8876 651.335C38.3579 650.115 37.9085 648.864 37.5235 647.607ZM103.625 744.13C103.75 744.139 103.877 744.147 104.007 744.154C108.536 744.397 112.282 746.333 115.146 748.434C114.94 747.199 114.949 745.774 115.378 744.208C115.383 744.191 115.388 744.174 115.393 744.156C114.825 744.179 114.309 744.192 113.871 744.202C111.841 744.248 109.491 744.242 107.075 744.204C105.958 744.186 104.802 744.161 103.625 744.13ZM144.171 739.956C147.746 741.385 150.776 743.126 153.414 744.724C154.122 745.152 154.789 745.56 155.423 745.948C159.552 748.474 162.291 750.149 165.857 751.099C165.866 751.101 165.881 751.106 165.933 751.107C165.995 751.107 166.14 751.103 166.4 751.054C166.998 750.943 167.824 750.682 169.256 750.106C169.519 750 169.833 749.866 170.193 749.714L170.201 749.71C172.694 748.651 177.366 746.666 182.228 746.528C186.335 746.412 190.563 746.424 194.681 746.457C189.225 744.526 183.908 742.385 178.744 740.126C176.373 739.088 174.01 738.013 171.659 736.911C162.459 737.73 153.295 738.733 144.171 739.956ZM243.603 755.715C247.933 757.002 252.026 757.967 256.281 758.358C272.302 759.832 288.156 760.834 304.082 760.834C306.475 760.834 308.827 760.845 311.14 760.855C334.2 760.957 353.431 761.043 370.878 750.586C381.146 744.432 392.409 742.296 403.053 741.614C401.722 741.215 400.458 740.793 399.281 740.341C399.135 740.285 398.984 740.227 398.829 740.165C398.605 740.076 398.372 739.981 398.132 739.88C384.883 741.515 371.497 743.435 357.892 745.385L357.876 745.388L355.43 745.738C319.355 750.909 281.734 756.187 243.603 755.715ZM656.629 726.93C656.625 726.963 656.622 726.997 656.619 727.03C656.36 729.514 655.294 731.356 654.461 732.473C652.958 734.489 650.971 735.785 649.781 736.507C648.349 737.375 646.625 738.246 644.678 739.141C627.473 747.053 607.844 748.694 589.451 749.031C582.956 749.149 576.709 749.114 570.672 749.08C558.835 749.012 547.804 748.95 537.294 750.064C531.286 750.701 525.421 751.78 519.135 752.937C517.362 753.263 515.553 753.596 513.7 753.927C505.524 755.385 496.712 756.744 487.537 756.744C480.143 756.744 472.809 757.752 464.776 758.918L463.701 759.074C456.174 760.169 447.966 761.362 439.552 761.512C434.615 761.601 429.53 761.453 424.663 761.312L422.988 761.263C418.633 761.14 414.432 761.041 410.333 761.104C417.235 762.318 423.826 763.219 430.73 763.219C443.482 763.219 456.176 762.635 469.145 762.037L469.226 762.033C482.095 761.44 495.237 760.834 508.53 760.834H546.95C552.388 760.834 557.906 759.903 564.315 758.74L565.351 758.552C571.235 757.481 577.955 756.257 584.822 756.068C596.219 755.754 607.41 753.699 619.556 751.47L621.07 751.192C633.541 748.906 646.982 746.524 661.112 746.524C663.572 746.524 665.796 746.572 667.896 746.618C671.718 746.701 675.127 746.775 678.785 746.532C684.015 746.185 688.206 745.204 691.767 743.117C694.794 741.342 698.016 739.815 700.72 738.533C701.173 738.318 701.614 738.109 702.035 737.908C702.352 737.756 702.659 737.608 702.955 737.465C706.24 735.866 708.83 734.431 711.118 732.575C711.113 732.579 711.115 732.576 711.127 732.564C711.195 732.497 711.555 732.133 712.32 731.154C712.425 731.019 712.532 730.881 712.642 730.738C712.784 730.552 712.931 730.359 713.084 730.156L713.216 729.981C713.352 729.8 713.494 729.61 713.643 729.412C714.122 728.772 714.676 728.033 715.249 727.298C716.052 726.268 717.047 725.044 718.198 723.851C707.179 724.846 695.769 725.739 684.164 725.739C683.026 725.739 680.876 725.666 678.281 725.577L678.272 725.577C676.685 725.522 674.933 725.462 673.146 725.41C670.457 725.331 667.515 725.263 664.52 725.234C661.885 725.864 659.248 726.427 656.629 726.93ZM407.147 43.6787C411.546 45.1548 415.889 46.5691 420.183 47.902C421.035 46.4158 421.999 44.9897 423.066 43.6393C422.511 43.6389 421.955 43.6387 421.399 43.6387C417.384 43.6387 413.326 43.6546 409.245 43.6705C408.547 43.6733 407.846 43.676 407.147 43.6787ZM544.314 41.644C546.867 42.4547 549.43 43.2451 552.003 44.0174C553.844 43.9741 556.198 43.9326 558.672 43.9021C560.519 43.8792 562.566 43.8604 564.585 43.8539C557.465 42.1997 552.211 41.2516 544.314 41.644ZM755.472 103.117C748.307 110.795 738.222 111.974 733.102 112.209C732.496 112.237 731.886 112.254 731.273 112.262C735.455 116.248 739.396 120.324 743.056 124.571C743.519 123.56 744.369 121.942 745.752 120.282C747.113 118.647 752.538 112.972 761.158 113.584C759.042 110.316 757.158 106.786 755.472 103.117ZM778.873 159.072C778.561 164.591 777.641 169.812 776.343 174.727C776.888 181.388 777.556 188.305 778.24 195.378L778.243 195.406C778.641 199.528 779.045 203.705 779.432 207.913C779.855 197.51 780.186 187.208 780.186 176.989C780.186 171.347 779.752 165.248 778.873 159.072ZM777.716 320.385C777.578 320.703 777.435 321.02 777.287 321.336C776.379 323.276 775.104 325.567 773.309 327.814C773.861 328.882 774.385 330.026 774.59 330.576C775.072 331.965 775.274 333.104 775.328 333.407L775.329 333.415C775.471 334.216 775.528 334.859 775.542 335.017L775.543 335.025C775.558 335.189 775.568 335.334 775.576 335.448L775.586 335.612C775.611 336.021 775.62 336.396 775.623 336.539C775.63 336.835 775.635 337.185 775.639 337.558L775.643 337.963C775.651 339.044 775.653 340.55 775.645 342.295C775.636 344.375 775.612 346.861 775.565 349.441C775.584 351.743 775.619 354.11 775.654 356.535C775.71 360.303 775.767 364.21 775.772 368.222C776.905 361.619 777.716 355.372 777.716 349.105V320.385ZM770.306 417.817C768.637 423.769 766.474 429.677 763.675 435.457C762.314 438.269 760.883 440.901 759.348 443.207C758.125 445.044 756.28 447.534 753.682 449.722C753.571 450.504 753.441 451.378 753.292 452.31C754.944 457.724 755.216 463.396 755.125 468.254C755.086 470.293 754.966 472.29 754.77 474.245C756.326 474.45 757.996 474.857 759.713 475.566C763.653 477.194 767.123 480.147 769.338 484.202C769.714 484.891 770.034 485.575 770.306 486.246V417.817ZM770.306 503.735C768.828 508.673 766.365 513.046 763.563 516.819C765.628 521.371 768.456 528.486 768.73 536.173C769.298 552.108 768.856 568.156 767.19 584.13C767.484 584.844 767.758 585.556 768.011 586.263C768.993 589.004 769.742 591.831 770.306 594.676V503.735ZM733.044 737.028C733.044 737.028 733.025 737.044 732.992 737.066C733.028 737.037 733.044 737.028 733.044 737.028ZM277.225 67.8538C278.298 67.7625 279.614 67.6815 281.111 67.6099C281.836 71.0772 282.761 74.5138 283.682 77.6279C284.491 80.3672 285.443 83.298 286.405 86.1302C285.887 87.7161 285.571 89.3372 285.447 90.9482C285.296 92.912 285.433 94.7414 285.737 96.4004C274.973 95.5958 264.113 95.066 253.181 94.9742C256.384 91.1524 259.219 86.8541 261.264 82.0747C262.15 80.0063 263.271 76.421 262.707 71.9589C262.677 71.7227 262.643 71.4883 262.605 71.2558C264.373 70.8223 266.219 70.3496 267.874 69.9258C269.14 69.6016 270.296 69.3057 271.219 69.078C274.528 68.2613 276.323 67.9305 277.225 67.8538ZM486.618 64.0492C495.343 65.3969 504.105 67.7417 512.939 70.4501C504.745 68.8897 496.468 67.4745 488.12 66.297C484.881 65.8402 481.148 65.4877 477.725 65.1645L477.71 65.1631C476.987 65.0949 476.279 65.028 475.592 64.9617L475.004 64.9046C474.685 64.7171 474.385 64.5454 474.106 64.3889C473.2 63.879 472.265 63.391 471.314 62.924C476.102 62.8158 481.2 63.2122 486.618 64.0492ZM319.189 67.0432L319.112 67.0513L319.132 67.1201C319.333 67.8002 319.535 68.4692 319.738 69.127C327.45 68.524 335.29 68.6571 342.63 69.0805C338.541 68.3422 334.508 67.8009 330.534 67.4824C329.223 67.3774 327.324 67.1687 325.51 66.9693C324.668 66.8768 323.841 66.7859 323.104 66.7087C322.667 66.6631 322.228 66.6182 321.788 66.5747C320.43 66.9206 319.309 67.0313 319.198 67.0423L319.189 67.0432ZM284.144 696.726C281.39 696.695 278.633 696.668 275.874 696.646C274.666 695.047 273.381 693.88 272.37 693.091L273.527 693.449C277.065 694.542 280.605 695.636 284.144 696.726ZM221.243 677.788C233.427 681.205 245.649 684.878 257.892 688.63L257.52 688.611C251.273 688.298 240.583 688.409 228.141 688.803C226.061 688.494 223.968 688.226 222.017 688.059C216.841 687.618 211.748 687.214 206.72 686.816L206.682 686.813C198.58 686.171 190.648 685.542 182.814 684.792C177.702 683.884 172.562 682.939 167.351 681.98L167.23 681.958C164.856 681.521 162.466 681.082 160.058 680.642C180.704 680.349 201.184 679.11 221.243 677.788ZM516.063 687.076C515.615 688.871 514.951 690.422 514.198 691.746C523.834 691.543 533.561 691.401 543.401 691.401C552.209 691.401 560.913 691.38 569.518 691.271C551.212 684.917 533.088 678.949 514.362 673.733C516.112 676.973 517.417 681.653 516.063 687.076ZM713.482 174.836C713.026 177.417 712.47 180.242 711.827 183.124C710.352 179.359 708.956 175.537 707.626 171.877L707.247 170.833C706.655 169.202 706.043 167.515 705.43 165.871C705.587 165.709 705.742 165.545 705.896 165.378C707.703 163.41 709.032 161.286 710.004 159.174C711.504 158.496 713.086 157.647 714.639 156.577L714.641 156.686L714.641 156.719C714.66 157.923 714.688 158.971 714.715 159.958V159.961C714.77 161.96 714.818 163.703 714.76 165.96C714.76 165.942 714.76 165.938 714.759 165.95C714.758 165.959 714.756 165.979 714.754 166.01C714.735 166.23 714.67 166.997 714.481 168.445C714.26 170.135 713.926 172.325 713.482 174.836ZM657.322 163.604C659.602 163.711 661.877 163.795 664.146 163.855C664.752 165.177 665.331 166.424 665.868 167.571C664.746 167.35 663.6 167.162 662.43 167.011C661.454 166.885 660.475 166.772 659.497 166.676C658.794 165.497 658.041 164.471 657.322 163.604ZM172.464 202.646C175.253 199.867 178.101 197.028 180.962 194.133C182.045 202.335 187.865 206.865 190.274 208.42C191.511 209.218 192.762 209.853 193.94 210.362C181.186 216.525 168.723 223.79 156.625 232.382C157.113 232.035 148.422 237.87 142.041 242.899C140.374 244.214 138.611 245.667 137.023 247.125C135.741 248.301 133.418 250.507 131.609 253.266C131.093 254.052 129.794 256.078 128.951 258.999C128.378 259.443 127.832 259.854 127.286 260.242C128.772 257.213 130.229 254.21 131.667 251.243C139.19 237.762 149.882 225.567 162.447 212.713C165.636 209.451 169.005 206.094 172.464 202.646ZM101.245 342.286C104.847 325.578 109.587 307.561 115.34 290.453C115.481 290.727 115.631 291.001 115.791 291.276C116.61 292.692 117.562 293.935 118.609 295.014C116.47 297.823 114.997 300.902 114.069 303.002C111.8 308.135 109.696 314.724 107.961 320.684C106.169 326.843 104.534 333.172 103.284 338.128C102.925 339.553 102.565 340.994 102.253 342.245C102.046 343.074 101.859 343.819 101.708 344.421C101.362 345.798 101.181 346.486 101.114 346.739C101.088 346.838 101.08 346.87 101.086 346.85C100.779 347.83 100.591 348.683 100.478 349.252C100.445 349.418 100.414 349.579 100.386 349.736C100.073 349.896 99.7591 350.067 99.4453 350.248C100.073 347.573 100.679 344.909 101.245 342.286ZM162.393 280.764L162.891 280.235C167.119 278.781 171.055 277.131 174.625 275.554C175.389 275.217 176.124 274.889 176.834 274.57C183.336 272.321 189.84 269.86 195.885 267.573C201.23 265.55 206.217 263.663 210.527 262.179C223.626 257.668 235.917 254.635 249.946 254.635C264.573 254.635 278.276 250.606 289.215 247.39L289.872 247.197C301.809 243.689 310.828 241.127 319.792 240.998C351.694 240.542 381.649 241.655 413.872 244.107C415.418 245.122 416.757 245.685 417.48 245.969C419.201 246.644 420.729 246.968 421.645 247.136C423.514 247.477 425.457 247.617 427.13 247.694C428.944 247.779 431.128 247.817 433.734 247.817C462.331 247.817 490.897 248.892 519.72 250.442C519.584 250.435 519.895 250.494 523.159 250.897C525.562 251.194 528.821 251.561 532.216 251.746C535.422 251.921 539.681 251.994 543.809 251.36C545.874 251.042 548.694 250.435 551.608 249.101C553.048 248.442 554.858 247.443 556.674 245.958L556.838 246.038C557.357 246.292 557.945 246.581 558.727 246.956C560.195 247.661 562.226 248.608 564.412 249.39L564.432 249.398L564.628 249.471C564.807 249.539 565.044 249.629 565.34 249.742C565.932 249.968 566.695 250.262 567.585 250.605L568.965 251.138C570.445 251.709 572.117 252.355 573.752 252.983C575.91 253.811 578.097 254.644 579.775 255.264C580.588 255.565 581.427 255.869 582.127 256.107C582.423 256.207 582.992 256.398 583.619 256.573L583.63 256.576C583.856 256.639 584.682 256.87 585.725 257.042L585.741 257.045C586.129 257.109 587.648 257.36 589.588 257.273C589.872 257.261 590.312 257.236 590.871 257.172C593.456 258.886 596.652 260.778 599.929 261.998C606.361 264.39 612.949 266.326 618.807 268.047C619.738 268.32 620.65 268.588 621.54 268.852C628.333 270.863 634.211 272.713 639.686 275.082C640.415 275.398 641.652 276.051 643.851 277.33C644.191 277.528 644.565 277.747 644.964 277.981C645.158 278.095 645.358 278.213 645.563 278.334C647.228 279.313 649.236 280.495 651.118 281.538C651.518 281.759 651.951 281.998 652.414 282.249C654.061 284.518 655.976 286.72 657.537 288.438C661.274 292.554 665.557 296.685 666.8 297.774C677.33 307.001 692.871 319.097 707.206 327.73C707.431 329.073 707.659 330.497 707.901 332.012L707.977 332.49C708.817 337.767 709.846 344.234 711.754 350.904C711.679 352.18 711.617 353.484 711.566 354.786C710.746 355.483 710.067 356.181 709.52 356.813C706.679 360.097 705.733 363.519 705.473 364.468C705.076 365.917 704.892 367.203 704.794 368.048C704.593 369.775 704.543 371.58 704.543 373.222C704.543 377.61 704.615 381.683 704.682 385.515C704.904 398.158 705.08 408.175 702.488 418.19C702.13 419.574 701.519 422.114 701.483 424.933C701.467 426.143 701.488 429.516 703.177 433.287C704.397 436.013 706.547 438.92 709.625 441.08C708.94 441.552 708.295 442.014 707.693 442.457C703.227 445.742 698.73 449.777 694.564 453.763C683.448 464.401 661.403 485.794 645.11 502.227C637.156 510.249 629.977 517.683 626.306 522.044C625.48 523.024 624.156 524.633 623.084 526.371L623.053 526.42C622.842 526.754 621.869 528.294 621.094 530.562C618.882 530.945 617.269 531.259 616.789 531.38C602.046 535.097 587.645 539.786 573.934 544.249L573.912 544.256C572.097 544.847 570.295 545.434 568.506 546.014C562.195 548.059 556.007 550.035 549.872 551.872C547.784 552.079 545.694 552.282 543.602 552.483C538.603 552.269 533.798 552.007 529.221 551.758L529.218 551.758C521.616 551.345 514.642 550.965 508.446 550.893C497.067 550.761 485.63 550.584 474.151 550.407L474.127 550.406C434.679 549.797 394.731 549.179 354.92 550.332C354.337 550.348 353.241 550.353 351.802 550.359H351.795C347.717 550.377 340.891 550.406 335.195 550.755C330.931 551.017 326.184 551.483 321.592 552.378C317.332 553.208 312.045 554.619 307.206 557.353C280.336 551.385 253.783 544.777 226.97 538.104L226.967 538.103L226.951 538.099C211.221 534.185 195.401 530.248 179.374 526.404C172.551 524.768 155.973 522.825 141.172 523.447C140.645 513.567 139.944 503.686 139.019 493.821C137.178 474.194 134.075 454.802 131.07 436.021C130.32 431.33 129.575 426.677 128.858 422.068C128.335 418.707 127.75 415.449 127.162 412.17L127.161 412.161C126.807 410.187 126.451 408.204 126.107 406.188C126.489 405.217 126.886 404.217 127.297 403.188C128.968 399.006 130.962 394.147 133.073 389.002L133.075 388.996C136.112 381.595 139.391 373.603 142.303 366.183C147.353 353.314 152.299 339.722 154.957 328.475C156.255 322.986 157.326 316.787 157.087 310.969C156.925 307.009 155.945 298.984 149.978 292.876C154.667 289 158.587 284.821 161.664 281.54L162.393 280.764ZM654.35 241.094C654.002 240.943 653.654 240.794 653.306 240.648C653.966 240.547 654.634 240.417 655.304 240.254C657.431 239.737 661.23 238.494 664.687 235.198C665.293 234.62 665.855 234.011 666.372 233.375C669.156 234.787 671.918 235.981 674.472 236.77C682.208 239.159 693.191 241.217 702.085 242.225C700.073 242.844 695.893 244.547 692.668 248.909C690.61 251.691 689.334 255.054 689.082 258.62C687.947 257.114 686.836 256.094 686.241 255.575C683.614 253.283 680.634 251.874 679.037 251.186C677.079 250.342 674.327 249.366 671.236 248.893C670.388 248.764 669.31 248.639 668.068 248.608C666.978 247.99 665.929 247.372 664.778 246.695L664.775 246.693C664.042 246.262 663.269 245.806 662.418 245.311C660.198 244.02 657.288 242.365 654.35 241.094ZM144.478 623.92C143.855 623.848 143.227 623.786 142.593 623.735L142.602 622.129C142.622 618.111 142.643 614.083 142.661 610.046C146.875 612.96 150.82 616.374 155.603 620.513C155.975 620.835 156.352 621.162 156.735 621.492C156.939 621.669 157.145 621.846 157.352 622.025C157.741 623.337 158.082 624.57 158.406 625.793C153.749 625.082 149.104 624.454 144.478 623.92ZM202.448 608.873C198.353 607.207 194.135 604.405 189.107 600.382C188.497 598.721 187.863 597.063 187.206 595.411C190.248 595.387 193.277 595.359 196.295 595.332L196.439 595.331C209.792 595.21 222.933 595.092 235.96 595.252C236.513 595.389 237.065 595.529 237.619 595.669C236.825 596.064 236.023 596.518 235.229 597.041C230.996 599.827 226.282 605.195 225.885 613.155C225.816 614.525 225.887 615.819 226.057 617.03C217.908 614.634 210.024 611.956 202.448 608.873ZM583.016 656.768C573.033 653.296 562.981 649.891 552.801 646.632C553.387 643.571 553.18 640.675 552.576 638.21C551.442 633.581 548.912 630.373 547.321 628.667C553.231 629.526 560.033 630.488 566.913 631.279C567.442 633.291 568.272 635.133 569.292 636.747C572.664 642.087 577.617 644.273 579.352 644.995C581.737 645.986 584.186 646.598 586.29 647.019C587.529 647.267 588.758 647.542 589.985 647.841C589.832 647.995 589.68 648.151 589.527 648.308C587.858 650.029 585.016 653.1 583.016 656.768ZM594.695 588.505C599.419 588.008 604.143 587.354 608.792 586.504C609.612 587.84 610.572 589.025 611.611 590.051C610.088 589.718 608.838 589.559 608.148 589.472C605.363 589.121 598.259 588.785 601.165 589.009C599.158 588.854 597.143 588.697 595.119 588.538L594.695 588.505Z" fill="#FFD43E"/>
<path fill-rule="evenodd" clip-rule="evenodd" d="M121.72 329.76C101.386 350.595 85.8545 379.846 88.8936 419.66C92.7596 470.305 130.263 492.203 144.472 500.499C144.977 500.794 145.453 501.072 145.896 501.333C157.168 507.97 169.349 514.677 182.244 520.875C203.105 535.181 225.862 544.684 251.399 547.368C254.358 547.882 257.38 548.146 260.435 548.146H266.372C269.017 548.146 274.38 548.558 278.693 548.898C279.122 548.932 279.623 548.971 280.077 549.004L280.093 549.005C280.262 549.018 281.515 549.112 282.838 549.149C283.177 549.159 284.391 549.194 285.927 549.144C286.576 549.123 288.432 549.057 290.783 548.75C291.315 548.681 292.113 548.569 293.11 548.39C300.946 548.95 309.772 550.442 321.702 552.563C322.154 552.643 322.61 552.724 323.072 552.806C336.796 555.25 355.139 558.516 374.424 558.516C387.734 558.516 400.021 559.754 414.795 561.244C422.703 562.041 431.324 562.91 441.196 563.699C466.47 565.72 497.253 566.727 528.479 558.355C552.098 552.021 576.534 540.258 595.207 531.269C601.093 528.436 606.406 525.878 610.941 523.853C612.556 523.132 614.862 522.15 617.598 520.986C624.896 517.881 635.25 513.475 643.679 509.242C656.562 502.772 672.592 493.284 686.255 478.699C692.696 471.824 702.768 460.993 708.825 445.42C714.803 430.048 715.079 414.872 714.84 402.679C714.603 390.603 711.627 378.46 706.288 367.485C707.265 360.277 707.725 352.854 707.725 345.26C707.725 314.769 695.195 290.931 674.864 275.188C657.778 255.93 636.492 242.725 616.472 234.084C592.722 223.833 567.324 218.496 545.227 218.049C512.344 217.384 478.185 218.708 445.872 219.961C430.034 220.575 414.64 221.172 400.057 221.509C370.965 222.181 343.743 229.046 320.886 235.616C313.67 237.69 307.042 239.678 300.794 241.552C285.534 246.128 272.537 250.026 258.752 252.852C231.353 258.469 207.486 270.692 189.26 280.027C187.547 280.905 185.884 281.756 184.272 282.575C183.688 282.716 182.929 282.887 181.749 283.146C181.588 283.181 181.415 283.219 181.23 283.26C179.985 283.532 178.233 283.916 176.496 284.328C169.204 286.059 151.725 290.379 136.984 304.97C129.102 312.771 124.449 321.533 121.72 329.76ZM185.25 282.319C185.251 282.319 185.218 282.33 185.148 282.35C185.214 282.329 185.248 282.319 185.25 282.319ZM276.989 548.608C277.014 548.611 277.038 548.614 277.06 548.617C277.348 548.655 277.281 548.65 276.989 548.608Z" fill="white"/>
<path fill-rule="evenodd" clip-rule="evenodd" d="M447.027 254.558L447.022 254.557C435.572 253.392 418.01 251.605 400.587 251.96C387.505 252.226 368.896 253.662 350.773 260.894C343.543 256.781 335.174 254.431 326.255 254.431C298.895 254.431 276.715 276.544 276.715 303.822C276.715 307.027 276.647 310.283 276.532 313.658C262.76 330.615 261.923 354.548 274.02 372.353C273.964 380.897 274.176 389.739 274.863 398.6C277.739 435.685 289.849 482.551 335.585 512.365C335.931 512.592 336.313 512.843 336.728 513.116C341.755 516.422 351.64 522.923 363.103 526.846C378.419 532.088 394.344 532.445 410.738 527.905C413.663 527.095 418.665 526.408 428.312 525.927C430.214 525.832 432.475 525.742 434.978 525.643C442.661 525.337 452.626 524.94 461.513 524.033C486.25 521.508 525.258 513.34 549.072 474.488C574.162 433.555 572.748 382.227 557.406 342.446C541.883 302.195 506.43 260.485 450.237 254.882C449.231 254.782 448.158 254.673 447.027 254.558Z" fill="#1B1A1A"/>
</svg>
