<svg width="800" height="663" viewBox="0 0 800 663" fill="none" xmlns="http://www.w3.org/2000/svg">
<path fill-rule="evenodd" clip-rule="evenodd" d="M293.341 65.6778C292.313 66.5083 291.33 67.3913 290.392 68.3284C280.024 78.6858 272.747 91.0679 266.41 105.165C266.132 105.781 265.859 106.396 265.589 107.009C266.346 107.054 267.138 107.164 267.955 107.36C269.955 101.923 271.984 96.5546 274.019 91.2675C274.496 90.029 275.153 88.5309 276.073 87.0649C276.821 85.8732 278.668 83.168 282.106 81.3806C282.636 81.105 283.177 80.8652 283.725 80.6608C284.732 78.9874 285.757 77.3137 286.789 75.6625C288.899 72.2862 291.115 68.8788 293.341 65.6778ZM248.405 80.3727C254.337 69.4036 261.615 58.7519 271.239 49.1365C273.42 46.958 275.701 44.9828 278.067 43.1952C264.502 51.4846 252.535 63.3751 242.797 77.2027C243.782 77.5836 244.752 78.0396 245.703 78.5761C246.674 79.1239 247.573 79.7269 248.405 80.3727ZM193.105 226.209C191.735 242.652 191.016 259.19 190.7 275.815C190.717 275.712 190.733 275.609 190.75 275.506C192.822 262.806 194.679 251.08 195.052 239.336C195.181 235.288 195.524 231.177 196.047 227.029C195.089 226.86 194.104 226.595 193.105 226.209ZM171.829 428.262C167.724 425.932 164.955 421.519 164.955 416.46C164.955 397.762 164.574 378.686 164.188 359.391C163.083 304.193 161.943 247.2 169.598 192.139C176.139 145.092 190.491 109.28 215.332 69.5743C233.864 39.9511 262.852 13.2563 299.835 5.69881C328.867 -0.233645 357.506 -0.0943649 385.232 0.0404682C389.342 0.0604554 393.431 0.0803443 397.499 0.0803443C453.03 0.0803443 506.264 18.8392 549.41 52.3646C551.101 53.6788 552.813 55.0027 554.539 56.3383C563.715 63.4382 573.315 70.8654 582.604 78.8925C584.8 80.3802 586.659 82.0587 588.226 83.866C592.2 87.4698 596.087 91.1977 599.827 95.072C610.592 106.225 617.815 118.918 623.626 131.313C626.525 137.497 629.146 143.773 631.641 149.772L631.937 150.486C634.36 156.311 636.67 161.868 639.167 167.296C652.118 195.457 658.818 227.06 662.691 256.36C663.025 258.88 663.348 261.379 663.668 263.857C665.597 278.765 667.428 292.926 670.782 306.7C672.27 312.813 672.558 319.003 672.777 323.717C672.797 324.143 672.816 324.557 672.836 324.959C673.097 330.328 673.408 333.942 674.393 337.09C678.686 350.812 678.944 366.512 678.422 380.622C678.181 387.145 677.802 393.077 677.446 398.661C676.96 406.257 676.516 413.21 676.516 420.134C676.516 428.62 677.213 436.931 677.972 445.839L678.003 446.21C678.739 454.838 679.525 464.068 679.525 473.576C679.525 474.72 679.609 476.968 679.73 480.207C679.801 482.141 679.887 484.428 679.975 487.043C680.199 493.701 680.417 501.913 680.368 509.919C680.32 517.781 680.015 526.029 679.061 532.54C678.604 535.66 677.87 539.353 676.465 542.603C675.607 544.586 671.55 553.271 661.459 553.271C646.418 553.271 635.463 548.323 626.221 543.121C623.636 541.665 621.311 540.284 619.117 538.981C613.145 535.433 608.141 532.459 601.488 530.133C587.738 525.325 572.185 524.572 554.536 524.682C551.438 524.701 548.25 524.749 544.997 524.799C530.534 525.017 514.793 525.254 499.997 523.064C473.601 519.157 446.915 519.546 419.121 519.95C410.469 520.076 401.71 520.204 392.819 520.204C378.688 520.204 364.698 519.438 351.108 518.694L350.86 518.681C337.073 517.926 323.687 517.198 310.237 517.198C294.676 517.198 279.321 516.434 264.338 515.688L264.137 515.678C248.983 514.924 234.201 514.192 219.297 514.192C211.006 514.192 194.72 513.835 182.309 512.894C176.598 512.461 170.12 511.81 165.955 510.561C164.965 510.264 162.786 509.569 160.657 508.076C159.568 507.312 157.579 505.713 156.135 502.971C154.443 499.759 153.961 495.798 155.257 491.965C156.373 488.667 158.409 486.629 159.569 485.639C160.812 484.578 162.024 483.894 162.836 483.483C164.436 482.673 166.084 482.133 167.387 481.76C167.44 481.716 167.571 481.6 167.765 481.356C168.323 480.655 169.159 479.209 169.977 476.592C171.65 471.239 172.478 463.564 172.624 454.3C172.759 445.739 172.314 436.725 171.829 428.262ZM437.632 30.9096C437.045 30.8001 436.457 30.693 435.868 30.5882C435.877 31.1281 435.885 31.6679 435.893 32.2078C436.44 31.7666 437.02 31.3299 437.632 30.9096ZM393.789 27.1971C390.793 27.191 387.826 27.1785 384.885 27.1662C376.585 27.1315 368.488 27.0976 360.524 27.207C360.513 28.1259 360.5 29.0469 360.484 29.9703C366.934 30.9015 373.442 32.0707 379.82 33.3401C384.138 31.7913 388.479 30.3663 393.24 29.3669C393.404 28.6488 393.587 27.9241 393.789 27.1971ZM306.613 95.2055C305.966 96.2842 305.33 97.3582 304.708 98.4203C304.85 99.3491 304.976 100.283 305.089 101.201C305.502 104.548 305.804 108.24 306.014 111.602C306.093 110.013 306.163 108.422 306.222 106.829C306.226 106.714 306.234 106.527 306.244 106.273C306.307 104.683 306.473 100.475 306.613 95.2055ZM298.542 359.774C296.11 362.182 293.405 363.945 290.582 365.197C291.241 366.369 291.946 367.424 292.645 368.293C294.789 365.655 296.751 362.803 298.542 359.774ZM557.304 96.6417C551.908 94.2864 546.424 92.0788 540.827 89.9C540.745 91.3962 540.65 92.8886 540.544 94.3769C541.882 95.3439 543.225 96.3057 544.577 97.2621C545.784 98.1162 546.987 98.9695 548.188 99.821C550.219 101.26 552.241 102.694 554.259 104.117C554.866 102.22 555.482 100.525 556.114 99.0724C556.388 98.4408 556.777 97.5864 557.304 96.6417ZM365.198 66.2565C363.734 66.5434 362.319 66.8003 361.002 67.0393C360.66 67.1016 360.324 67.1625 359.995 67.2225C358.937 67.4159 357.93 67.6029 356.969 67.7888C356.583 70.3041 356.206 72.8186 355.84 75.3324C357.922 75.4389 359.967 75.6393 361.949 75.9731C362.47 74.3417 362.986 72.7094 363.494 71.0742C363.713 70.3679 364.346 68.5572 365.198 66.2565ZM353.573 102.383C353.164 102.37 352.725 102.361 352.256 102.356C351.939 105.004 351.632 107.65 351.335 110.297C352.051 107.63 352.8 104.995 353.573 102.383ZM326.21 365.478C323.505 371.056 320.377 376.395 316.767 381.375C320.626 381.447 324.48 381.587 328.322 381.793C327.48 376.364 326.789 370.913 326.21 365.478ZM270.404 383.839C268.971 381.901 267.751 379.938 266.734 378.094C262.398 382.486 256.841 385.757 250.038 386.038C248.477 386.103 246.986 386.003 245.568 385.775C245.445 386.921 245.326 388.067 245.212 389.213C247.482 389.099 249.823 388.994 252.217 388.898C253.555 387.807 254.736 387.237 255.167 387.028L255.176 387.024C256.384 386.44 257.511 386.084 258.265 385.87C259.822 385.428 261.552 385.108 263.211 384.853C265.599 384.486 267.997 384.148 270.404 383.839ZM250.751 359.255C250.751 359.256 250.73 359.246 250.688 359.22C250.73 359.24 250.751 359.253 250.751 359.255ZM204.102 419.287C204.144 420.065 204.189 420.844 204.238 421.625C204.584 427.163 206.193 432.642 208.336 439.941L208.497 440.49C208.988 442.161 209.508 443.94 210.017 445.811C210.167 445.589 210.323 445.371 210.486 445.158C212.564 442.436 215.084 441.202 216.149 440.732C216.202 440.709 216.255 440.686 216.309 440.663C216.276 440.095 216.247 439.534 216.221 438.98C215.983 433.929 215.958 428.702 216.034 423.915C212.76 424.306 209.229 423.535 206.232 421.28C205.383 420.642 204.681 419.959 204.102 419.287ZM217.946 467.42C217.033 467.046 216.118 466.621 215.274 466.144C214.744 465.844 213.963 465.37 213.111 464.696C213.12 465.094 213.124 465.493 213.124 465.894C213.124 466.184 213.129 466.542 213.134 466.958C213.137 467.238 213.141 467.544 213.144 467.872C214.735 467.726 216.341 467.576 217.946 467.42ZM617.458 493.533C618.068 493.815 618.679 494.101 619.289 494.391C619.299 494.396 619.31 494.401 619.32 494.406V491.866C618.678 492.545 618.035 493.096 617.458 493.533ZM619.318 469.912C619.316 467.387 619.311 464.851 619.304 462.307C619.064 462.723 618.793 463.15 618.489 463.576C618.044 464.199 617.183 465.313 615.822 466.417C615.975 466.538 616.127 466.662 616.278 466.788C617.321 467.658 618.365 468.705 619.318 469.912ZM593.138 457.971C592.993 457.421 592.873 456.891 592.773 456.402C592.505 456.382 592.228 456.363 591.943 456.342C591.604 456.318 591.255 456.293 590.897 456.267C591.341 456.71 591.799 457.223 592.243 457.81C592.542 457.863 592.841 457.917 593.138 457.971ZM372.579 141.613C372.552 141.821 372.526 142.029 372.5 142.237C366.473 190.779 369.241 241.235 372.615 291.451C372.703 282.561 372.942 273.698 373.308 264.86C373.245 261.173 373.177 257.48 373.109 253.781C372.845 239.397 372.579 224.924 372.579 210.374V141.613ZM354.597 367.802C353.829 362.065 353.001 356.242 352.163 350.353C352.072 349.716 351.982 349.077 351.891 348.438C351.98 349.621 352.072 350.803 352.169 351.983C352.621 357.508 353.16 362.959 353.818 368.312C354.077 368.141 354.336 367.971 354.597 367.802ZM265.498 387.365C265.5 387.365 265.535 387.373 265.598 387.391C265.528 387.375 265.497 387.366 265.498 387.365ZM400.016 331.69C399.992 332.222 399.968 332.753 399.944 333.285C400.036 333.28 400.128 333.276 400.221 333.272C400.152 332.744 400.083 332.217 400.016 331.69ZM436.505 90.1883C436.497 88.894 436.489 87.5997 436.48 86.3054C436.56 86.0522 436.639 85.7997 436.719 85.5481C436.641 87.0959 436.57 88.6426 436.505 90.1883ZM469.277 127.144C468.303 130.21 467.367 133.29 466.469 136.384C466.933 136.716 467.394 137.045 467.849 137.37C468.308 133.953 468.786 130.544 469.277 127.144ZM406.44 375.664C403.656 376.413 400.831 377.224 398.008 378.102C397.904 379.188 397.793 380.275 397.677 381.36C397.905 381.305 398.131 381.25 398.356 381.196C399.947 380.811 401.53 380.423 403.045 380.051C404.382 379.724 405.665 379.409 406.852 379.122C406.72 377.971 406.583 376.818 406.44 375.664ZM507.799 303.572C507.151 291.168 506.5 278.699 505.952 266.121C505.27 250.475 504.753 234.737 504.62 218.923C503.576 233.929 502.843 249.042 502.162 264.289C502.019 267.477 501.879 270.672 501.739 273.873C501.218 285.745 500.694 297.702 500.035 309.719C500.559 309.37 501.076 309.015 501.584 308.654C503.797 307.086 505.875 305.398 507.799 303.572ZM571.51 387.805C571.323 384.091 571.199 380.891 571.178 379.054C571.152 379.039 571.126 379.025 571.1 379.01C570.901 379.77 570.631 380.551 570.274 381.346C568.904 384.395 566.862 386.37 564.807 387.651C567.042 387.699 569.276 387.751 571.51 387.805ZM619.291 505.537C619.288 505.534 619.292 505.471 619.31 505.357C619.303 505.483 619.294 505.539 619.291 505.537ZM230.794 120.99C231.434 117.295 231.915 113.281 231.99 109.491C232.003 108.836 232.003 108.221 231.992 107.647C229.276 112.683 226.648 119.79 224.197 128.044C221.696 136.465 219.581 145.371 217.784 153.285C217.715 153.587 217.647 153.889 217.579 154.191C219.382 149.715 221.156 145.411 222.841 141.325L223.15 140.573C225.427 135.05 227.757 128.946 230.152 122.67C230.366 122.112 230.579 121.551 230.794 120.99ZM196.235 200.574C195.909 200.715 195.978 200.641 196.358 200.519C196.314 200.539 196.273 200.558 196.235 200.574Z" fill="#FF9393"/>
<path fill-rule="evenodd" clip-rule="evenodd" d="M413.707 36.1369C413.707 28.5666 419.666 22.4297 427.016 22.4297H445.258C452.608 22.4297 458.567 28.5666 458.567 36.1369C458.567 43.7071 452.608 49.844 445.258 49.844H427.016C419.666 49.844 413.707 43.7071 413.707 36.1369ZM323.11 50.8382C316.081 48.0899 308.019 51.2352 305.104 57.8633C302.189 64.4915 305.525 72.0926 312.555 74.8408C313.143 75.0706 314.585 75.6364 316.275 76.3479C318.247 81.2502 323.274 84.735 329.164 84.735C330.786 84.735 334.262 84.6866 337.639 83.2811C339.489 82.5113 343.026 80.6188 345.07 76.4904C347.3 71.9866 346.338 67.775 345.209 65.3147C343.501 61.5899 340.384 59.3907 339.555 58.806L339.492 58.7616C338.111 57.7834 336.626 56.9405 335.383 56.2822C330.689 53.7959 324.444 51.3585 323.21 50.8772L323.11 50.8382ZM329.606 58.7342C329.612 58.7374 329.531 58.7456 329.351 58.7491C329.511 58.7328 329.601 58.731 329.606 58.7342ZM375.14 81.4735C380.32 75.9733 388.85 75.8382 394.192 81.1717C394.592 81.5709 395.106 82.0426 395.703 82.5896C398.706 85.3413 403.786 89.9974 406.768 96.9046C407.035 97.5242 407.262 98.1136 407.445 98.6164C411.293 102.73 412.411 109.048 409.79 114.447C406.462 121.299 398.369 124.077 391.714 120.651C386.933 118.189 384.58 114.314 383.377 111.517C382.94 110.499 382.592 109.464 382.437 109.003L382.397 108.884L382.322 108.663L382.258 108.48L382.228 108.396L382.205 108.332C382.184 108.275 382.169 108.236 382.159 108.21C382.149 108.185 382.144 108.173 382.144 108.173C381.865 107.526 381.575 107.072 380.784 106.24C380.288 105.718 379.69 105.147 378.739 104.255L378.49 104.022L378.487 104.02C377.638 103.224 376.567 102.221 375.433 101.09C370.092 95.7562 369.96 86.9737 375.14 81.4735ZM292.623 132.061C294.898 136.51 294.42 141.602 291.819 145.483C291.842 145.773 291.871 146.1 291.905 146.47L291.93 146.741L291.93 146.743C291.977 147.252 292.034 147.872 292.079 148.455C292.132 149.149 292.189 150.055 292.189 151.013C292.189 158.454 286.02 164.486 278.409 164.486C270.798 164.486 264.629 158.454 264.629 151.013C264.629 151.017 264.629 151.016 264.629 151.011L264.628 150.989C264.626 150.93 264.619 150.77 264.595 150.466C264.568 150.11 264.534 149.737 264.487 149.229L264.487 149.226L264.455 148.88C264.343 147.668 264.17 145.768 264.175 143.803C264.179 141.941 264.327 139.031 265.391 135.99C266.539 132.709 269.061 128.516 274.135 126.036C280.942 122.708 289.22 125.406 292.623 132.061ZM291.744 143.578L291.741 143.616C291.746 143.576 291.747 143.555 291.746 143.554C291.746 143.554 291.746 143.554 291.746 143.554L291.746 143.555L291.746 143.558L291.744 143.578ZM311.202 210.046C312.415 202.675 307.252 195.743 299.669 194.564C292.087 193.385 284.956 198.404 283.743 205.775C281.507 219.358 281.578 232.914 281.642 245.327V245.331V245.335V245.34V245.344V245.348V245.352V245.356V245.36V245.364V245.368V245.372V245.376V245.379C281.652 247.399 281.663 249.388 281.663 251.343C281.663 254.145 282.422 257.749 285.079 260.975C287.727 264.19 291.135 265.665 293.824 266.26C298.53 267.3 302.683 266.099 304.707 265.381C307.183 264.502 309.618 263.195 311.71 261.611C313.403 260.328 316.726 257.49 318.286 252.941C320.714 245.859 316.777 238.204 309.492 235.844L309.444 235.829C309.494 226.866 309.812 218.492 311.202 210.046ZM500.102 242.738C504.664 243.1 508.573 243.41 512.452 243.41C519.855 243.41 525.857 249.529 525.857 257.077C525.857 264.625 519.855 270.744 512.452 270.744C507.836 270.744 501.857 270.291 496.279 269.868H496.279L496.278 269.868L496.277 269.867C493.135 269.629 490.121 269.4 487.548 269.268C479.141 268.835 472.859 269.141 468.713 270.509C468.714 270.511 468.71 270.517 468.7 270.527C468.691 270.535 468.677 270.547 468.659 270.563C468.408 270.785 467.294 271.771 465.448 275.014C464.353 276.94 463.333 279.037 462.13 281.508L462.13 281.509L462.129 281.51L462.129 281.51L462.047 281.679C460.957 283.921 459.586 286.739 458.087 289.201C457.231 290.606 456.272 293.707 455.8 298.947C455.353 303.901 455.455 309.149 455.564 314.048C455.629 316.948 456.432 319.936 457.953 324.465L458.097 324.891C458.202 325.201 458.312 325.524 458.427 325.859C459.746 329.721 461.6 335.145 462.259 340.846C462.318 340.995 462.55 341.559 463.242 342.551C464.32 344.097 466.066 346.034 468.534 348.195C473.479 352.524 480.201 356.773 486.945 359.814C492.351 362.251 496.758 363.457 499.699 363.821C500.692 360.7 502.757 358.072 505.45 356.386C500.94 356.389 496.58 354.158 494.036 350.242L493.246 350.097C492.709 349.999 492.165 349.899 491.857 349.841L491.837 349.838C491.21 349.72 490.017 349.496 488.977 349.203C484.262 347.872 479.658 345.47 476.201 341.32C472.725 337.146 471.47 332.48 471.134 328.552C470.814 324.814 471.28 321.22 471.745 318.468C472.008 316.91 472.42 314.869 472.772 313.122L472.773 313.117C472.944 312.269 473.101 311.49 473.22 310.871L473.214 310.896C473.211 310.908 473.209 310.914 473.207 310.914C473.201 310.914 473.207 310.802 473.221 310.551C473.24 310.198 473.274 309.569 473.309 308.586C473.373 306.808 473.422 304.649 473.458 302.674C473.484 301.241 473.503 299.965 473.517 299.017L473.531 298.086C473.535 297.87 473.538 297.656 473.542 297.496L473.542 297.49C473.542 297.472 473.544 297.414 473.546 297.334L473.549 297.258L473.552 297.164C473.555 297.114 473.557 297.06 473.56 297.006L473.56 297.004C473.563 296.946 473.574 296.731 473.6 296.459C473.61 296.353 473.644 295.992 473.719 295.534C473.765 295.275 473.912 294.586 474.022 294.16C474.281 293.331 475.676 290.48 477.097 288.652C480.651 286.418 486.319 286.174 491.079 287.143L495.031 284.205C500.79 279.923 508.961 281.08 513.28 286.789C517.599 292.497 516.432 300.596 510.673 304.877L501.854 311.434C501.462 311.725 501.059 311.991 500.647 312.232V313.902C503.964 313.622 507.002 313.682 509.623 313.734H509.623H509.625H509.626H509.627C510.577 313.753 511.473 313.771 512.307 313.771C519.79 313.771 525.857 319.763 525.857 327.154C525.857 331.478 523.78 335.323 520.559 337.77C520.704 338.366 520.815 338.994 520.884 339.654C521.25 343.175 520.25 346.246 518.864 348.526C517.003 351.588 514.369 353.396 512.623 354.377C519.947 354.47 525.857 360.553 525.857 368.043C525.857 374.187 523.882 380.52 518.786 385.201C514.045 389.557 508.274 390.922 503.66 391.211C494.69 391.773 484.603 388.646 476.102 384.813C467.246 380.82 458.232 375.204 451.07 368.934C447.484 365.795 444.083 362.249 441.393 358.391C438.783 354.649 436.259 349.781 435.642 344.123C435.363 341.561 434.513 339.036 433.006 334.561L432.994 334.524L432.588 333.318C431.019 328.644 428.929 322.159 428.762 314.669L428.757 314.459C428.652 309.77 428.503 303.096 429.103 296.445C429.685 289.982 431.101 281.698 435.309 274.785C436.035 273.592 436.856 271.946 438.088 269.413L438.257 269.066L438.257 269.065L438.258 269.064L438.258 269.063C439.351 266.816 440.714 264.012 442.258 261.298C445.181 256.161 450.59 247.855 460.094 244.625C469.415 241.457 480.189 241.519 488.901 241.968C493.138 242.186 496.792 242.476 500.102 242.738ZM502.539 363.864C502.539 363.865 502.521 363.87 502.48 363.878C502.517 363.867 502.538 363.864 502.539 363.864ZM658.222 249.941L658.502 250.041C658.599 250.076 658.678 250.104 658.738 250.123C661.487 251.031 664.16 252.099 666.467 253.444C668.239 254.477 672.328 257.073 674.326 262.178C675.504 265.188 675.761 268.625 674.804 271.99C673.917 275.11 672.238 277.3 670.914 278.653C668.475 281.147 665.633 282.44 664.069 283.076C660.574 284.495 656.47 285.319 653.216 285.804C649.807 286.312 646.241 286.604 643.395 286.604C642.072 286.604 640.912 286.588 639.93 286.55C639.437 286.531 638.935 286.504 638.446 286.465C637.984 286.429 637.378 286.369 636.723 286.262C636.389 286.207 635.94 286.123 635.426 285.994C634.958 285.875 634.149 285.648 633.204 285.231C632.717 285.016 632.057 284.691 631.324 284.217L631.268 284.181L631.201 284.137C631.15 284.103 631.098 284.068 631.044 284.031L630.929 283.952C624.993 282.573 620.561 277.122 620.561 270.607C620.561 264.398 622.18 257.745 627.205 252.768C632.092 247.927 638.044 246.832 642.162 246.736C648.886 246.578 656.068 249.165 658.222 249.941ZM542.841 419.776C542.841 412.295 536.807 406.23 529.364 406.23C521.922 406.23 515.888 412.295 515.888 419.776C515.888 444.775 526.74 465.122 538.729 482.88C542.373 488.278 547.426 493.265 551.286 497.075L551.842 497.624L552.244 498.022C556.852 502.586 559.593 505.53 560.975 507.961C566.632 517.912 575.605 523.363 581.39 526.877C581.644 527.032 581.892 527.182 582.134 527.33C588.919 531.467 591.299 533.327 592.535 535.811C593.166 537.078 593.967 538.203 594.897 539.17C594.773 539.184 594.65 539.199 594.527 539.214C592.935 539.412 590.513 539.843 588.043 541.015C587.398 541.321 586.624 541.741 585.804 542.3C584.995 540.252 584.138 538.127 583.399 536.408C582.413 534.111 580.861 530.608 579.148 528.173C578.714 527.557 577.678 526.134 576.05 524.821C575.232 524.161 570.962 520.868 565.132 521.815C563.427 518.954 560.923 516.937 558.433 515.732C555.237 514.184 551.992 513.864 549.735 513.803C541.529 513.581 533.359 513.643 525.446 513.709L524.812 513.715C517.049 513.78 509.536 513.843 502.058 513.671C495.146 513.512 488.252 512.963 481.223 512.226C480.775 511.641 480.352 511.181 480.021 510.852C477.701 508.546 475.076 507.689 474.85 507.615L474.835 507.61C473.564 507.16 472.355 506.94 471.902 506.858C461.589 504.982 452.252 504.426 442.154 504.426C434.483 504.426 421.957 504.972 409.618 505.686C402.507 505.13 395.412 505.232 388.741 505.586C383.623 505.857 378.532 506.294 373.655 506.769H332.596C331.209 506.769 329.769 506.759 328.285 506.748H328.279H328.278C324.375 506.72 320.163 506.69 315.783 506.838C313.958 506.803 312.13 506.78 310.298 506.769C304.768 506.736 299.345 506.797 293.981 506.98C292.793 504.771 291.234 503.364 290.338 502.668C287.925 500.793 285.452 500.242 285.159 500.177L285.135 500.171C283.953 499.888 282.934 499.818 282.691 499.801L282.667 499.799C281.924 499.747 281.142 499.74 280.55 499.74H267.481C265.697 497.899 263.811 496.833 262.722 496.279C261.167 495.487 259.638 494.953 258.438 494.59C256.029 493.862 253.584 493.423 251.897 493.169C250.466 492.954 248.622 492.731 247.442 492.713C242.184 492.634 236.818 492.515 231.377 492.393L231.362 492.393C211.718 491.954 191.101 491.494 171.101 492.874C169.536 492.982 167.602 493.405 165.996 493.811L165.786 493.806C165.399 486.666 159.489 480.997 152.256 480.997C145.383 480.997 139.705 486.115 138.824 492.749C137.999 492.766 136.663 492.816 135.578 492.997L135.557 493.001C135.312 493.041 134.229 493.221 132.95 493.706L132.946 493.707C132.456 493.893 130.535 494.622 128.626 496.359C127.655 497.338 125.777 500.026 125.003 501.77C124.397 504.037 124.386 508.681 124.97 510.921C126.646 515.652 130.285 517.744 130.937 518.119L130.973 518.139C132.129 518.807 133.125 519.15 133.53 519.284C134.426 519.578 135.161 519.714 135.387 519.756C136.26 519.915 137.117 519.979 137.374 519.998H137.374L137.408 520.001C137.781 520.029 138.219 520.056 138.705 520.083V531.517C111.345 536.43 82.6121 551.447 62.3488 566.087C59.2355 568.336 55.9853 570.078 51.8837 572.275L51.8792 572.278C50.473 573.031 48.9667 573.838 47.3317 574.738C41.5023 577.945 34.4641 582.153 28.5453 588.612C26.5782 590.759 24.8898 592.195 23.7391 593.086C23.1621 593.533 22.6885 593.867 22.3023 594.135L22.1692 594.227L22.1663 594.228C22.0037 594.341 21.7593 594.509 21.6161 594.61C21.4956 594.694 21.2502 594.868 20.9745 595.08L20.9579 595.092C20.8038 595.21 19.9823 595.836 19.1375 596.757L19.1203 596.776C18.7929 597.133 17.3944 598.655 16.4653 601.059C16.3892 601.256 16.3093 601.477 16.2297 601.719C14.4316 602.213 12.6315 602.73 10.8295 603.271C10.0746 603.498 8.63773 603.962 7.11891 604.832C6.35865 605.268 5.02149 606.116 3.70392 607.536C2.36926 608.975 0.423483 611.708 0.0625381 615.685C-0.715183 624.254 6.00398 628.337 6.7313 628.778L6.73963 628.784C8.43909 629.816 10.0364 630.298 10.6968 630.488C13.3554 631.253 16.8562 631.581 19.1574 631.766C24.4455 632.192 31.2362 632.371 33.8314 632.275C39.4529 632.067 44.7082 630.979 49.5932 629.375C50.383 629.769 51.1456 630.107 51.8447 630.396C55.3361 631.842 59.4 632.945 63.0708 633.598C66.1612 634.147 71.2297 634.812 75.7479 633.742C94.3997 629.323 109.461 627.599 128.835 627.599C173.17 627.599 216.53 632.313 260.485 638.922C263.76 640.498 267.142 641.979 269.933 643.2L269.944 643.205C271.148 643.732 272.241 644.21 273.167 644.628C279.443 647.453 286.229 648.76 292.725 649.317C292.779 650.033 292.891 650.774 293.074 651.536C293.83 654.679 295.528 657.027 297.235 658.599C300.164 661.297 303.443 662.042 304.567 662.277C306.122 662.603 307.614 662.705 308.799 662.738C319.223 663.027 329.82 662.99 340.254 662.603C380.923 661.097 421.568 658.171 461.968 654.52C474.612 655.904 487.31 657.199 499.811 658.027C538.073 660.561 576.459 660.491 614.273 660.422C620.412 660.411 626.537 660.4 632.643 660.4C635.177 660.4 637.168 660.387 638.62 660.357C639.336 660.342 640.019 660.322 640.614 660.29L640.649 660.288C640.918 660.276 642.312 660.211 643.721 659.88L643.744 659.875C644.095 659.793 645.566 659.449 647.217 658.541C648.008 658.106 650.021 656.918 651.721 654.545C651.935 654.245 652.141 653.931 652.336 653.603C661.581 653.679 670.832 653.588 679.93 653.499L679.937 653.499C686.478 653.434 692.94 653.371 699.262 653.371C701.339 653.371 702.112 653.415 702.644 653.494C702.792 653.516 702.948 653.543 703.158 653.608C703.749 653.872 704.275 654.107 704.725 654.31C704.906 654.392 705.075 654.468 705.231 654.538C705.712 654.755 706.072 654.919 706.297 655.021L706.556 655.139L706.629 655.171L706.717 655.21L706.828 655.259C706.887 655.284 707.077 655.363 707.209 655.415C707.29 655.445 707.723 655.326 708.391 655.046C708.492 655.147 708.595 655.247 708.7 655.346C708.849 655.487 709.002 655.626 709.158 655.765C713.928 659.977 719.697 660.697 724.205 660.363C730.965 659.862 737.061 656.828 740.641 655.047C740.882 654.928 741.111 654.814 741.328 654.707C743.426 653.671 744.992 652.936 746.243 652.428C756.013 653.742 765.685 653.585 774.119 653.448L774.128 653.448C776.567 653.409 778.902 653.371 781.105 653.371C781.972 653.371 783.651 653.352 785.418 652.977C786.092 652.834 788.447 652.326 790.844 650.598C792.188 649.63 794.082 647.891 795.34 645.1C796.592 642.323 796.795 639.429 796.297 636.863C796.839 636.272 797.361 635.6 797.841 634.838C800.542 630.549 800.252 626.115 799.413 623.279C798.669 620.76 797.399 618.99 796.72 618.125C795.316 616.334 793.664 614.98 792.683 614.214C791.527 613.312 790.274 612.445 789.104 611.672C786.848 610.181 784.249 608.618 782.091 607.319L782.086 607.316L781.884 607.195C779.459 605.736 777.8 604.728 776.848 604.069C773.827 601.976 770.462 600.344 767.965 599.15C767.555 598.954 767.162 598.767 766.784 598.586C764.546 597.52 762.827 596.702 761.222 595.777C759.401 594.727 758.599 594.011 758.279 593.643L758.248 593.606C757.758 589.689 755.852 586.944 754.672 585.521C753.393 583.98 751.999 582.833 750.93 582.044C748.787 580.463 746.307 579.137 744.091 578.068C739.545 575.878 733.846 573.713 728.471 571.82C723.006 569.894 717.438 568.097 713.029 566.683L712.046 566.367C710.232 565.785 708.677 565.287 707.399 564.866C706.651 564.62 706.055 564.419 705.598 564.259C705.091 564.082 704.939 564.019 704.995 564.042C695.331 560.014 685.466 557.826 676.397 556.126C673.554 555.593 670.847 555.116 668.231 554.655C662.102 553.575 656.47 552.583 650.733 551.162C645.748 549.927 640.768 548.298 635.216 546.482L635.215 546.481L635.153 546.461C629.745 544.692 623.771 542.739 617.607 541.25C616.734 541.04 615.074 540.699 612.994 540.346C617.87 536.445 619.541 529.522 616.643 523.696C611.605 513.569 602.562 508.081 596.891 504.64C596.624 504.478 596.365 504.321 596.114 504.168C589.474 500.119 586.292 497.89 584.376 494.52C580.855 488.327 575.305 482.829 571.276 478.838L570.941 478.506L570.94 478.505C566.36 473.969 563.116 470.754 561.032 467.668C549.965 451.276 542.841 436.518 542.841 419.776ZM677.561 355.253C682.824 352.76 689.3 353.696 693.653 358.061C696.164 360.58 697.854 364.188 697.819 368.271C697.788 371.815 696.469 374.396 695.689 375.661C694.26 377.98 692.504 379.304 692.083 379.622L692.061 379.638C690.874 380.534 689.751 381.093 689.378 381.278C688.337 381.794 687.212 382.243 686.274 382.591C684.282 383.331 681.704 384.145 679.003 384.813C676.399 385.456 673.079 386.117 669.796 386.262C668.164 386.335 666.015 386.308 663.727 385.841C661.598 385.407 657.929 384.309 654.769 381.14C653.556 379.923 651.45 377.389 650.718 373.472C649.886 369.027 651.233 365.085 653.175 362.363C654.851 360.014 656.817 358.729 657.829 358.141C658.96 357.484 659.982 357.084 660.654 356.849C662.954 356.045 665.378 355.766 666.602 355.638C669.648 355.321 673.279 355.238 675.77 355.238C676.383 355.238 676.991 355.243 677.561 355.253ZM208.1 211.838C215.67 211.838 221.807 217.957 221.807 225.505V262.968C221.807 270.516 215.67 276.635 208.1 276.635C200.529 276.635 194.393 270.516 194.393 262.968V225.505C194.393 217.957 200.529 211.838 208.1 211.838ZM344.169 210.754C345.583 203.162 352.747 198.18 360.169 199.626C365.354 200.636 368.998 201.297 372.611 201.297C380.167 201.297 386.293 207.562 386.293 215.29C386.293 223.018 380.167 229.283 372.611 229.283C366.156 229.283 360.15 228.112 355.363 227.179L355.049 227.118C347.627 225.672 342.756 218.346 344.169 210.754ZM242.846 351.653C235.543 350.232 228.468 354.984 227.043 362.266C225.618 369.548 230.383 376.604 237.686 378.025C239.153 378.31 240.669 378.523 241.704 378.668L241.708 378.668L241.709 378.668L242.032 378.714L242.278 378.749C242.436 378.771 242.581 378.793 242.714 378.813C246.604 383.619 253.45 385.254 259.216 382.379C265.871 379.061 268.569 370.991 265.241 364.355C261.849 357.589 256.243 354.568 251.493 353.226C249.433 352.643 247.442 352.345 246.132 352.156L245.756 352.102L245.161 352.018C244.193 351.881 243.551 351.79 242.846 351.653ZM311.345 307.247C317.134 302.494 325.872 303.111 330.862 308.624C332.505 310.44 334.134 312.418 335.576 314.169L335.65 314.259C337.183 316.12 338.569 317.802 339.987 319.392C342.953 322.716 345.144 324.56 346.817 325.429C347.109 325.58 347.253 325.651 347.455 325.751C347.631 325.837 347.851 325.945 348.25 326.147C348.849 326.449 349.855 326.968 350.93 327.674C353.536 329.388 355.77 331.685 357.415 334.818C360.832 341.328 358.062 349.244 351.226 352.5C345.253 355.344 338.152 353.688 334.175 348.881C334.059 348.823 333.937 348.761 333.81 348.696C333.73 348.655 333.647 348.612 333.564 348.569C327.293 345.311 322.426 340.416 318.896 336.459C317.106 334.452 315.419 332.404 313.966 330.639L313.872 330.524C312.325 328.646 311.074 327.133 309.899 325.834C304.909 320.321 305.556 312 311.345 307.247ZM396.262 290.613C396.262 282.893 390.136 276.635 382.579 276.635C378.75 276.635 375.289 278.242 372.805 280.831L372.692 280.819C372.098 280.758 371.395 280.685 370.775 280.63C369.916 280.554 368.769 280.467 367.577 280.467C360.02 280.467 353.894 286.725 353.894 294.444C353.894 302.164 360.02 308.422 367.577 308.422L367.577 308.422C367.585 308.422 367.634 308.423 367.741 308.429C367.869 308.437 368.08 308.451 368.398 308.48C368.819 308.517 369.221 308.559 369.727 308.611C369.98 308.637 370.259 308.666 370.579 308.698C372.195 308.862 374.759 309.11 377.368 309.011C379.684 308.924 384.101 308.533 388.255 305.829C393.549 302.384 396.262 296.671 396.262 290.613ZM207.527 93.2168C207.527 93.2163 207.536 93.2283 207.552 93.2542C207.535 93.2302 207.527 93.2172 207.527 93.2168ZM223.48 98.799C223.496 98.6499 223.512 98.5117 223.528 98.3838C224.34 98.0401 225.131 97.6067 225.889 97.0812C231.962 92.87 233.603 84.3352 229.555 78.0183C228.848 76.9163 227.861 75.5268 226.552 74.2277C225.325 73.0101 222.96 71.0126 219.441 70.1825C210.121 67.9843 204.985 75.4829 204.109 76.8506C203.019 78.5538 202.156 80.6262 201.859 81.338C201.829 81.4119 201.804 81.4711 201.786 81.5137C201.575 82.0079 201.438 82.3194 201.316 82.5766C201.216 82.7871 201.166 82.8729 201.165 82.8756C198.471 87.2825 197.579 92.2376 197.204 95.8205C196.8 99.6725 196.839 103.671 196.996 107.185C197.144 110.483 197.419 113.77 197.646 116.49L197.697 117.09C197.955 120.19 198.097 122.123 198.097 123.325C198.097 130.917 204.014 137.071 211.313 137.071C218.612 137.071 224.529 130.917 224.529 123.325C224.529 120.698 224.26 117.479 224.034 114.768L224.03 114.715L223.989 114.221L223.989 114.22C223.753 111.399 223.522 108.629 223.4 105.907C223.27 102.995 223.291 100.608 223.48 98.799ZM443.614 103.427C443.614 95.8563 449.939 89.7194 457.742 89.7194H469.361C477.164 89.7194 483.489 95.8563 483.489 103.427C483.489 110.997 477.164 117.134 469.361 117.134H457.742C449.939 117.134 443.614 110.997 443.614 103.427ZM668.951 384.012L668.942 384.013L668.924 384.017C668.915 384.018 668.925 384.017 668.952 384.012H668.951ZM100.717 574.057C103.704 572.46 106.745 570.932 109.814 569.493C110.428 569.848 110.929 570.073 111.221 570.199C112.603 570.795 113.775 571.018 114.08 571.076L114.091 571.078C114.57 571.17 114.964 571.219 115.187 571.244C115.985 571.333 116.904 571.358 117.628 571.365C116.145 571.629 114.591 571.878 112.957 572.124C112.076 572.257 111.161 572.39 110.215 572.527L110.214 572.527C107.298 572.95 104.09 573.414 100.717 574.057ZM25.6435 592.891C25.6322 592.895 25.6725 592.884 25.7763 592.854L25.8173 592.842C25.7164 592.868 25.6548 592.886 25.6435 592.891ZM549.172 540.915C549.17 540.917 549.129 540.915 549.053 540.906C549.136 540.91 549.174 540.914 549.172 540.915ZM541.457 524.575C541.47 524.556 541.478 524.546 541.479 524.545C541.48 524.544 541.473 524.554 541.457 524.575ZM418.554 543.216C418.74 544.219 419.035 545.19 419.427 546.111C418.399 546.03 417.383 545.952 416.376 545.875C414.829 545.756 413.305 545.639 411.801 545.519C412.117 545.492 412.531 545.45 412.991 545.377C413.326 545.324 413.904 545.222 414.599 545.029C415.097 544.89 416.648 544.447 418.358 543.345C418.417 543.308 418.483 543.264 418.554 543.216ZM407.747 545.014C407.85 545.034 407.833 545.033 407.731 545.012L407.747 545.014ZM378.577 568.12C379.397 568.32 380.22 568.511 381.045 568.693L376.844 568.508H376.844C354.39 567.519 331.216 566.497 307.947 566.35C307.134 565.859 306.308 565.395 305.473 564.958C307.755 565.115 310.077 565.291 312.456 565.472L312.633 565.485C320.213 566.061 328.385 566.682 336.76 566.682C340.542 566.682 344.361 566.578 347.992 566.48L348.375 566.469C352.187 566.366 355.81 566.271 359.385 566.28C366.565 566.296 372.896 566.738 378.577 568.12ZM501.533 612.36C498.482 612.312 495.437 612.279 492.398 612.255C491.68 612.069 491.036 611.931 490.602 611.841C488.16 611.331 484.192 610.685 480.241 610.272C482.253 610.293 484.604 610.3 486.917 610.265C489.744 610.223 493.057 610.116 495.636 609.804L495.715 609.795C496.106 609.748 496.884 609.655 497.857 609.452C499.079 610.661 500.389 611.624 501.533 612.36ZM516.018 589.434C516 589.423 515.99 589.417 515.988 589.417C515.983 589.418 516.037 589.458 516.164 589.535C516.097 589.486 516.048 589.452 516.018 589.434Z" fill="#786DFF"/>
</svg>
