<svg width="783" height="800" viewBox="0 0 783 800" fill="none" xmlns="http://www.w3.org/2000/svg">
<path fill-rule="evenodd" clip-rule="evenodd" d="M351.077 0.00548929C340.294 -0.0228467 326.959 -0.0578909 314.9 3.12956C300.361 6.97241 287.123 15.522 278.752 32.3492C273.76 42.383 274.042 54.6532 276.157 64.2341C278.257 73.7478 283.242 85.4717 292.979 92.6014C301.662 98.959 308.568 103.989 320.241 109.415C325.499 111.86 335.32 114.386 344.227 114.686C348.588 114.833 355.021 114.559 361.006 111.748C364.24 110.229 367.767 107.764 370.444 103.879C373.186 99.9002 374.34 95.4384 374.34 91.1173C374.34 89.857 374.193 88.6301 373.916 87.4519C376.999 87.7806 380.209 87.2666 383.187 85.7909C391.464 81.6905 394.819 71.7184 390.68 63.5176C387.096 56.4149 380.826 52.8097 376.545 50.9775C372.042 49.0503 367.244 48.0207 363.312 47.3879C359.266 46.7366 355.237 46.3731 352.067 46.1082C351.484 46.0595 350.945 46.015 350.447 45.9738C347.87 45.7608 346.375 45.6371 345.364 45.4817C336.22 44.0758 327.657 50.2809 326.238 59.3413C324.819 68.4016 331.082 76.8862 340.226 78.2921C342.073 78.576 344.355 78.7883 346.46 78.9648C345.449 79.8504 344.55 80.8544 343.784 81.9546C342.137 81.7978 340.317 81.4914 338.553 81.0844C337.412 80.8214 336.419 80.5449 335.649 80.2998C335.027 80.102 334.696 79.9712 334.613 79.9383L334.592 79.9303L334.616 79.9416C326.143 76.0022 321.471 72.6582 313.041 66.4856C313.031 66.478 312.827 66.32 312.483 65.9016C312.128 65.4684 311.691 64.8385 311.225 63.9824C310.274 62.2374 309.415 59.9469 308.843 57.3573C308.273 54.7738 308.07 52.2565 308.182 50.1434C308.299 47.9266 308.722 46.8245 308.828 46.6118C312.426 39.3804 317.144 36.3562 323.637 34.64C331.172 32.6485 340.132 32.6513 352.336 32.6551L353.974 32.6554C363.207 32.6554 370.692 25.3476 370.692 16.333C370.692 7.31841 363.207 0.0106255 353.974 0.0106255C353.032 0.0106255 352.065 0.00808545 351.077 0.00548929ZM192.421 91.8609C190.249 92.6208 188.533 93.2031 187.079 93.631C187.081 92.4202 187.089 91.2123 187.106 90.0115C187.179 84.7775 187.404 79.9848 187.795 75.8555C194.377 80.2532 197.801 82.6901 200.83 86.9441C201.287 87.5861 201.741 88.2255 202.192 88.8628C198.533 89.7158 195.38 90.8224 192.957 91.6729L192.421 91.8609ZM222.213 120.976C221.687 119.954 221.154 118.939 220.612 117.932C218.332 119.102 215.738 119.763 212.987 119.763C210.936 119.763 208.726 120.366 203.489 122.199L202.818 122.434C199.248 123.689 194.162 125.477 188.202 126.325C188.401 130.047 188.554 133.145 188.554 134.848C188.554 143.737 181.141 150.943 171.996 150.943C162.851 150.943 155.438 143.737 155.438 134.848C155.438 133.661 155.31 131.321 155.119 127.808L155.118 127.799C154.981 125.283 154.811 122.165 154.631 118.44C154.23 110.117 153.851 99.7408 153.993 89.5747C154.131 79.651 154.769 68.9223 156.747 60.295C157.707 56.1038 159.27 51.0617 162.181 46.697C165.241 42.1085 171.363 36.2264 181.028 36.2264C189.653 36.2264 195.764 40.8898 198.29 42.9165C199.433 43.8336 200.629 44.8911 201.411 45.5823L201.414 45.5849C201.593 45.7425 201.749 45.8812 201.879 45.9944C202.318 46.3792 202.625 46.6393 202.868 46.8358C203.054 46.9858 203.145 47.0517 203.16 47.0624C203.887 47.5478 204.645 48.0468 205.426 48.5605L205.435 48.5661C212.327 53.0994 221.127 58.8876 228.058 68.6203C236.616 80.6368 244.758 92.824 251.833 106.579C255.923 114.53 252.608 124.198 244.428 128.174C236.249 132.149 226.303 128.927 222.213 120.976ZM82.9859 123.937C87.0733 115.701 97.0135 112.363 105.188 116.481C109.898 118.853 112.31 122.724 113.043 123.918C114.128 125.687 114.926 127.486 115.484 128.873C116.622 131.699 117.595 134.915 118.36 137.631C118.968 139.788 119.559 142.041 120.056 143.94C120.181 144.42 120.301 144.877 120.414 145.304L120.455 145.461C120.753 146.588 120.996 147.491 121.201 148.202C121.341 148.686 121.422 148.939 121.449 149.025L121.458 149.052L121.459 149.055L121.46 149.059C122.928 152.852 125.314 158.238 128.082 163.068C129.469 165.489 130.809 167.518 132.017 169.047C133.062 170.368 133.686 170.904 133.813 171.013L133.827 171.025L133.836 171.033L133.815 171.021C142.05 176.354 155.013 188.99 149.704 207.711C147.85 214.248 143.031 217.345 141.223 218.366C139.041 219.599 136.953 220.213 135.685 220.533C133.033 221.204 130.19 221.501 127.859 221.663C122.977 222.002 117.006 221.954 111.429 221.758C106.116 221.571 100.745 221.235 96.2892 220.867C96.2934 222.805 96.2993 224.755 96.3053 226.715V226.719C96.3275 234.011 96.3501 241.427 96.2828 248.753C96.2572 251.539 96.0845 254.35 95.6072 257.001C95.1695 259.431 94.2469 263.1 91.8369 266.572C88.9685 270.703 84.2944 274.03 78.3007 274.625C73.3045 275.121 69.3556 273.491 67.4221 272.551C64.138 270.954 60.9565 268.359 59.4983 267.17C59.3534 267.052 59.2254 266.948 59.1161 266.86C57.0103 265.163 56.1806 264.576 55.7448 264.343C51.2627 261.953 47.183 259.508 43.5371 257.309L42.8113 256.871L42.8077 256.869C39.3685 254.794 36.3819 252.993 33.3428 251.336C27.0979 247.932 21.192 245.466 13.8306 244.23C4.81542 242.716 -1.27478 234.126 0.227742 225.044C1.73027 215.961 10.2565 209.826 19.2717 211.339C31.3426 213.366 40.7866 217.482 49.0926 222.009C52.7986 224.03 56.3864 226.195 59.6927 228.19L60.536 228.699C61.4417 229.245 62.3336 229.782 63.2184 230.31L63.2088 227.101V227.097V227.093V227.089V227.085V227.08V227.076V227.072V227.068C63.198 223.539 63.187 219.98 63.1864 216.37C63.1267 216.188 63.0018 215.828 62.7584 215.214C62.7057 215.08 62.6397 214.919 62.5629 214.732C61.8413 212.969 60.1701 208.885 59.6668 204.068C59.4723 202.206 59.3172 200.23 59.3308 198.365L59.3311 198.32C59.3397 197.103 59.3672 193.174 61.3179 189.187C62.5182 186.734 64.8813 183.377 69.1523 181.246C73.4477 179.104 77.5553 179.257 80.2418 179.805C84.361 180.646 87.3358 182.883 87.9891 183.375L88.0634 183.43C88.9327 184.075 89.8718 184.861 90.3836 185.289L90.5736 185.447C91.2049 185.973 91.6407 186.325 92.0488 186.625C92.2721 186.79 92.4466 186.907 92.5752 186.989L92.8103 187.02C92.9218 187.034 93.0445 187.049 93.179 187.066C94.4138 187.216 96.1199 187.39 98.182 187.567C100.172 187.737 102.415 187.904 104.776 188.051C102.632 185.143 100.845 182.228 99.4182 179.739C95.5863 173.051 92.4943 166.017 90.588 161.079C89.7723 158.965 89.0041 156.055 88.4834 154.083L88.4697 154.031L88.2566 153.221L88.002 152.25L88.0004 152.244C87.5162 150.395 87.0371 148.566 86.523 146.743C85.953 144.722 85.4615 143.153 85.0626 142.058C80.993 137.125 79.9559 130.042 82.9859 123.937ZM373.753 154.146L373.749 154.146L373.744 154.147L373.738 154.148L373.733 154.148C369.552 154.656 365.29 155.174 360.968 155.659C360.981 179.18 361.091 202.593 362.027 225.734C377.701 225.239 393.224 225.085 408.174 225.085C428.803 225.085 452.131 223.323 474.03 219.559C458.469 190.874 439.824 164.984 414.651 150.548C404.581 150.759 394.296 151.736 383.563 152.974C380.352 153.344 377.078 153.742 373.753 154.146ZM329.06 158.033C329.076 180.743 329.198 203.942 330.15 227.264C317.677 228.092 305.287 229.216 293.192 230.729C282.814 232.027 272.437 233.008 262.038 233.747C262.239 233.232 262.443 232.716 262.65 232.197C265.068 226.134 267.528 220.714 269.938 216.494C271.136 214.398 272.195 212.822 273.081 211.706C273.784 210.821 274.198 210.455 274.279 210.383C274.289 210.374 274.293 210.37 274.293 210.37C280.934 205.798 284.761 199.589 287.184 194.401C289.181 190.126 290.721 185.366 291.891 181.75C292.081 181.164 292.261 180.607 292.432 180.088C295.526 170.676 297.161 169.02 298.472 168.366C302.341 166.435 305.112 163.185 306.511 159.434C312.636 158.566 318.682 158.08 324.61 158.08C326.093 158.08 327.577 158.064 329.06 158.033ZM297.25 263.219C281.57 265.18 265.881 266.451 250.213 267.269C245.965 279.287 242.596 292.025 239.055 305.533L238.804 306.491C235.21 320.202 231.405 334.719 226.418 348.658C220.971 363.878 219.673 382.564 220.057 403.461C220.233 413.021 220.743 422.653 221.26 432.393L221.387 434.788C221.937 445.203 222.465 455.783 222.465 465.809C222.465 475.952 223.087 485.7 224.155 495.26C236.597 496.935 248.386 498.31 260.785 498.31H354.5C354.405 439.077 353.209 383.115 341.436 326.95C336.811 304.881 333.913 282.438 332.099 259.949C320.267 260.738 308.591 261.8 297.25 263.219ZM232.156 220.081C230.174 225.049 228.232 230.405 226.473 235.439C214.929 235.755 203.325 235.881 191.631 235.918C196.235 230.337 200.694 223.499 204.549 217.587L204.552 217.582C205.854 215.587 207.086 213.697 208.232 211.997C213.931 203.54 218.429 198.135 222.677 195.384C228.293 191.748 233.401 187.486 237.335 184.203L237.337 184.2L237.34 184.198C238.674 183.085 239.872 182.085 240.909 181.261C245.407 177.685 249.603 174.92 255.76 172.795C257.458 172.209 259.157 171.631 260.858 171.061L260.559 171.977C259.341 175.709 258.506 178.268 257.436 180.56C256.878 181.754 256.423 182.484 256.092 182.922C255.935 183.13 255.82 183.253 255.753 183.319C255.719 183.352 255.695 183.373 255.681 183.385L255.666 183.397L255.658 183.403C249.274 187.783 244.659 194.608 241.426 200.268C237.939 206.372 234.833 213.369 232.156 220.081ZM215.294 268.437C198.274 268.733 181.309 268.699 164.441 268.638C156.918 278.428 149.901 288.464 142.805 299.905C131.827 317.604 124.073 339.453 118.658 361.128C116.761 368.723 113.991 375.934 111.622 382.1C111.397 382.686 111.175 383.263 110.959 383.83C109.029 388.873 107.391 393.319 106.18 397.644C108.18 401.736 108.646 405.92 108.826 408.326C109.299 414.638 108.501 422.371 107.59 428.931C106.634 435.82 105.337 442.838 104.325 448.173L104.048 449.627L103.89 450.458L103.857 450.629C115.934 455.765 127.351 462.08 137.881 467.903L137.92 467.925C139.685 468.901 141.426 469.864 143.14 470.804C160.383 480.267 175.502 487.877 190.774 490.79C190.053 482.595 189.644 474.274 189.644 465.809C189.644 456.769 189.165 447.011 188.611 436.512L188.48 434.034C187.968 424.399 187.428 414.216 187.241 404.062C186.839 382.216 187.995 358.638 195.508 337.64C200.009 325.061 203.503 311.735 207.217 297.565L207.218 297.562L207.302 297.24C209.759 287.869 212.317 278.125 215.294 268.437ZM114.98 282.622C118.88 276.334 122.758 270.44 126.676 264.798C123.06 261.795 120.756 257.263 120.756 252.193C120.756 243.151 128.081 235.821 137.116 235.821C140.986 235.821 144.842 235.828 148.684 235.838C154.021 229.341 159.6 222.833 165.544 216.035C169.008 212.073 172.111 207.321 175.957 201.43C177.518 199.04 179.201 196.462 181.081 193.673C186.787 185.205 194.474 174.612 204.887 167.87C208.749 165.369 211.464 163.098 214.81 160.3C216.487 158.898 218.322 157.363 220.539 155.6C226.782 150.637 234.247 145.553 245.084 141.813C268.759 133.644 296.786 125.308 324.61 125.308C339.195 125.308 353.582 123.569 369.124 121.69L369.13 121.689L369.137 121.688C372.632 121.266 376.185 120.836 379.813 120.418C392.216 118.987 405.261 117.727 418.728 117.736L418.827 117.736C426.197 117.744 433.692 118.132 441.278 119.081C498.211 126.203 558.679 149.444 595.323 200.783C601.83 209.899 607.819 219.403 613.517 228.446L613.556 228.509L613.571 228.532L613.576 228.54C614.678 230.289 615.77 232.021 616.852 233.729C623.68 244.508 630.298 254.612 637.774 263.964C643.584 271.231 649.239 281.692 653.423 291.964C657.206 301.254 660.583 312.317 661.073 322.247C661.133 322.726 661.173 323.211 661.192 323.702C661.972 344.327 667.689 366.571 674.183 388.696C679.021 391.567 682.266 396.862 682.266 402.92C682.266 406.515 681.891 410.037 681.207 413.471C688.528 442.834 692.245 474.014 693.779 503.085C695.704 539.56 692.541 573.223 686.459 608.27C683.28 626.586 677.493 642.922 671.426 658.874C670.142 662.252 668.872 666.223 667.367 670.968L667.235 671.383C665.815 675.86 664.214 680.907 662.396 685.896C658.794 695.774 653.547 707.808 644.733 716.598C630.485 730.807 614.55 739.343 599.136 746.027C592.928 748.719 586.564 751.208 580.477 753.588L580.468 753.591L580.459 753.595L580.457 753.596C579.097 754.127 577.751 754.654 576.425 755.175C568.996 758.097 561.911 760.972 554.994 764.283C538.554 772.153 521.833 775.819 506.173 778.392C500.352 779.349 494.893 780.132 489.621 780.889L489.616 780.89C479.972 782.274 470.951 783.569 461.482 785.667C452.638 787.628 444.265 787.957 437.007 788.065C435.338 788.091 433.754 788.105 432.23 788.119H432.227H432.223H432.219H432.215H432.211H432.206H432.201H432.196H432.191H432.186H432.18H432.175H432.169H432.162C426.707 788.168 422.037 788.211 417.119 788.701C411.502 789.261 406.046 790.252 399.849 791.377C398.192 791.678 396.482 791.988 394.702 792.303C386.666 793.722 377.563 795.139 367.952 795.139C361.682 795.139 355.396 796.053 347.767 797.163L347.757 797.164L347.74 797.167C344.366 797.657 340.731 798.186 336.718 798.69C324.929 800.172 310.487 801.26 296.463 796.957C294.444 796.337 291.673 795.702 287.718 794.795L287.714 794.794L287.709 794.793L286.416 794.496C282.117 793.509 276.912 792.287 271.838 790.714C266.866 789.172 261.17 787.044 256.121 783.922C252.758 781.843 248.856 778.809 245.846 774.494C218.55 767.708 196.859 756.554 178.328 740.801C155.692 721.558 138.76 696.253 121.931 666.782C118.555 660.869 115.01 655.532 111.152 649.725C109.279 646.906 107.332 643.976 105.296 640.815C99.3847 631.641 93.2972 621.333 88.9987 609.385C82.2588 590.649 79.7603 572.255 77.3988 554.869C77.1847 553.293 76.9718 551.725 76.7569 550.166C73.1893 524.282 71.0307 499.647 70.3276 474.04C63.1371 470.951 58.9709 463.027 60.8143 455.107C62.191 449.191 66.572 444.77 71.954 443.094L72.1505 442.061C73.1524 436.779 74.3169 430.445 75.1531 424.422C75.2868 423.458 75.4078 422.532 75.516 421.645C74.4607 420.77 73.6173 419.854 72.9784 419.028C71.261 416.809 70.5108 414.673 70.1864 413.596C69.819 412.376 69.653 411.329 69.569 410.631C69.2743 408.182 69.5329 406.034 69.7147 404.868C69.939 403.428 70.3144 401.844 70.8819 400.239C71.2926 399.078 71.9294 397.548 72.9191 395.927L72.945 395.8C74.745 386.994 77.7599 378.948 80.3747 372.113L80.929 370.665C83.4322 364.132 85.4973 358.743 86.8872 353.179C92.7306 329.789 101.517 304.328 114.98 282.622ZM408.174 257.828C393.679 257.828 378.837 257.976 363.991 258.432C365.708 279.285 368.402 299.847 372.624 319.994C385.166 379.829 386.321 438.95 386.41 498.31H446.593C469.672 498.31 491.854 495.002 513.595 489.289V432.785C513.595 398.713 510.313 364.365 506.975 329.428C505.966 318.866 504.952 308.25 504.022 297.572C502.581 281.031 496.985 266.2 489.362 250.004C462.309 255.451 433.142 257.828 408.174 257.828ZM536.72 294.735C535.021 275.236 528.924 257.853 521.715 241.78C523.355 241.374 525.274 240.916 527.492 240.386L528.597 240.123C533.8 238.88 540.036 237.369 546.15 235.575C552.17 233.808 558.711 231.587 564.394 228.754C566.538 227.685 569.177 226.239 571.802 224.303C576.524 231.187 580.999 238.287 585.674 245.704C586.832 247.541 588.003 249.398 589.192 251.275C596.095 262.173 603.523 273.58 612.202 284.437C615.421 288.464 619.652 295.878 623.096 304.334C626.321 312.251 628.064 319.152 628.344 323.485C628.32 323.965 628.317 324.45 628.336 324.939C629.414 353.435 638.16 383.156 645.59 407.856C646.104 409.567 646.604 411.291 647.09 413.026C644.946 418.044 641.306 423.606 636.057 429.419C627.244 439.179 615.81 447.477 606.153 452.333C586.177 462.377 566.388 471.46 546.417 478.85V432.785C546.417 396.996 542.928 360.525 539.558 325.297L539.557 325.293L539.557 325.29L539.557 325.287C538.571 314.98 537.595 304.78 536.72 294.735ZM472.975 158.519C502.204 166.354 529.259 179.491 550.423 199.129C550.232 199.23 550.027 199.336 549.806 199.446C546.669 201.009 542.265 202.593 536.942 204.156C531.713 205.69 526.208 207.031 520.999 208.275L519.503 208.632L519.498 208.633C515.076 209.686 510.493 210.778 507.189 211.804L507.068 211.841C497.904 194.116 486.867 175.306 472.975 158.519ZM354.431 531.321C354.214 564.467 353.569 597.545 352.921 630.741L352.918 630.869C352.595 647.394 352.272 663.949 352.002 680.534C338.087 682.196 324.114 683.201 309.137 683.201C295.064 683.201 282.078 683.066 269.542 682.005C267.823 674.99 265.549 666.978 261.636 659.167C253.487 642.9 248.294 618.95 244.359 598.133C241.678 583.949 238.707 570.703 235.84 557.923C233.649 548.154 231.519 538.658 229.627 529.225C239.89 530.423 250.418 531.321 260.785 531.321H354.431ZM233.017 675.363C232.78 674.842 232.534 674.327 232.279 673.817C221.772 652.842 215.93 624.433 212.107 604.207C209.869 592.37 207.198 580.454 204.491 568.38C201.289 554.101 198.039 539.603 195.399 524.756C194.523 524.651 193.655 524.551 192.794 524.455C168.33 521.721 146.394 510.195 127.417 499.781C125.795 498.891 124.194 498.009 122.612 497.138L122.609 497.136L122.604 497.133C115.984 493.486 109.701 490.025 103.594 486.917C104.56 506.417 106.431 525.612 109.199 545.688L109.401 547.158L109.776 549.9C112.234 567.88 114.295 582.949 119.812 598.284C122.843 606.711 127.336 614.546 132.819 623.055C134.331 625.402 135.985 627.894 137.708 630.491C141.867 636.757 146.43 643.631 150.365 650.523C151.583 652.656 152.792 654.748 153.993 656.8C154.614 656.751 155.245 656.735 155.883 656.756C178.285 657.475 199.33 664.41 217.943 670.543L217.947 670.545L217.961 670.549C223.179 672.268 228.205 673.925 233.017 675.363ZM177.297 692.134C186.051 694.188 194.816 697.06 204.401 700.199C210.37 702.155 216.658 704.214 223.458 706.246C230.073 708.222 236.617 709.775 243.102 710.997C244.107 714.144 245.28 717.345 246.686 720.503C249.918 727.76 253.817 734.653 257.414 740.883C257.928 741.773 258.434 742.647 258.933 743.508L259.194 743.958C233.432 738.369 214.869 728.864 199.53 715.825C191.598 709.081 184.333 701.233 177.297 692.134ZM280.531 715.021C290.129 715.428 299.649 715.472 309.137 715.472C324.008 715.472 337.969 714.562 351.556 713.073C351.412 726.48 351.327 739.907 351.327 753.354C351.327 753.78 351.342 754.203 351.373 754.621C350.927 754.625 350.481 754.627 350.033 754.627C342.286 754.627 334.912 755.357 328.298 756.095C327.033 756.236 325.805 756.376 324.609 756.513C319.304 757.118 314.599 757.655 309.856 757.918C307.233 758.064 304.342 758.538 302.076 758.939C301.369 759.064 300.56 759.213 299.724 759.37C299.634 758.038 299.537 756.708 299.429 755.529C299.296 754.073 299.112 752.409 298.829 750.802C298.611 749.563 298.094 746.825 296.721 744.085C293.755 738.164 290.373 732.33 287.284 727.001L287.24 726.924C286.769 726.112 286.305 725.312 285.851 724.525C283.937 721.21 282.153 718.071 280.531 715.021ZM383.516 708.593C383.346 723.152 383.24 737.712 383.236 752.29C389.25 751.779 395.599 751.369 402.194 751.361C402.245 751.356 402.328 751.348 402.444 751.333C402.803 751.289 403.319 751.208 403.959 751.081C405.127 750.848 406.422 750.517 407.615 750.129C411.394 740.324 420.022 728.498 436.747 728.498C438.691 728.498 442.785 727.043 448.402 720.485C453.648 714.361 457.993 706.28 460.537 699.748C461.119 698.255 461.712 696.756 462.314 695.254C445.921 697.793 429.695 700.372 413.565 703.298L412.384 703.512L412.378 703.513L412.35 703.518L412.343 703.519C402.577 705.291 393.033 707.022 383.516 708.593ZM500.328 689.348C497.052 696.984 493.946 704.387 491.127 711.622C487.595 720.687 481.549 732.202 473.348 741.775C470.404 745.212 466.811 748.819 462.605 751.983C470.668 750.481 478.881 749.295 486.642 748.174C491.608 747.457 496.39 746.766 500.828 746.037C515.401 743.643 528.513 740.586 540.766 734.721C548.808 730.871 556.813 727.639 564.364 724.67C565.822 724.096 567.257 723.535 568.671 722.982C574.729 720.612 580.414 718.388 586.025 715.955C599.657 710.044 611.376 703.492 621.484 693.411C624.886 690.017 628.155 683.853 631.495 674.692C633.073 670.364 634.492 665.89 635.97 661.229L636.018 661.077C637.461 656.528 639.011 651.642 640.684 647.245C642.916 641.376 644.989 635.754 646.846 630.226C637.72 639.049 628.269 644.017 618.969 648.906C617.361 649.751 615.757 650.594 614.161 651.455C610.224 653.575 606.196 655.903 601.841 658.421L601.838 658.422L600.954 658.933C596.345 661.597 591.404 664.44 586.332 667.127C576.273 672.455 564.783 677.677 552.357 680.166C535.027 683.638 517.624 686.592 500.328 689.348ZM659.563 562.71C656.292 564.016 653.435 566.352 651.548 569.536C651.413 569.624 651.239 569.735 651.02 569.869L650.942 569.916L650.8 570.001L650.528 570.161L650.479 570.19C648.549 571.323 643.8 574.112 640.022 578.738C636.031 583.624 633.511 589.99 632.024 593.746L632.007 593.789L632.005 593.794C631.864 594.149 631.733 594.481 631.61 594.785C629.677 599.591 628.54 601.905 627.382 603.291C620.771 611.204 614.94 614.306 603.532 620.374L603.527 620.377C601.898 621.243 600.157 622.169 598.283 623.178C593.888 625.546 589.445 628.114 585.194 630.572L584.213 631.139C579.578 633.818 575.125 636.376 570.66 638.741C561.645 643.516 553.49 647.001 545.754 648.55C535.693 650.566 525.576 652.407 515.399 654.145C517.204 649.78 518.981 645.374 520.699 640.945C530.362 616.034 538.644 589.2 539.856 561.979C540.265 552.803 541.523 543.793 542.909 533.868C543.059 532.801 543.209 531.723 543.36 530.633C544.09 525.375 544.825 519.878 545.392 514.191C571.428 505.471 596.429 494.128 620.832 481.858C632.395 476.044 645.239 467.006 656.124 456.072C658.559 472.272 660.097 488.744 660.945 504.808C661.989 524.591 661.412 543.579 659.563 562.71ZM477.137 660.299C474.226 660.749 471.309 661.198 468.387 661.648L468.236 661.671C448.125 664.768 427.77 667.902 407.566 671.566C399.43 673.042 391.618 674.459 383.994 675.765C384.245 660.994 384.533 646.213 384.823 631.404L384.823 631.369C385.472 598.161 386.123 564.813 386.341 531.321H446.593C468.968 531.321 490.426 528.577 511.163 523.857C511.06 524.614 510.955 525.375 510.849 526.141C510.698 527.225 510.545 528.321 510.39 529.429C509.03 539.136 507.548 549.708 507.067 560.524C506.091 582.428 499.317 605.332 490.091 629.117C486.051 639.532 481.634 649.893 477.137 660.299ZM482.166 77.6701C487.372 72.6719 492.69 67.5393 497.964 62.2131C497.936 62.4785 497.911 62.7384 497.89 62.9915C497.346 69.6682 498.771 76.6245 500.451 82.0695C502.168 87.6337 504.741 93.509 507.899 98.1075C510.676 102.15 514.818 104.911 519.544 105.907C523.826 106.809 527.538 106.06 529.996 105.228C534.558 103.683 538.572 100.598 541.164 96.9116C541.716 96.1278 543.228 94.7121 547.046 92.7745C548.847 91.8603 550.814 90.9965 553.088 90.0287C553.43 89.8833 553.787 89.7321 554.156 89.5759C556.044 88.7766 558.237 87.8477 560.226 86.9086C560.213 86.9149 560.225 86.9107 560.263 86.8963L560.43 86.8331C560.6 86.768 560.874 86.6631 561.253 86.5211C558.75 91.6316 556.148 96.5411 553.347 101.287C551.848 103.825 550.866 106.48 550.302 108.055C550.072 108.695 549.833 109.388 549.632 109.969L549.631 109.973L549.453 110.488C549.259 111.046 549.097 111.506 548.947 111.911C543.653 116.212 541.407 123.554 543.888 130.315C547.012 138.83 556.446 143.2 564.96 140.076C570.488 138.048 573.854 134.205 575.722 131.461C577.576 128.737 578.751 125.921 579.47 124.046C579.926 122.859 580.5 121.201 580.883 120.096C581.028 119.679 581.146 119.338 581.219 119.134C581.489 118.38 581.647 118.003 581.702 117.872L581.722 117.825C586.329 110.006 590.339 102.048 594.043 94.0353C594.914 92.1534 595.811 90.5958 597.018 88.5013C597.817 87.1137 598.752 85.4905 599.905 83.3811C602.247 79.097 605.325 72.9876 606.511 66.0172C607.457 60.4556 605.677 54.3066 600.804 50.1035C597.137 46.9415 593.169 46.1831 591.601 45.9418C588.14 45.4096 584.776 45.8349 582.938 46.1077C578.599 46.7513 573.361 48.1212 568.744 49.4672C559.684 52.1083 549.134 55.8261 546.202 57.2107C544.872 57.8389 543.425 58.4525 541.55 59.2474C541.132 59.4247 540.692 59.611 540.228 59.8085C537.867 60.8132 535.036 62.0394 532.183 63.4874C531.752 63.7063 531.31 63.9351 530.859 64.1746C530.893 63.9858 530.931 63.7821 530.973 63.5625C531.218 62.2813 531.533 60.7925 531.92 58.9659L531.921 58.9624L531.959 58.7826C532.723 55.1733 533.725 50.4402 534.364 45.8197C534.953 41.5599 535.523 35.5751 534.441 29.9702C533.883 27.0743 532.647 22.9658 529.571 19.2226C526.114 15.0161 521.22 12.3751 515.715 11.7954C509.23 11.1126 503.839 13.4252 500.636 15.1741C497.19 17.0562 494.162 19.4629 491.796 21.5541C488.073 24.845 484.384 28.8564 482.235 31.1923C481.744 31.7268 481.332 32.1746 481.02 32.5048C474.129 39.7961 466.918 46.7797 459.419 53.9805L457.26 56.0529C450.505 62.534 443.518 69.2374 436.712 76.2186C430.381 82.7125 430.513 93.1091 437.007 99.44C443.501 105.771 453.898 105.639 460.229 99.1447C466.629 92.5795 473.215 86.2595 480.03 79.7203L482.166 77.6701ZM691.207 180.412C690.044 181.169 688.755 182.008 687.308 182.935C685.618 184.018 683.863 185.455 681.339 187.631C681.1 187.838 680.85 188.054 680.59 188.279L680.576 188.291C678.39 190.183 675.528 192.66 672.442 194.857C659.191 204.289 648.372 207.207 635.047 210.283C626.21 212.324 617.392 206.814 615.352 197.978C613.312 189.141 618.821 180.323 627.658 178.283C639.768 175.486 645.489 173.729 653.396 168.101C655.141 166.858 656.801 165.426 659.181 163.372L659.894 162.756C662.403 160.593 665.726 157.758 669.587 155.284C670.223 154.876 670.959 154.384 671.786 153.831C676.885 150.423 685.411 144.724 694.788 142.559C703.625 140.519 712.442 146.028 714.483 154.865C716.523 163.702 711.013 172.519 702.177 174.56C699.114 175.267 696.426 177.016 691.207 180.412ZM773.914 107.164C766.222 102.358 756.091 104.697 751.286 112.388C750.95 112.926 750.649 113.475 750.382 114.033C748.989 114.624 747.525 115.188 746.195 115.67C744.962 116.117 744.124 116.393 743.725 116.525C743.412 116.628 743.367 116.643 743.611 116.582C734.816 118.798 729.484 127.724 731.701 136.519C733.918 145.313 742.844 150.645 751.638 148.428C753.427 147.977 760.325 145.692 766.165 142.95C768.726 141.749 773.223 139.508 776.624 136.216C778.057 134.828 782.221 130.531 782.637 123.639C783.17 114.816 777.513 109.413 773.914 107.164Z" fill="#FB3EFF"/>
</svg>
