<svg width="669" height="800" viewBox="0 0 669 800" fill="none" xmlns="http://www.w3.org/2000/svg">
<path fill-rule="evenodd" clip-rule="evenodd" d="M140.897 61.1332C131.404 66.1052 121.196 71.3572 110.14 76.1256C106.726 77.5983 103.392 79.2147 100.143 80.9667C104.838 82.1375 109.171 84.1955 112.897 87.2549C121.393 78.6472 132.582 72.8525 146.003 71.6114C145.75 69.0824 146.066 66.7402 146.623 64.8119C148.169 59.463 151.794 56.2631 152.726 55.4399L152.761 55.409C153.297 54.9359 153.84 54.4965 154.373 54.0925C151.185 55.7339 147.945 57.4346 144.606 59.188L144.592 59.1952C143.375 59.8343 142.144 60.4804 140.897 61.1332ZM171.497 45.7876C171.955 45.6796 172.437 45.5811 172.929 45.5022C193.18 42.2575 216.971 39.8555 240.573 41.134C244.745 41.36 248.95 41.703 253.16 42.1844C241.465 37.2134 230.833 34.3041 222.23 34.1955C203.553 33.9597 187.713 38.5906 171.497 45.7876ZM576.247 49.6962C576.795 49.94 577.341 50.1964 577.886 50.4661C585.981 54.47 592.182 60.6403 598.13 67.0924C607.348 77.0935 611.517 89.5158 614.083 99.7151C614.467 101.241 614.829 102.777 615.171 104.299C615.797 105.725 616.391 107.126 616.957 108.488C618.034 111.079 618.949 113.367 619.804 115.503C621.071 118.669 622.204 121.503 623.535 124.5C628.224 135.067 628.034 146.04 627.912 153.009C627.895 154.006 627.879 154.921 627.879 155.741C627.879 156.804 627.855 157.988 627.762 159.139L627.758 159.197C627.73 159.6 627.595 161.547 626.852 163.868C627.767 174.933 627.879 185.836 627.879 196.987V250.291C630.758 240.557 632.678 232.261 632.819 224.477C632.972 216.075 632.922 207.831 632.87 199.357V199.353C632.844 195.001 632.817 190.588 632.817 186.063C632.817 178.893 633.137 171.475 633.446 164.358L633.455 164.148L633.455 164.145C633.767 156.974 634.067 150.055 634.107 143.226C634.187 129.29 633.136 117.247 629.625 107.23C620.075 79.9876 600.299 57.5958 576.247 49.6962ZM369.611 729.867C376.219 723.145 382.986 716.075 388.757 708.984C391.636 705.447 395.354 702.054 400.231 697.8C400.68 697.409 401.141 697.007 401.613 696.597C405.894 692.876 411.052 688.393 415.592 683.407C421.423 677.002 426.418 670.193 430.883 663.891C431.99 662.327 433.055 660.812 434.092 659.335C437.4 654.622 440.433 650.302 443.728 646.073C456.119 630.166 467.694 613.705 479 597.628L480.04 596.149C491.76 579.483 503.228 563.232 515.494 547.662C541.245 514.972 561.194 478.13 580.336 442.781C586.888 430.679 593.347 418.752 599.91 407.227C601.133 405.081 602.36 402.932 603.589 400.781C623.173 366.498 643.223 331.401 652.204 289.203C653.581 282.729 655.51 276.516 657.695 269.478L657.696 269.474C658.598 266.566 659.545 263.515 660.515 260.249C663.613 249.809 666.707 237.771 666.938 225.096C667.098 216.299 667.044 207.314 666.992 198.582L666.992 198.566C666.966 194.322 666.941 190.137 666.941 186.063C666.941 179.757 667.224 173.08 667.538 165.834L667.559 165.349C667.862 158.371 668.187 150.899 668.23 143.423C668.318 128.266 667.294 111.553 661.833 95.9746C646.456 52.1082 605.415 8.04601 549.285 12.9193C524.918 15.0349 504.804 29.4751 489.225 44.2506C477.766 55.1188 467.046 67.9468 458.185 78.5493C455.086 82.258 452.214 85.6944 449.618 88.6794C430.013 111.219 410.293 136.41 393.736 163.446C393.451 160.597 393.251 157.839 393.145 155.213C392.3 134.141 390.392 105.053 374.364 82.1518C364.919 68.6578 352.201 59.035 340.075 51.3931C333.981 47.5523 327.74 44.0356 321.932 40.7838L320.666 40.0753C315.222 37.029 310.211 34.2246 305.491 31.3276C294.99 24.8821 281.753 17.284 267.742 11.2249C253.956 5.26352 238.113 0.20639 222.664 0.0113357C195.701 -0.329099 173.706 7.04155 153.706 16.3031C145.147 20.2664 136.719 24.6931 128.576 28.9695C127.366 29.6054 126.161 30.2379 124.964 30.8652C115.55 35.7957 106.318 40.528 96.5367 44.7469C59.5566 60.6976 30.5042 89.6409 12.9867 124.587C3.66187 143.189 1.07808 158.916 1.07808 178.282C1.07808 184.149 0.8464 189.313 0.595719 194.901C0.386472 199.565 0.163988 204.524 0.0519553 210.433C-0.165667 221.911 0.196862 234.65 3.15959 246.893C5.29357 255.711 7.35763 264.904 9.45775 274.258C13.0946 290.456 16.8399 307.138 21.2435 323.186C28.9631 351.321 40.3206 379.322 51.1521 406.025L51.1534 406.029C55.5913 416.97 59.9408 427.693 63.9157 438.119C81.7267 484.836 103.835 529.623 133.478 571.017C150.836 595.256 167.322 620.112 183.983 645.275L185.123 646.998L185.127 647.002C200.29 669.905 215.617 693.055 231.673 715.826C231.7 717.979 232.138 720.162 233.028 722.267C233.022 722.252 239.018 737.722 245.312 751.316C248.455 758.104 252.136 765.473 255.717 770.945C257.332 773.416 259.866 776.992 263.223 779.696C264.668 780.86 267.46 782.853 271.398 783.794C272.163 787.304 273.876 791.293 277.522 794.659C283.45 800.13 290.495 800.313 294.44 799.823C301.52 798.945 308.09 794.9 311.943 792.297C316.56 789.177 321.097 785.418 324.734 782.023C327.807 779.153 332.011 774.927 334.307 770.915C336.34 767.363 338.75 763.842 341.479 760.299C341.767 760.313 342.058 760.321 342.354 760.323C349.294 760.355 353.797 756.515 355.268 755.153C358.55 752.117 360.607 748.202 361.471 746.516C363.696 742.177 365.374 737.375 365.356 737.426C366.11 735.349 367.225 733.572 369.611 729.867ZM56.5664 322.059C56.4885 321.331 56.411 320.605 56.3337 319.882C55.6498 313.478 54.9861 307.265 54.2745 301.345C51.5006 278.267 50.7119 255.343 50.6448 232.728C49.6295 232.222 48.6706 231.618 47.7842 230.931C44.5849 228.451 43.1165 225.519 42.5567 224.277C41.4025 221.715 41.1053 219.385 41.0175 218.697L41.0164 218.688C40.6178 215.564 40.8246 211.404 40.9613 208.846C41.1332 205.632 41.3497 202.623 41.5424 199.944C41.7859 196.561 41.9914 193.704 42.021 191.627C42.1732 180.957 42.7249 155.833 47.3041 133.042C46.0237 135.283 44.8026 137.561 43.6424 139.876C37.222 152.684 35.3523 162.914 35.3523 178.282C35.3523 184.069 35.0571 191.208 34.778 197.96C34.5808 202.73 34.3915 207.308 34.32 211.08C34.1187 221.698 34.5577 230.94 36.4769 238.871C38.9085 248.919 41.0788 258.608 43.2123 268.133C46.684 283.632 50.0583 298.696 54.3019 314.162C55.0272 316.805 55.7829 319.437 56.5664 322.059ZM135.017 434.172C133.803 431.316 132.518 428.413 131.138 425.496C133.388 422.922 134.56 420.373 135.026 419.359C136.263 416.668 137.134 413.796 137.761 411.379C138.788 407.417 139.594 402.922 140.197 398.833C142.106 403.395 143.906 408.145 145.685 413.083C146.985 416.693 148.322 420.55 149.697 424.516C152.269 431.936 154.974 439.74 157.817 447.013C158.47 448.685 159.131 450.385 159.802 452.112C163.745 462.249 168.027 473.262 172.958 484.309C169.129 488.044 168.264 492.332 168.027 493.761C167.722 495.597 167.788 497.074 167.834 497.761C167.932 499.196 168.193 500.309 168.283 500.686C168.618 502.085 169.124 503.391 169.286 503.81L169.305 503.86C169.813 505.176 170.578 506.979 171.464 509.011C175.078 517.298 182.484 533.404 191.484 552.42C193.468 556.613 195.539 560.966 197.673 565.428C191.417 555.015 185.456 544.53 179.932 533.82C167.925 510.538 157.021 487.431 146.788 463.35C144.886 458.874 143.065 454.238 141.127 449.304L141.122 449.292C139.213 444.431 137.191 439.286 135.017 434.172ZM170.544 505.719C170.544 505.719 170.579 505.772 170.655 505.905C170.584 505.79 170.544 505.719 170.544 505.719ZM308.492 664.493C305.223 669.789 302.571 675.209 300.373 680.765C300.13 674.337 299.193 667.052 296.295 659.742C297.207 659.313 298.074 658.806 298.887 658.23C299.067 658.103 299.241 657.975 299.411 657.845C301.159 660.236 304.057 663.047 308.492 664.493ZM356.26 614.489C355.092 615.791 353.889 617.072 352.65 618.343C363.363 600.205 373.675 581.831 383.605 563.26C383.76 563.506 383.925 563.753 384.1 564.001C385.329 565.741 387.709 568.302 391.235 569.92C389.955 571.64 388.685 573.352 387.424 575.053L385.542 577.59C375.834 590.666 366.523 603.054 356.26 614.489ZM476.5 468.593C466.922 479.341 457.464 490.206 448.081 501.083C452.661 493.335 457.303 485.616 461.981 477.835C467.203 469.15 472.472 460.387 477.755 451.42C477.244 457.125 476.817 462.852 476.5 468.593ZM518.857 397.383C520.49 385.863 522.15 374.156 523.601 362.342C524.669 360.479 525.719 358.573 526.696 356.668C527.484 355.133 528.28 353.587 529.081 352.029L529.129 351.936C535.701 339.171 542.655 325.662 548.453 311.236C545.8 321.412 543.116 331.606 540.424 341.836C537.311 353.661 534.185 365.536 531.078 377.49C528.598 387.032 524.941 395.414 520.559 405.457C519.537 407.8 518.476 410.232 517.38 412.791C517.028 413.616 516.685 414.442 516.351 415.271C516.843 411.676 517.347 408.065 517.858 404.437C518.189 402.094 518.522 399.742 518.857 397.383ZM575.431 198.921C571.04 219.928 566.212 240.71 561.12 261.43C562.29 251.523 563.414 239.022 563.798 226.899C564.145 215.937 563.934 204.182 562.244 194.535C562.176 194.147 562.105 193.754 562.029 193.357C564.815 193.918 567.594 194.253 570.264 194.253C572.036 194.253 574.224 194.007 576.526 193.22C576.22 194.987 575.857 196.883 575.431 198.921ZM542.486 128.739C540.365 128.739 538.26 128.839 536.173 129.029C536.387 128.836 536.699 128.589 537.139 128.306C539.017 127.099 541.849 126.129 544.704 125.743C545.215 126.233 546.065 127.171 547.288 128.877C547.366 128.985 547.444 129.094 547.521 129.203C545.901 128.907 544.219 128.739 542.486 128.739ZM544.108 125.264C544.107 125.256 544.163 125.283 544.279 125.372C544.167 125.317 544.109 125.273 544.108 125.264ZM580.582 323.308C585.061 306.161 589.486 288.968 593.747 271.69V282.222C593.687 282.857 593.649 283.427 593.624 283.911C593.576 284.841 593.563 285.747 593.582 286.569C593.591 286.965 593.611 287.478 593.658 288.04C593.68 288.312 593.722 288.745 593.798 289.262L593.802 289.289C593.844 289.582 594.042 290.94 594.607 292.542L594.624 292.59C594.744 292.936 595.187 294.209 596.148 295.778C595.138 297.644 594.025 299.604 592.816 301.675C591.998 303.077 591.117 304.557 590.199 306.1C587.087 311.331 583.548 317.278 580.582 323.308ZM347.496 669.971C351.339 666.123 355.322 662.5 359.613 658.628C358.483 660.859 357.485 663.11 356.596 665.315C355.141 667.71 352.913 671.128 349.889 675.763C345.875 681.913 340.972 689.462 336.542 697.175C332.192 704.751 327.811 713.309 325.213 721.503L325.2 721.546C325.345 720.473 325.469 719.503 325.574 718.689L325.574 718.685L325.595 718.524C325.752 717.302 325.826 716.765 325.851 716.584L325.86 716.52C325.861 716.509 325.861 716.511 325.861 716.511C329.654 696.25 334.808 682.677 347.496 669.971ZM489.171 139.693C489.139 139.632 489.107 139.571 489.075 139.51C488.661 139.996 488.246 140.489 487.83 140.989C484.544 144.942 481.549 148.898 478.301 153.196C482.969 150.129 487.807 147.093 492.648 144.342L492.721 144.301C491.327 143.009 490.174 141.516 489.288 139.908C489.248 139.836 489.209 139.764 489.171 139.693ZM201.054 122.714C203.522 124.045 205.971 125.411 208.402 126.803C207.651 129.055 207.045 131.391 206.549 133.662C205.064 129.931 203.258 126.224 201.054 122.714ZM168.003 136.431C168.683 136.848 169.394 137.437 170.116 138.215C168.841 138.504 167.566 138.831 166.298 139.202C164.394 139.259 162.513 139.306 160.661 139.342C161.233 138.049 161.802 136.973 162.35 136.101C162.91 135.212 163.354 134.684 163.638 134.391C164.369 134.549 165.743 135.048 168.003 136.431ZM153.663 200.141C153.677 198.366 153.691 196.599 153.703 194.839C154.964 196.181 156.265 197.397 157.512 198.482C157.881 198.802 158.256 199.12 158.637 199.437C156.48 203.795 154.84 208.311 153.587 213.075C153.595 208.73 153.629 204.413 153.663 200.141ZM437.958 450.793C439.081 448.049 440.181 445.286 441.253 442.506C441.501 443.089 441.813 443.732 442.205 444.408C440.618 447.065 439.021 449.731 437.417 452.405L437.958 450.793ZM475.981 207.703C474.364 212.874 472.908 218.172 471.615 223.081C470.522 221.663 469.086 220.243 467.199 219.025C460.347 214.602 453.47 216.346 450.152 217.879C448.674 218.562 447.44 219.373 446.463 220.129C446.279 219.493 446.087 218.859 445.889 218.227C454.604 211.029 463.888 204.239 473.567 197.778C476.276 195.969 478.944 194.138 481.599 192.303C479.399 197.352 477.549 202.689 475.981 207.703ZM202.053 415.292C201.302 413.905 200.566 412.526 199.849 411.153C199.818 409.701 199.765 408.249 199.694 406.84C199.469 402.336 197.79 398.816 196.665 396.835C195.425 394.648 193.977 392.808 192.717 391.394C191.782 390.345 190.727 389.282 189.598 388.27C188.206 384.377 187.043 380.531 186.147 376.724C183.231 356.041 182.598 335.021 182.492 312.597C182.676 312.064 182.846 311.534 183.006 311.011C184.302 306.763 186.61 298.648 187.908 290.289C188.555 286.129 189.041 281.36 188.86 276.689C188.824 275.76 188.759 274.724 188.64 273.613C195.88 259.758 202.521 243.81 207.205 227.388C210.217 228.801 213.642 230.293 217.086 231.551C219.388 232.392 222.119 233.291 225.047 233.98C225.16 235.583 225.32 237.266 225.52 239.007C222.108 237.896 217.749 237.632 213.267 239.611C208.466 241.731 206.111 245.339 205.219 246.919C204.215 248.698 203.742 250.275 203.526 251.084C203.084 252.742 202.959 254.17 202.91 254.821C202.719 257.353 202.905 260.696 203.146 263.955C203.998 275.475 206.004 286.624 208.509 297.347C203.331 296.242 198.299 297.657 194.613 300.432C191.425 302.831 189.929 305.688 189.37 306.858C188.197 309.312 187.85 311.541 187.749 312.188L187.747 312.197C187.282 315.182 187.393 318.903 187.489 321.195C187.713 326.508 188.419 334.236 189.447 338.932C195.699 367.498 207.293 393.782 218.958 418.381C219.156 418.801 219.62 419.804 220.306 421.287C223.759 428.759 232.843 448.413 242.137 467.135C247.708 478.356 253.565 489.676 258.538 498.172C260.971 502.329 263.513 506.368 265.928 509.47C267.06 510.925 268.759 512.956 270.912 514.7C271.983 515.568 273.837 516.92 276.373 517.901C278.958 518.902 283.458 519.952 288.621 518.228C289.263 518.014 289.869 517.771 290.439 517.507C295.033 539.432 299.237 561.204 302.415 583.126L302.429 583.221C301.534 587.345 300.697 591.49 299.931 595.655C294.586 576.323 286.245 558.154 276.998 541.144C269.051 526.525 260.211 512.375 251.749 498.929L250.112 496.328C242.152 483.687 234.62 471.725 228.035 459.938C224.36 453.361 220.335 446.633 216.386 440.03L214.927 437.591C210.457 430.11 206.088 422.731 202.053 415.292ZM265.175 436.492C262.844 431.639 260.644 426.996 258.672 422.802C261.318 420.015 262.586 417.008 263.201 415.264C263.759 413.682 264.142 412.064 264.409 410.518C264.456 412.653 264.512 414.871 264.574 417.127C264.742 423.259 264.958 429.887 265.175 436.492ZM316.68 477.174C312.679 458.801 308.724 440.638 305.175 422.47C306.216 423.83 308 425.775 310.658 427.288C312.986 428.613 316.589 429.935 321.018 429.492C322.982 429.296 324.737 428.79 326.276 428.112C326.414 429.119 326.56 430.126 326.713 431.131C328.463 442.655 331.23 454.581 335.647 465.265C335.826 465.701 336.01 466.136 336.197 466.572C335.889 469.105 335.579 471.506 335.278 473.557C334.711 475.594 334.064 477.692 333.347 479.863C332.049 483.796 330.615 487.708 329.074 491.911L328.529 493.397C326.825 498.05 325.013 503.054 323.437 508.148L323.387 508.311C321.755 500.565 320.09 492.854 318.423 485.18C317.866 482.619 317.309 480.061 316.753 477.508L316.68 477.174ZM280.714 263.143C282.344 274.054 284.536 285.159 286.894 296.161C279.55 279.914 273.39 263.601 269.174 246.435L269.097 245.916C268.971 245.085 268.791 243.909 268.563 242.504C268.217 240.371 267.752 237.653 267.194 234.772C270.487 234.904 273.983 234.563 277.548 233.464C278.414 233.197 279.378 232.847 280.39 232.385C280.344 232.506 280.306 232.613 280.274 232.704C279.669 234.419 279.474 235.865 279.419 236.274C279.333 236.904 279.292 237.445 279.271 237.793C279.194 239.026 279.213 240.374 279.234 241.308C279.281 243.441 279.421 246.26 279.583 249.01C279.885 254.124 280.377 260.884 280.714 263.143ZM269.268 247.067L269.262 247.023C269.309 247.302 269.317 247.388 269.268 247.067ZM397.294 447.441C397.329 447.643 397.366 447.859 397.404 448.091C398.807 445.176 400.172 441.973 401.518 438.661C402.935 435.171 404.234 431.763 405.403 428.407C402.482 433.457 399.55 438.496 396.612 443.526C396.775 444.457 396.937 445.389 397.1 446.321L397.134 446.514C397.178 446.771 397.233 447.081 397.294 447.441ZM331.716 288.546C330.773 286.413 329.915 284.21 329.107 281.919C330.895 281.225 332.698 280.163 334.433 278.609C335.685 277.488 336.664 276.291 337.43 275.111C337.514 276.515 337.607 277.955 337.705 279.383C338.386 289.355 339.522 302.243 339.946 305.054C340.047 305.722 340.148 306.387 340.251 307.05C337.233 300.682 334.34 294.481 331.716 288.546ZM386 353.175C385.22 355.52 384.42 358.045 383.695 360.73C383.372 358.244 383.026 355.762 382.662 353.286C383.847 353.364 384.962 353.314 386 353.175ZM133.241 116.493C131.755 119.041 130.524 121.976 129.595 125.178C131.004 122.034 132.726 118.833 134.847 115.811C134.306 116.034 133.77 116.261 133.241 116.493ZM162.96 134.371C162.946 134.341 163.077 134.302 163.396 134.347C163.133 134.424 162.973 134.402 162.96 134.371Z" fill="#F542D9"/>
</svg>
