<svg width="800" height="695" viewBox="0 0 800 695" fill="none" xmlns="http://www.w3.org/2000/svg">
<path fill-rule="evenodd" clip-rule="evenodd" d="M255.034 51.5515C255.095 51.3221 255.157 51.0915 255.219 50.8594C256.042 47.7621 256.934 44.4087 258.1 40.4632C260.642 31.8635 264.136 22.0636 270.433 12.9884C271.505 11.4425 272.941 9.62277 274.808 7.97593C276.585 6.4088 279.724 4.13718 284.183 3.31891C289.286 2.38238 294.164 3.70883 297.912 6.37997C299.664 7.62889 300.995 9.03849 301.994 10.3501C303.408 9.03146 305.183 7.83699 307.414 6.95003C315.053 3.91189 321.442 7.26368 323.24 8.28879C327.056 10.4648 329.828 13.4991 331.555 15.6262C333.452 17.9627 335.105 20.4902 336.461 22.7639C339.177 27.3187 341.392 32.0268 342.644 34.8367C342.883 35.3736 342.939 35.5242 343.032 35.6471C343.193 35.8592 343.463 35.9886 344.975 37.8826C345.081 37.6206 345.187 37.3592 345.295 37.0984C346.951 33.0728 349.019 28.6208 351.514 24.6599C353.697 21.1954 357.603 15.7864 363.782 12.7039C365.919 11.6379 371.96 9.08662 378.963 12.0187C386.367 15.1187 388.627 21.6538 389.264 24.2123C389.716 26.0279 389.857 27.7313 389.882 29.0791C391.049 26.0281 392.414 23.0122 393.977 20.6504C394.768 19.4548 396.437 17.1126 399.184 15.1585C402.253 12.976 408.432 10.2386 415.639 13.0516C421.59 15.3741 424.259 20.0896 425.162 21.8843C426.279 24.1031 426.87 26.2867 427.217 27.8468C427.667 29.8648 428.033 31.9064 428.329 33.9586C428.678 33.9261 429.039 33.8916 429.42 33.8552C430.803 33.7231 432.439 33.5668 434.626 33.3947C438.607 33.0814 443.614 32.8136 448.634 33.2169C453.459 33.6045 459.872 34.7148 465.708 38.3079C467.474 39.3952 469.11 40.6642 470.583 42.1053C474.285 33.6207 479.056 25.6788 485.342 19.4071C491.54 13.223 499.773 11.5653 506.386 12.2973C512.979 13.027 520.908 16.4879 525.507 24.3534C527.823 28.3147 529.351 32.6165 530.367 36.882C533.419 37.0246 536.33 38.0014 538.779 39.6037C539.308 39.9499 539.795 40.3111 540.243 40.6787C544.144 35.166 549.368 29.7197 556.369 26.2272C558.612 25.1082 561.707 24.0972 565.403 24.2219C569.256 24.3518 572.674 25.6832 575.382 27.6271C579.937 30.8969 581.831 35.3748 582.593 37.5109C584.246 36.2744 586.332 35.1292 588.891 34.4634C592.803 33.4456 596.954 33.7994 600.667 35.5216C603.354 36.7678 605.268 38.4711 606.557 39.9242C608.572 36.9244 611.376 34.1614 615.131 32.2935C619.885 29.929 626.307 29.1292 632.565 32.2098C638.122 34.9452 641.205 39.6094 642.889 43.156C646.018 49.7475 648.261 56.9942 649.841 64.5645C649.85 62.3383 649.852 60.1608 649.852 58.0467V37.3715L682.704 37.3706V68.9054C682.951 68.0343 683.202 67.1526 683.458 66.2582L683.471 66.2127C683.629 65.6539 684.404 62.9174 686.645 60.2253C687.945 58.6635 690.647 56.0258 695.061 54.851C699.929 53.5554 704.327 54.7011 707.361 56.404C711.813 58.9023 713.701 62.7289 713.959 63.2532C713.969 63.273 713.977 63.2881 713.982 63.2982C714.558 64.4269 714.88 65.3832 715.016 65.804C715.473 67.2221 715.696 68.5916 715.76 68.9906L715.768 69.0368C715.973 70.288 716.169 71.9026 716.346 73.5023C716.716 76.8405 717.142 81.4016 717.541 86.033C718.3 94.8305 719.118 105.638 719.118 108.507V172.657C721.36 160.079 722.678 147.514 722.678 134.141C722.678 124.032 723.645 114.109 724.529 105.031L724.576 104.55C725.498 95.0848 726.32 86.4655 726.32 77.8271V67.6628L759.173 67.6639V119.186C764.583 119.52 768.344 122.483 770.121 124.389C772.05 126.457 772.951 128.509 773.263 129.257C773.954 130.911 774.208 132.313 774.271 132.661L774.274 132.678C774.375 133.236 774.428 133.69 774.454 133.938C774.543 134.78 774.556 135.54 774.561 135.755C774.586 136.976 774.552 139.028 774.507 141.189C774.447 144.065 774.352 147.725 774.249 151.69C774.014 160.752 773.738 171.409 773.738 177.94C773.738 197.481 771.058 217.001 768.066 235.58C767.318 240.23 766.555 244.795 765.803 249.295C763.898 260.696 762.062 271.678 760.705 282.568C760.799 287.795 760.895 293.024 760.991 298.254L760.992 298.347C761.014 299.522 761.035 300.697 761.057 301.872C763.466 303.07 765.165 304.643 766.079 305.659C767.905 307.693 768.755 309.681 769.029 310.341C769.4 311.237 769.615 311.983 769.724 312.394C769.945 313.221 770.052 313.887 770.093 314.158C770.24 315.121 770.273 315.955 770.276 316.007C770.29 316.291 770.298 316.56 770.303 316.773C770.308 317.011 770.312 317.268 770.315 317.537C770.317 317.763 770.318 317.997 770.319 318.236C770.322 320.205 770.273 323.64 770.1 327.557C770.098 328.475 770.097 329.466 770.097 330.532C770.097 332.94 770.812 338.63 772.03 348.074C773.149 356.754 774.51 367.46 775.264 377.982C776.003 388.291 776.255 399.542 774.727 409.074C773.965 413.83 772.614 419.147 769.982 423.953C768.34 426.953 766.002 430.076 762.786 432.623C762.804 437.749 762.814 442.876 762.814 448.003C762.814 461.674 763.043 475.584 763.274 489.66C764.186 545.162 765.141 603.237 752.286 659.351C751.506 662.754 749.764 668.431 748.215 671.776C747.976 672.291 747.594 673.077 747.081 673.932L747.054 673.978C746.783 674.434 745.368 676.825 742.731 678.842C741.366 679.886 737.389 682.609 731.569 682.229C724.725 681.782 720.561 677.522 718.712 674.626C717.086 672.078 716.568 669.714 716.389 668.791C716.164 667.633 716.099 666.661 716.076 666.067C715.995 664.037 716.261 662.045 716.421 660.931C716.627 659.491 716.93 657.774 717.318 655.787C718.87 647.855 720.172 639.902 721.264 631.924C719.61 632.844 717.565 633.609 715.116 633.887C709.511 634.522 705.273 632.228 703 630.439C699.533 627.71 698.114 624.279 697.882 623.717C697.872 623.694 697.865 623.676 697.859 623.663C697.379 622.535 697.08 621.521 696.91 620.899C696.282 618.601 695.78 615.465 695.319 612.109C693.98 602.377 692.753 592.657 691.635 582.944C690.147 595.17 687.605 607.08 683.479 618.059C682.738 620.03 679.924 626.598 672.068 628.974C663.834 631.465 657.721 627.13 655.933 625.682C652.199 622.656 650.054 618.448 649.27 616.899C648.611 615.597 647.96 614.15 647.351 612.646C646.709 613.816 645.914 614.997 644.927 616.137C639.817 622.046 632.668 623.554 626.649 622.664C611.002 620.352 602.308 608.273 597.694 597.858C595.57 593.063 593.919 587.813 592.627 582.395C591.37 585.077 589.615 588.04 587.103 590.641C583.741 594.122 578.491 597.409 571.603 597.409C558.037 597.409 546.456 590.24 537.898 582.308C529.092 574.144 521.594 563.474 515.901 552.498C510.196 541.498 505.882 529.377 504.007 517.887C502.494 508.623 502.242 497.744 506.051 488.105C504.86 488.344 503.563 488.467 502.174 488.413C499.08 488.294 496.427 487.332 494.346 486.09C493.476 490.475 492.5 494.648 491.4 498.431C489.975 503.334 488.041 508.674 485.23 513.126C482.845 516.904 476.79 524.747 466.004 524.747C460.71 524.747 456.843 522.342 454.652 520.368C452.603 518.521 451.435 516.575 450.852 515.486C449.68 513.299 449.091 511.161 448.792 509.963C448.7 509.595 448.613 509.218 448.53 508.832C447.996 508.735 447.451 508.611 446.894 508.455C440.016 506.538 437.203 501.126 436.794 500.338L436.767 500.287C436.444 499.673 436.19 499.094 435.993 498.589C433.19 501.122 426.81 505.311 418.384 502.168C417.487 501.833 416.664 501.443 415.909 501.014C415.25 512.368 414.354 523.733 413.155 535.098C412.708 539.332 411.007 551.386 409.84 558.698C409.546 560.542 409.258 562.259 409.013 563.552C408.904 564.13 408.742 564.951 408.544 565.73C408.495 565.923 408.224 567.034 407.7 568.291C407.542 568.669 407.26 569.311 406.834 570.066C406.499 570.66 405.593 572.209 403.966 573.792C402.613 575.108 398.05 579.054 390.931 578.378C383.535 577.675 379.743 572.638 378.569 570.774C377.267 568.708 376.751 566.847 376.573 566.166C376.342 565.283 376.23 564.555 376.174 564.135C376.063 563.295 376.038 562.613 376.03 562.297C376.011 561.608 376.034 561.001 376.049 560.661C376.083 559.906 376.15 559.037 376.226 558.159C376.385 556.344 376.656 553.711 377.054 550.14C378.641 535.886 379.959 522.834 380.613 508.803C381.775 483.868 383.202 459.101 384.701 434.439C384.688 424.37 384.588 414.263 384.448 404.114C384.335 395.952 384.196 387.751 384.056 379.52C383.901 370.376 383.745 361.196 383.624 351.991C382.019 396.929 376.829 441.621 371.45 485.324C371.053 488.544 370.732 491.758 370.467 494.541C370.408 495.161 370.349 495.791 370.292 496.41C370.112 498.331 369.942 500.15 369.806 501.279C369.761 501.649 369.676 502.318 369.544 503.023C369.494 503.291 369.332 504.149 369.004 505.175C368.865 505.61 368.461 506.844 367.653 508.278C367.248 508.997 366.439 510.316 365.091 511.697C363.803 513.016 361.095 515.34 356.847 516.273C349.064 517.983 343.885 514.149 341.291 511.39C340.857 512.685 340.045 514.66 338.62 516.586C337.545 518.038 334.567 521.599 329.114 522.942C322.684 524.525 317.447 521.999 314.59 519.687C312.122 517.689 310.813 515.468 310.281 514.501C309.637 513.329 309.214 512.259 308.949 511.522C308.014 508.916 307.419 505.734 306.96 502.85C304.391 486.702 300.339 471.847 296.081 456.231C295.531 454.215 294.977 452.186 294.423 450.139C292.456 454.189 290.317 458.196 287.99 462.153C288.236 461.735 282.88 471.844 277.406 479.569C275.11 482.809 271.532 487.523 267.153 490.882C264.353 515.585 261.969 540.154 260.481 564.65C260.383 566.271 260.328 572.319 260.308 576.81C260.307 579.049 260.304 580.253 260.301 580.678C260.301 580.641 260.3 580.596 260.299 580.545L260.299 580.558C260.3 580.657 260.3 580.721 260.301 580.755L260.301 580.759C260.301 580.79 260.3 580.86 260.299 580.936C260.299 580.958 260.297 581.097 260.291 581.262C260.289 581.319 260.283 581.463 260.279 581.55C260.27 581.701 260.234 582.171 260.203 582.491C260.034 583.646 246.872 596.823 230.491 590.211C228.634 586.821 227.554 582.566 227.502 582.037C227.486 581.83 227.467 581.512 227.462 581.402C227.459 581.333 227.455 581.217 227.454 581.169C227.451 581.077 227.45 581.004 227.45 580.972C227.448 580.903 227.448 580.846 227.448 580.823L227.447 580.68C227.446 580.535 227.446 580.304 227.446 580.023C227.447 579.445 227.448 578.554 227.452 577.475C227.453 577.234 227.454 576.98 227.455 576.713C227.456 575.74 227.456 574.559 227.456 573.144C227.456 561.766 227.485 550.418 227.514 539.095C227.652 484.227 227.79 429.955 224.651 375.679C222.522 338.846 220.644 303.639 222.413 268.221C221.342 282.534 220.791 296.982 220.452 311.339C219.604 347.308 217.732 419.214 216.071 473.156C215.242 500.068 214.461 522.69 213.882 534.106C213.739 536.923 213.597 539.291 213.454 540.916L213.451 540.955C213.403 541.508 213.282 542.881 213.004 544.196C212.932 544.535 212.715 545.547 212.254 546.76C212.039 547.324 211.52 548.615 210.544 550.076C209.888 551.058 207.168 555.022 201.587 556.695C194.176 558.917 188.247 555.496 185.427 552.775C183.111 550.54 182.069 548.2 181.756 547.48C181.015 545.773 180.735 544.302 180.667 543.943L180.662 543.919C180.377 542.43 180.308 540.878 180.284 540.337L180.281 540.265C180.239 539.367 180.21 538.275 180.187 537.034C180.142 534.533 180.119 531.047 180.119 526.519C180.119 457.878 182.22 389.676 185.806 321.199C188.028 278.749 191.258 236.486 197.224 194.383C196.228 199.75 195.243 205.138 194.254 210.547C191.728 224.368 189.177 238.322 186.354 252.406C181.29 277.669 177.36 301.72 175.092 326.018C174.59 338.908 174.15 351.832 173.717 364.785C173.421 373.653 173.131 382.513 172.851 391.368C172.627 429.623 171.86 486.915 171.094 531.601C170.639 558.159 170.182 580.404 169.837 591.599C169.751 594.375 169.668 596.616 169.588 598.102C169.557 598.661 169.499 599.71 169.376 600.652C169.346 600.88 169.255 601.568 169.057 602.408C168.972 602.768 168.734 603.749 168.245 604.935C167.975 605.553 167.197 607.037 166.658 607.886C165.705 609.157 162.654 612.006 160.433 613.351C156.89 614.647 149.327 614.679 145.71 613.38C143.409 611.99 140.264 609.014 139.289 607.679C137.849 605.483 137.299 603.444 137.184 603.017L137.174 602.981C136.845 601.774 136.726 600.765 136.698 600.531L136.695 600.511C136.514 598.998 136.486 596.573 136.465 594.739L136.465 594.704C136.437 592.292 136.423 588.898 136.423 584.448C136.423 519.681 137.964 455.253 140.002 390.753C140.042 383.746 140.064 377.398 140.064 371.909C140.064 355.51 140.856 339.625 142.291 323.95C143.96 281.169 146.345 237.984 151.475 194.958C145.965 214.375 141.319 233.879 138.361 254.536C133.134 291.046 133.309 328.797 134.071 367.839C134.151 371.947 134.238 376.072 134.325 380.211C135.058 414.997 135.812 450.79 132.803 485.932C132.803 485.932 132.802 485.94 132.8 485.963L132.793 486.059C132.787 486.144 132.78 486.256 132.772 486.4C132.755 486.69 132.735 487.061 132.713 487.522C132.668 488.451 132.617 489.623 132.556 491.056L132.54 491.422C132.421 494.209 132.268 497.786 132.06 501.851C131.628 510.319 130.953 521.07 129.822 531.679C128.712 542.086 127.082 553.188 124.531 562.008C123.289 566.3 121.515 571.198 118.772 575.364C116.265 579.171 110.363 586.106 100.252 586.106C91.1889 586.106 85.9293 580.151 83.8233 577.004C81.6331 573.732 80.4998 570.247 79.882 567.954C79.0097 564.717 78.5247 561.36 78.306 558.707C77.1204 563.613 76.007 568.331 75.035 572.793C72.5006 584.424 69.1566 595.982 65.7705 606.868C65.6271 607.329 65.4197 608.087 65.103 609.245C64.8974 609.996 64.6458 610.916 64.3359 612.032C63.6644 614.45 62.7754 617.563 61.8602 620.192C61.4273 621.435 60.8017 623.12 60.0006 624.722C59.626 625.47 58.9061 626.83 57.7925 628.255L57.7533 628.305C57.1372 629.098 53.7798 633.42 47.4673 634.604C43.4608 635.356 39.3234 634.619 35.8242 632.532C32.7112 630.675 30.9429 628.262 30.0472 626.789C28.3799 624.046 27.8612 621.421 27.6868 620.492C27.2502 618.166 27.1827 615.688 27.1827 613.714C27.1827 607.255 27.1795 600.798 27.1763 594.344C27.104 448.154 27.0323 303.242 64.1 157.36C64.1726 157.074 64.2452 156.789 64.3179 156.503C63.9246 124.855 63.5961 93.1738 63.5961 61.478C63.5961 52.4244 70.9504 45.085 80.0225 45.085C88.2149 45.085 95.0065 51.0701 96.2466 58.8979C100.181 49.905 104.47 40.9528 109.192 32.0263C109.229 31.9565 109.266 31.8855 109.305 31.8135C111.069 28.4766 114.075 22.7908 118.603 18.1539C123.873 12.7573 131.576 8.35977 141.772 8.76671C153.096 9.21864 158.314 18.0272 160.1 22.2836C162.024 26.8686 162.739 31.9999 163.065 36.2194C163.431 40.9477 163.416 46.2938 163.17 51.8057C164.033 50.1322 164.934 48.4998 165.874 46.9277C169.656 40.5974 175.543 32.6688 184.413 28.7353C187.068 27.558 191.266 26.3408 196.214 27.3466C201.536 28.4283 205.305 31.5789 207.586 34.7642C207.615 34.8039 207.643 34.8436 207.671 34.8834C207.717 34.82 207.758 34.7633 207.794 34.7135L207.799 34.7066C208.536 33.6915 209.381 32.6293 210.254 31.5976C211.98 29.5564 214.221 27.1507 216.641 24.9707C218.641 23.1696 222.345 20.0431 226.878 18.3406C229.125 17.4968 233.962 16.0815 239.596 17.879C246.306 20.0201 249.904 25.2494 251.374 29.6501C253.645 36.4471 254.712 43.9887 255.034 51.5515ZM180.69 538.428C180.69 538.428 180.693 538.399 180.698 538.355C180.693 538.409 180.69 538.428 180.69 538.428ZM60.8889 467.472C61.5683 435.296 62.7745 403.324 64.908 371.48C64.2196 403.56 62.9736 435.564 60.8889 467.472ZM97.2309 160.397C105.889 126.858 115.349 95.8611 129.126 65.8295C127.191 84.0915 123.867 102.32 123.348 105.107C120.828 118.635 118.265 132.129 115.706 145.608C109.648 177.505 103.607 209.312 98.1979 241.246C98.0024 220.179 97.7303 199.141 97.4589 178.158C97.3822 172.233 97.3056 166.313 97.2309 160.397ZM213.123 539.164C213.123 539.173 213.119 539.135 213.113 539.037C213.12 539.111 213.123 539.156 213.123 539.164ZM344.06 369.889V285.3C344.092 290.335 344.13 295.357 344.168 300.367C344.345 323.714 344.521 346.823 344.06 369.889ZM344.06 250.506C344.295 232.428 345.021 214.589 346.047 196.855C345.722 198.043 345.397 199.222 345.073 200.394C345.069 200.526 345.065 200.658 345.061 200.79C344.564 217.846 344.078 234.538 344.06 250.506ZM307.374 68.965C308.556 73.7934 309.528 78.509 310.177 83.28C309.59 85.2021 309.008 87.0825 308.423 88.9299C307.55 89.2631 306.721 89.6301 305.951 90.0033C306.589 83.0611 307.087 76.0516 307.374 68.965ZM329.106 23.9728C329.104 23.9538 329.102 23.9389 329.101 23.9281C329.091 23.8338 329.099 23.8545 329.106 23.9728ZM260.301 580.755C260.301 580.733 260.301 580.707 260.301 580.678C260.302 580.779 260.302 580.815 260.301 580.755ZM383.83 286.346C383.943 282.088 384.082 277.831 384.249 273.576C384.856 258.121 387.988 243.116 391.368 229.2C391.848 227.225 392.329 225.286 392.807 223.377C392.206 204.652 391.786 185.91 391.549 167.132C390.889 170.924 390.216 174.75 389.52 178.617C383.199 213.759 383.381 249.374 383.83 286.346ZM478.333 317.594C480.786 288.046 482.933 258.489 485.087 228.841C485.676 220.737 486.265 212.627 486.861 204.508C481.966 225.787 478.789 246.84 478.789 270.181C478.789 275.417 478.674 286.036 478.523 299.907C478.463 305.345 478.399 311.284 478.333 317.594ZM498.716 71.9358C498.913 69.8984 499.084 67.8586 499.219 65.8325C499.401 63.1119 499.511 60.4996 499.537 58.0269C497.241 63.9208 495.194 71.0158 493.389 79.1475C493.17 80.1328 492.957 81.1217 492.75 82.1134C494.626 78.6783 496.612 75.2843 498.716 71.9358ZM508.586 496.918C508.586 496.918 508.597 496.953 508.616 497.031C508.595 496.957 508.586 496.918 508.586 496.918ZM544.216 535.727C544.497 536.295 544.784 536.862 545.077 537.427C549.491 545.937 554.871 553.294 560.257 558.286C561.925 559.833 563.444 561.019 564.802 561.923C565.255 559.788 565.704 557.201 566.121 554.132C566.687 549.973 567.145 545.319 567.51 540.276C564.657 539.811 562.347 538.765 560.792 537.897C558.137 536.414 555.972 534.507 554.325 532.864C552.717 531.26 551.316 529.573 550.093 527.837C549.493 528.865 548.879 529.873 548.252 530.859C547.418 532.172 546.116 534.004 544.216 535.727ZM547.597 142.636C548.575 132.464 549.407 122.323 550.05 112.187C549.34 115.024 548.622 117.833 547.9 120.618C547.837 127.961 547.736 135.3 547.597 142.636ZM562.063 432.055C562.556 432.197 563.027 432.357 563.477 432.532C563.693 429.431 563.908 426.331 564.122 423.232C563.851 424.415 563.578 425.594 563.304 426.77C562.891 428.543 562.477 430.304 562.063 432.055ZM576.714 215.643C577.576 197.262 578.347 178.872 579.006 160.463C578.128 167.549 577.54 174.689 577.299 181.918C576.923 193.167 576.762 204.391 576.714 215.643ZM598.955 397.849C600.824 383.096 602.236 368.568 602.517 353.835C603.194 318.4 606.757 280.997 612.979 243.951C613.085 239.577 613.205 235.204 613.339 230.832C610.887 242.007 608.841 253.118 607.136 264.216C604.745 307.999 601.931 351.715 598.959 395.459C598.957 396.255 598.956 397.052 598.955 397.849ZM645.294 273.614C645.394 264.808 645.543 256.004 645.748 247.199C645.988 245.792 646.233 244.386 646.481 242.981C646.64 250.915 646.861 258.839 647.13 266.751C646.524 269.036 645.911 271.323 645.294 273.614ZM653.054 381.381C647.858 416.015 651.969 449.148 657.679 486.29C657.25 479.071 656.895 472.019 656.734 465.353C656.058 437.358 654.641 409.437 653.054 381.381ZM441.673 65.8233C440.302 65.8639 438.814 65.953 437.209 66.0793C436.245 66.1552 435.005 66.2691 433.678 66.391C432.708 66.48 431.693 66.5733 430.705 66.6591C430.548 67.0073 430.376 67.413 430.191 67.8832C429.601 69.3808 429.047 71.1452 428.534 73.1435C428.53 73.2076 428.526 73.2717 428.522 73.3357C428.146 79.3368 427.811 84.7063 427.811 90.1394V95.6711C428.514 94.3828 429.212 93.1224 429.892 91.8989L430.328 91.1128C432.556 87.1001 434.585 83.4462 436.403 79.7774C439.052 74.431 440.811 69.8856 441.673 65.8233ZM426.953 256.647C427.265 263.683 427.602 270.719 427.965 277.756C428.146 274.72 428.326 271.682 428.506 268.644C429.936 244.536 431.37 220.34 433.054 196.021C431.557 203.773 429.642 211.698 427.706 219.393C427.572 231.811 427.313 244.231 426.953 256.647ZM431.751 64.7983C431.755 64.8173 431.671 64.9521 431.484 65.146C431.653 64.8764 431.747 64.7794 431.751 64.7983ZM727.741 276.678C727.756 277.534 727.772 278.39 727.787 279.246C726.816 288.376 725.917 297.56 725.152 306.795C724.692 304.776 724.187 302.704 723.625 300.604C724.835 292.61 726.202 284.636 727.741 276.678ZM686.265 269.308C686.118 269.411 685.975 269.515 685.835 269.619C683.172 271.608 681.416 273.986 680.334 275.715C680.265 273.949 680.198 272.183 680.133 270.418C682.277 262.214 684.349 253.946 686.265 245.628V269.308ZM714.983 75.489C715.005 75.4148 715.022 75.3551 715.034 75.3113L715.047 75.2672C715.025 75.3412 715.004 75.4152 714.983 75.489ZM683.348 74.3423C683.311 74.153 683.312 74.1206 683.344 74.3185C683.346 74.3262 683.347 74.3341 683.348 74.3423ZM395.147 34.9599C395.134 34.9122 395.129 34.8861 395.129 34.8861C395.129 34.8861 395.135 34.9092 395.147 34.9599Z" fill="#786DFF"/>
<path fill-rule="evenodd" clip-rule="evenodd" d="M205.605 44.7415C252.105 44.7415 299.724 41.7446 346.893 38.776C372.444 37.1679 397.863 35.5681 422.901 34.4575C494.995 31.2597 565.667 31.9517 634.169 46.8335C645.649 49.3274 656.819 51.2706 667.53 53.0797C669.022 53.3317 670.502 53.5807 671.973 53.8281C681.163 55.3738 689.966 56.8545 698.702 58.5856C718.828 62.5734 737.686 67.7289 756.441 77.1508C761.715 79.8005 764.478 83.2914 765.897 87.0718C767.415 91.116 767.8 96.6606 766.094 103.515C765.339 106.551 764.548 109.623 763.747 112.733L763.739 112.766C758.897 131.576 753.692 151.797 753.692 174.04C753.692 211.685 756.886 248.591 760.015 284.749L760.061 285.278C763.224 321.828 766.306 357.636 766.306 394.076C766.306 425.67 766.078 455.929 763.059 486.264C761.828 498.634 759.778 510.818 757.625 523.622C756.996 527.362 756.358 531.155 755.729 535.021C753.008 551.741 750.539 569.413 750.539 587.532C750.539 603.395 747.929 618.915 744.446 634.663C742.918 641.573 741.068 645.672 738.989 648.585C736.956 651.434 733.984 654.159 728.658 657.217C726.161 658.65 722.918 659.15 716.666 658.292C714.413 657.983 712.37 657.601 709.976 657.153C708.817 656.937 707.575 656.705 706.187 656.458C704.818 656.215 703.33 655.963 701.757 655.74C702.122 654.853 702.418 653.959 702.652 653.071C704.33 646.705 702.797 640.909 701.664 637.687C700.378 634.029 698.533 630.71 696.755 628.101C695.222 625.854 692.7 622.59 689.406 620.26C681.748 614.843 673.699 612.623 668.314 611.137C662.205 609.453 659.484 608.658 657.172 607.179C656.873 606.988 656.575 606.796 656.278 606.602C656.096 606.484 655.915 606.365 655.734 606.246C641.912 582.674 620.603 566.089 597.745 553.702C585.429 542.227 571.601 531.016 554.991 522.668C532.77 511.499 509.844 502.816 485.823 496.425C473.533 493.154 460.938 491.108 449.076 489.283C448.312 489.165 447.552 489.048 446.796 488.933L445.04 488.664L445.036 488.663C434.433 487.042 424.473 485.519 414.79 483.356C404.842 481.133 394.39 481.083 385.32 481.402C381.209 481.547 377.592 481.747 374.224 481.933C369.33 482.204 364.96 482.446 360.36 482.446C349.068 482.446 337.745 481.975 326.11 481.44C324.873 481.383 323.631 481.326 322.386 481.268C312.026 480.787 301.39 480.294 290.741 480.124C279.076 479.938 267.252 480 255.638 480.062L255.615 480.062C249.916 480.092 244.267 480.122 238.713 480.122C214.719 480.122 191.566 490.278 173.684 498.121L173.642 498.139C172.537 498.624 171.452 499.1 170.389 499.564C168.017 500.598 165.453 501.651 162.756 502.757L162.749 502.76C152.435 506.993 140.179 512.022 129.297 519.913C112.35 532.2 96.9088 548.565 83.0194 563.285C78.1455 568.451 73.4627 573.414 68.973 577.927C68.7851 578.116 68.5222 578.377 68.1958 578.701L68.1934 578.703C65.8618 581.02 60.2951 586.55 55.6271 591.996C53.0909 594.954 49.9881 598.83 47.8952 602.686C47.2969 603.789 46.3604 605.628 45.6807 607.956H43.5892C39.4531 607.956 35.6742 609.493 32.7869 612.03V416.608C32.7869 390.322 37.7381 364.508 43.5255 337.297C44.1042 334.576 44.6923 331.838 45.284 329.082L45.285 329.078C50.504 304.774 56.0037 279.163 57.8011 252.976C58.6507 240.599 60.1648 228.827 61.7467 216.529C62.6448 209.547 63.5647 202.395 64.3973 194.866C64.9031 190.293 65.2336 185.004 65.5384 180.126C65.6848 177.784 65.8253 175.536 65.9764 173.509C66.4943 166.558 67.1928 160.828 68.4556 156.26C71.8855 143.853 74.4396 130.759 76.8202 118.553C77.9954 112.528 79.1284 106.719 80.3036 101.317C83.9568 84.5235 88.3918 69.293 96.2663 55.0955C96.4772 54.9994 96.7625 54.8809 97.1372 54.7464C99.3019 53.9694 102.568 53.3341 107.17 52.8243C110.053 52.5051 112.386 52.3231 114.891 52.1278C116.879 51.9728 118.974 51.8094 121.537 51.5623C126.013 51.1308 132.151 50.4191 137.388 48.3954C139.143 47.7172 141.531 47.5162 147.473 47.6561C147.822 47.6643 148.191 47.6743 148.576 47.6848C153.561 47.8199 161.495 48.0349 169.329 45.5752C173.059 44.404 178.007 43.9708 184.619 44.0592C187.669 44.0999 190.758 44.2403 194.097 44.3921L194.708 44.4199C198.162 44.5765 201.932 44.7415 205.605 44.7415ZM61.0478 640.969C61.129 641.638 61.1701 642.319 61.1687 643.009C72.0104 643.758 83.095 645.351 94.2873 648.683C101.987 650.976 110.327 651.106 121.411 651.144L122.224 651.146C132.334 651.178 145.064 651.218 157.522 655.07C166.157 657.74 178.239 658.217 192.664 657.575C199.036 657.291 205.441 656.818 211.874 656.343L213.852 656.197C220.806 655.686 227.882 655.187 234.338 655.049C246.592 654.787 258.813 654.094 271.186 653.25C269.024 653.021 266.867 652.791 264.716 652.562L262.062 652.279C245.686 650.536 229.619 648.858 213.471 647.776C203.323 647.096 193.249 645.712 183.844 644.419L183.84 644.419C181.984 644.163 180.153 643.912 178.353 643.67C167.138 642.163 156.731 640.969 146.353 640.969H61.0478ZM534.023 659.515C535.356 660.21 536.341 660.704 537.255 661.095C537.673 661.274 537.955 661.376 538.117 661.43C539.977 661.488 542.106 661.231 544.563 660.664C541.034 660.258 537.522 659.871 534.023 659.515ZM13.3888 652.5C16.2443 654.511 19.2621 655.861 22.1984 656.792C22.1167 657.458 22.0747 658.136 22.0747 658.824C22.0747 667.91 29.4143 675.277 38.4681 675.277C55.8752 675.277 70.6572 675.971 84.9632 680.23C97.5448 683.976 110.274 684.015 120.381 684.046L121.299 684.049C132.395 684.087 140.517 684.244 147.87 686.517C162.303 690.98 179.282 691.109 194.118 690.448C200.994 690.142 207.877 689.633 214.238 689.163L214.242 689.163L216.248 689.015C223.302 688.496 229.558 688.064 235.037 687.947C253.982 687.542 272.801 686.158 291.155 684.808L293.865 684.609C294.754 684.543 295.642 684.478 296.529 684.414C316.747 682.937 336.466 681.614 356.273 681.614C408.164 681.614 460.035 681.938 510.495 684.752L510.501 684.753C510.585 684.771 511.019 684.864 511.912 685.224C513.216 685.749 514.705 686.504 516.907 687.664L517.434 687.942C519.315 688.935 521.854 690.276 524.399 691.365C527.179 692.554 531.16 693.987 535.761 694.259C550 695.101 564.465 689.167 575.115 684.496C577.728 683.35 580.169 682.254 582.465 681.224C591.074 677.361 597.639 674.415 603.546 673.158C607.115 672.399 608.524 672.381 609.278 672.444C609.693 672.479 610.325 672.568 611.537 673.002C612.912 674.742 618.023 681.042 627.213 681.585C632.373 681.89 638.197 681.78 643.088 681.688C645.157 681.649 647.06 681.614 648.675 681.614C654.389 681.614 660.431 682.797 668.058 684.423L669.299 684.688C676.025 686.13 684.523 687.951 692.824 687.951C694.658 687.951 697 688.243 700.468 688.859C701.26 689 702.162 689.168 703.138 689.35C705.858 689.858 709.152 690.473 712.226 690.894C721.016 692.1 733.059 692.6 744.939 685.779C753.123 681.08 760.145 675.452 765.644 667.746C771.097 660.105 774.319 651.447 776.454 641.794C780.139 625.131 783.326 606.911 783.326 587.532C783.326 572.216 785.417 556.732 788.087 540.324C788.65 536.864 789.244 533.339 789.846 529.763L789.847 529.758C792.033 516.774 794.331 503.126 795.683 489.535C798.883 457.382 799.093 425.629 799.093 394.076C799.093 356.026 795.877 318.857 792.736 282.564L792.725 282.431C789.561 245.874 786.479 210.207 786.479 174.04C786.479 156.297 790.51 140.521 795.348 121.584L795.357 121.55C796.187 118.298 797.042 114.952 797.904 111.488C800.853 99.6345 800.932 87.0705 796.579 75.4716C792.126 63.6091 783.451 53.9223 771.117 47.7258C748.67 36.4491 726.618 30.5762 705.053 26.3031C695.813 24.4723 686.494 22.9052 677.332 21.3649L677.292 21.3581C675.848 21.1152 674.407 20.873 672.972 20.6305C662.314 18.8302 651.786 16.993 641.106 14.6727C568.445 -1.1125 494.424 -1.65267 421.454 1.58403C395.078 2.75395 369.05 4.39695 343.251 6.02551C296.858 8.95406 251.205 11.8359 205.605 11.8359C202.779 11.8359 199.717 11.7079 196.188 11.5478L195.464 11.5149C192.238 11.3679 188.652 11.2046 185.055 11.1565C177.458 11.055 168.319 11.414 159.539 14.1707C157.269 14.8834 154.569 14.9086 148.242 14.7596L147.852 14.7503C142.573 14.6237 134.062 14.4199 125.606 17.6877C125.593 17.6923 125.433 17.7503 125.083 17.8398C124.711 17.9345 124.207 18.0436 123.546 18.1592C122.195 18.3957 120.509 18.6044 118.402 18.8075C117.14 18.9292 115.392 19.0711 113.452 19.2285C110.245 19.4888 106.512 19.7919 103.574 20.1173C98.2902 20.7024 91.951 21.6612 86.0961 23.7628C80.3359 25.8303 72.9127 29.7658 68.38 37.7356C57.7027 56.5097 52.2805 75.8679 48.2712 94.2979C46.7665 101.215 45.4991 107.746 44.2683 114.089C42.0665 125.435 39.9814 136.18 36.8623 147.462C34.6932 155.308 33.8263 163.733 33.2808 171.055C33.0593 174.026 32.8929 176.727 32.7368 179.26C32.4714 183.568 32.2358 187.391 31.8105 191.237C31.1155 197.522 30.2726 204.106 29.4089 210.852C27.7432 223.863 26.0003 237.478 25.0918 250.715C23.4662 274.397 18.4832 297.645 13.2008 322.29L13.199 322.298C12.6219 324.991 12.0412 327.7 11.4609 330.428C5.67301 357.641 0 386.494 0 416.608V619.217C0 630.72 1.73757 644.292 13.3888 652.5ZM95.7644 55.3609C95.7644 55.3609 95.778 55.3498 95.8104 55.3298C95.7814 55.3513 95.7644 55.3609 95.7644 55.3609ZM619.73 118.68C628.792 115.711 637.902 114.717 648.714 114.717C702.649 114.717 743.987 164.23 726.5 217.687C720.186 236.989 703.156 250.133 685.731 255.948C668.204 261.796 646.442 261.506 629.304 248.876C608.924 233.858 597.225 212.672 590.205 191.375C584.39 183.696 578.47 174.696 574.894 164.74C572.51 158.105 573.609 151.69 576.364 146.7C578.758 142.362 582.165 139.458 584.455 137.749C586.886 135.935 589.403 134.501 591.107 133.555C591.791 133.176 592.101 133.007 592.374 132.858C592.635 132.715 592.866 132.59 593.356 132.317C593.646 132.155 593.86 132.033 594.022 131.938C594.166 131.852 594.227 131.814 594.227 131.814L594.223 131.816C602.897 126.134 610.814 121.602 619.73 118.68ZM263.247 619.208L265.521 619.45L268.034 619.718C283.589 621.375 298.839 623 314.173 624.142C314.542 624.169 314.912 624.196 315.281 624.223C313.865 623.456 312.46 622.597 311.079 621.634C309.906 620.816 308.136 619.449 306.507 617.415C299.594 617.338 292.137 617.237 284.339 617.116C277.365 617.834 270.331 618.547 263.247 619.208ZM249.045 575.764C249.617 575.632 250.252 575.472 250.93 575.275C250.627 576.671 250.454 578.164 250.446 579.758H217.707C221.872 579.094 226.123 578.412 230.502 577.67C230.398 577.688 230.445 577.684 230.762 577.662C231.138 577.636 231.893 577.584 233.223 577.509L233.732 577.481C235.579 577.378 237.982 577.244 240.376 577.033C242.912 576.81 246.077 576.45 249.045 575.764Z" fill="#FFD43E"/>
<path fill-rule="evenodd" clip-rule="evenodd" d="M221.868 498.57C261.007 488.435 306.72 480 348.958 480C357.974 480 365.283 487.527 365.283 496.812C365.283 506.097 357.974 513.624 348.958 513.624C310.474 513.624 267.662 521.382 229.829 531.179C224.998 532.43 220.093 532.814 216.601 533.081C216.394 533.096 216.19 533.112 215.991 533.127C212.343 533.405 210.006 533.582 207.917 534.003C207.904 534.006 207.594 534.077 206.772 534.373C206.175 534.588 205.701 534.773 205.077 535.016C204.664 535.177 204.186 535.364 203.563 535.602C203.521 535.618 203.479 535.634 203.435 535.651C201.242 536.489 196.459 538.317 191.161 538.317C188.869 538.317 185.367 538.082 182.072 537.862C181.635 537.833 181.202 537.804 180.777 537.775C176.737 537.508 172.324 537.234 168.119 537.132C163.986 537.032 160.683 537.119 158.456 537.385C153.461 540.944 146.728 541.477 141.093 538.18C133.254 533.593 130.51 523.33 134.964 515.257C138.193 509.404 143.398 506.997 145.797 506.061C148.651 504.948 151.562 504.399 153.902 504.085C158.661 503.446 164.095 503.401 168.889 503.517C173.821 503.637 178.821 503.953 182.868 504.22C183.149 504.239 183.422 504.257 183.689 504.274C187.005 504.494 189.205 504.64 190.51 504.681C190.853 504.576 191.373 504.395 192.213 504.074C192.421 503.995 192.698 503.888 193.017 503.763C193.869 503.432 195.026 502.982 195.987 502.636C197.457 502.106 199.437 501.45 201.651 501.004C205.777 500.173 210.071 499.854 213.22 499.621C213.557 499.596 213.881 499.572 214.19 499.548C217.899 499.265 220.14 499.017 221.868 498.57Z" fill="#1B1A1A"/>
<path fill-rule="evenodd" clip-rule="evenodd" d="M348.393 153.934C344.298 145.87 334.339 142.601 326.149 146.633C317.959 150.665 314.639 160.471 318.734 168.535C321.854 174.679 326.418 178.862 329.644 181.574C331.356 183.014 332.568 183.972 333.549 184.748C333.709 184.874 333.863 184.996 334.012 185.114C326.566 182.858 318.314 181.133 309.356 181.133C294.131 181.133 284.3 184.778 274.788 188.306C272.513 189.15 270.257 189.987 267.949 190.765C258.116 194.083 251.401 199.947 246.693 204.207C246.258 204.601 245.84 204.979 245.439 205.343L245.435 205.347C241.122 209.26 238.706 211.452 235.437 213.107C227.377 217.186 224.11 227.106 228.14 235.264C232.17 243.423 241.97 246.729 250.029 242.65C257.5 238.869 263.231 233.609 267.113 230.045C267.583 229.614 268.025 229.208 268.44 228.832C272.71 224.968 275.209 223.132 278.268 222.1C282.12 220.801 285.228 219.665 287.895 218.69C296.242 215.639 300.28 214.163 309.356 214.163C315.982 214.163 322.672 215.882 330.694 218.782C323.325 222.63 316.224 227.391 309.995 233.493C309.427 234.049 308.936 234.564 308.54 234.988L308.532 234.996C305.173 235.887 302.676 237.438 301.27 238.414C299.808 239.428 298.577 240.502 297.693 241.327C292.962 244.193 289.81 249.321 289.81 255.17C289.81 256.098 289.816 259.866 292.255 263.809C293.685 266.12 295.977 268.513 299.307 270.082C302.567 271.617 305.705 271.838 308.039 271.635C312.087 271.282 314.877 269.568 315.582 269.134C316.668 268.467 317.47 267.809 317.859 267.481C318.59 266.863 319.233 266.225 319.506 265.953C323.313 264.911 326.455 263.111 329.065 260.903C330.506 259.683 331.643 258.453 332.24 257.805L332.656 257.353C333.082 256.889 333.247 256.71 333.47 256.492C342.302 247.839 353.756 243.541 368.512 238.858C368.211 242.244 368.315 245.211 368.389 247.307L368.397 247.517C368.598 253.28 368.62 254.843 368.299 256.015C366.431 262.819 365.73 270.295 365.335 276.605C365.11 280.205 364.993 283.005 364.886 285.559C364.767 288.396 364.66 290.933 364.433 293.921C363.981 299.873 363.338 306.294 362.671 312.964C361.225 327.414 359.663 343.033 359.663 357.588C359.663 367.588 358.452 377.379 356.933 388.076C356.742 389.423 356.544 390.791 356.344 392.177L356.341 392.198L356.34 392.207C354.997 401.516 353.535 411.658 352.927 422.118C352.009 437.909 352.282 454.44 352.54 470.108C352.657 477.182 352.771 484.081 352.771 490.655C352.771 499.776 360.075 507.17 369.086 507.17C378.097 507.17 385.401 499.776 385.401 490.655C385.401 482.87 385.274 475.329 385.15 467.938C384.898 452.966 384.656 438.607 385.501 424.058C386.02 415.126 387.26 406.505 388.612 397.099L388.617 397.068L388.624 397.015C388.825 395.62 389.028 394.208 389.232 392.775C390.771 381.936 392.293 370.132 392.293 357.588C392.293 344.653 393.568 332.034 394.924 318.603C395.641 311.504 396.381 304.175 396.968 296.454C397.183 293.615 397.366 289.634 397.538 285.894C397.662 283.195 397.78 280.621 397.901 278.692C398.227 273.475 398.701 269.257 399.439 266.048L400.457 267.298L400.658 267.544C407.274 275.668 415.63 285.928 426.728 293.111C434.442 298.103 444.865 296.08 450.008 288.591C455.151 281.102 453.066 270.984 445.352 265.991C439.333 262.096 434.053 255.996 426.915 247.23C426.548 246.779 426.176 246.321 425.797 245.856C423.54 243.077 421.082 240.052 418.394 236.968C430.432 234.785 443.057 233.105 455.179 233.119C478.512 233.147 493.305 239.368 500.076 253.276C504.149 261.642 514.055 265.034 522.2 260.85C530.346 256.667 533.648 246.494 529.575 238.127C514.148 206.439 482.21 199.278 455.218 199.246C449.779 199.239 444.269 199.519 438.795 200L440.223 199.33C444.455 197.343 448.313 195.533 452.731 193.795C459.341 191.196 464.725 189.867 469.382 189.867C478.58 189.867 486.037 182.505 486.037 173.424C486.037 164.343 478.58 156.982 469.382 156.982C458.63 156.982 448.706 159.981 440.407 163.244C435.131 165.319 429.367 168.011 424.436 170.314C422.097 171.407 419.945 172.412 418.122 173.222C414.534 174.816 411.511 176.02 408.46 177.236L408.457 177.238L408.454 177.239C407.086 177.784 405.713 178.331 404.28 178.917C400.892 180.302 397.161 181.91 393.487 184.032C393.041 183.767 392.578 183.521 392.099 183.295C386.674 180.731 380.179 179.346 376.031 178.462C375.578 178.365 375.151 178.274 374.758 178.188C372.326 177.658 370.522 177.235 369.033 176.78C368.649 176.663 368.331 176.556 368.072 176.463L368.068 176.454C368.019 176.35 367.949 176.196 367.862 176.004C367.45 175.1 366.649 173.345 365.844 171.867C364.701 169.771 363.024 167.155 360.462 164.632C358.597 162.795 356.713 161.224 355.169 159.972C354.476 159.411 353.907 158.957 353.397 158.55C352.596 157.911 351.939 157.387 351.178 156.747C348.914 154.843 348.48 154.105 348.393 153.934Z" fill="#42F55F"/>
</svg>
